<?xml version="1.0" encoding="UTF-8" standalone="no"?>
<!-- Created with Inkscape (http://www.inkscape.org/) -->
<svg xmlns:inkscape="http://www.inkscape.org/namespaces/inkscape" xmlns:rdf="http://www.w3.org/1999/02/22-rdf-syntax-ns#" xmlns="http://www.w3.org/2000/svg" xmlns:xlink="http://www.w3.org/1999/xlink" xmlns:ns1="http://sozi.baierouge.fr" xmlns:cc="http://creativecommons.org/ns#" xmlns:sodipodi="http://sodipodi.sourceforge.net/DTD/sodipodi-0.dtd" xmlns:dc="http://purl.org/dc/elements/1.1/" id="svg2" xml:space="preserve" viewBox="0 0 40 40" version="1.1" inkscape:version="0.91 r13725">
  <defs id="defs6">
    <radialGradient id="radialGradient24" gradientUnits="userSpaceOnUse" cy="9.396" cx="15.533" gradientTransform="matrix(.61048 -.34752 .34752 .61048 -3.611 16.927)" r="25.948">
      <stop id="stop26" style="stop-color:#ff280d" offset="0"/>
      <stop id="stop28" style="stop-color:#630000" offset="1"/>
    </radialGradient>
    <clipPath id="clipPath36">
      <path id="path38" d="m3 7h18v16h-18v-16z" inkscape:connector-curvature="0"/>
    </clipPath>
    <mask id="mask40">
      <g id="g42">
        <g id="g44" clip-path="url(#clipPath36)">
          <path id="path46" style="fill:#000000;fill-opacity:0.0586" d="m3 7h18v16h-18v-16z" inkscape:connector-curvature="0"/>
        </g>
      </g>
    </mask>
    <clipPath id="clipPath52">
      <path id="path54" d="m3 7h18v16h-18v-16z" inkscape:connector-curvature="0"/>
    </clipPath>
    <clipPath id="clipPath56">
      <path id="path58" d="m3 7h18v16h-18v-16z" inkscape:connector-curvature="0"/>
    </clipPath>
    <clipPath id="clipPath80">
      <path id="path82" d="m12 4h18v19h-18v-19z" inkscape:connector-curvature="0"/>
    </clipPath>
    <mask id="mask84">
      <g id="g86">
        <g id="g88" clip-path="url(#clipPath80)">
          <path id="path90" style="fill:#000000;fill-opacity:.12110" d="m12 4h18v19h-18v-19z" inkscape:connector-curvature="0"/>
        </g>
      </g>
    </mask>
    <clipPath id="clipPath96">
      <path id="path98" d="m12 4h18v19h-18v-19z" inkscape:connector-curvature="0"/>
    </clipPath>
    <clipPath id="clipPath100">
      <path id="path102" d="m12 4h18v19h-18v-19z" inkscape:connector-curvature="0"/>
    </clipPath>
    <clipPath id="clipPath124">
      <path id="path126" d="m4 10h13v12h-13v-12z" inkscape:connector-curvature="0"/>
    </clipPath>
    <mask id="mask128">
      <g id="g130">
        <g id="g132" clip-path="url(#clipPath124)">
          <path id="path134" style="fill:#000000;fill-opacity:0.0898" d="m4 10h13v12h-13v-12z" inkscape:connector-curvature="0"/>
        </g>
      </g>
    </mask>
    <clipPath id="clipPath140">
      <path id="path142" d="m4 10h13v12h-13v-12z" inkscape:connector-curvature="0"/>
    </clipPath>
    <clipPath id="clipPath144">
      <path id="path146" d="m4 10h13v12h-13v-12z" inkscape:connector-curvature="0"/>
    </clipPath>
    <clipPath id="clipPath168">
      <path id="path170" d="m7 15h3v4h-3v-4z" inkscape:connector-curvature="0"/>
    </clipPath>
    <mask id="mask172">
      <g id="g174">
        <g id="g176" clip-path="url(#clipPath168)">
          <path id="path178" style="fill:#000000;fill-opacity:.17970" d="m7 15h3v4h-3v-4z" inkscape:connector-curvature="0"/>
        </g>
      </g>
    </mask>
    <clipPath id="clipPath184">
      <path id="path186" d="m7 15h3v4h-3v-4z" inkscape:connector-curvature="0"/>
    </clipPath>
    <clipPath id="clipPath188">
      <path id="path190" d="m7 15h3v4h-3v-4z" inkscape:connector-curvature="0"/>
    </clipPath>
    <clipPath id="clipPath212">
      <path id="path214" d="m7 14h2v2h-2v-2z" inkscape:connector-curvature="0"/>
    </clipPath>
    <mask id="mask216">
      <g id="g218">
        <g id="g220" clip-path="url(#clipPath212)">
          <path id="path222" style="fill:#000000;fill-opacity:.17970" d="m7 14h2v2h-2v-2z" inkscape:connector-curvature="0"/>
        </g>
      </g>
    </mask>
    <clipPath id="clipPath228">
      <path id="path230" d="m7 14h2v2h-2v-2z" inkscape:connector-curvature="0"/>
    </clipPath>
    <clipPath id="clipPath232">
      <path id="path234" d="m7 14h2v2h-2v-2z" inkscape:connector-curvature="0"/>
    </clipPath>
    <linearGradient id="linearGradient266" y2=".37890" gradientUnits="userSpaceOnUse" x2="-19.863" gradientTransform="matrix(-.702 .02536 .02536 .702 2.9203 28.401)" y1=".37890" x1="-21.939">
      <stop id="stop268" style="stop-color:#599c00" offset="0"/>
      <stop id="stop270" style="stop-color:#425200" offset="1"/>
    </linearGradient>
    <linearGradient id="linearGradient284" y2="1.3477" gradientUnits="userSpaceOnUse" x2="23.514" gradientTransform="matrix(.69896 -.07024 -.07024 -.69896 2.92 28.4)" y1="1.3477" x1="18.766">
      <stop id="stop286" style="stop-color:#599c00" offset="0"/>
      <stop id="stop288" style="stop-color:#425200" offset="1"/>
    </linearGradient>
    <linearGradient id="linearGradient302" y2="3.4746" gradientUnits="userSpaceOnUse" x2="21.6" gradientTransform="matrix(.70248 0 0 -.70248 2.9201 28.4)" y1="3.4746" x1="18.1">
      <stop id="stop304" style="stop-color:#599c00" offset="0"/>
      <stop id="stop306" style="stop-color:#425200" offset="1"/>
    </linearGradient>
    <clipPath id="clipPath316">
      <path id="path318" d="m14.266 25.098-0.633 0.105c-0.258 0.024-0.469 0.024-0.633 0l-0.176-0.07 0.492-0.106 0.317-0.14h-0.774l0.668-0.141c0.282-0.07 0.481-0.141 0.598-0.211-0.375 0.094-0.902 0.141-1.582 0.141-0.445 0-0.844-0.059-1.195-0.176l-0.418-0.141 0.246 0.106c0.164 0.094 0.515 0.199 1.051 0.316l-0.493-0.07-0.91-0.246 0.422 0.14c0.211 0.094 0.5 0.188 0.879 0.282l-0.844-0.141c-0.164-0.047-0.433-0.129-0.808-0.246-0.211-0.047-0.481-0.094-0.809-0.141l1.723 0.563c0.398 0.117 0.691 0.234 0.879 0.351l-1.055-0.211 0.422 0.211c0.328 0.165 0.621 0.247 0.879 0.247l0.98-0.106h-0.664c-0.164 0-0.281-0.023-0.351-0.07l-0.071-0.071h0.84c0.328 0 0.668-0.058 1.02-0.175z" inkscape:connector-curvature="0"/>
    </clipPath>
    <clipPath id="clipPath324">
      <path id="path326" d="m-16.382-9.0519h8.8974v4.236h-8.8974v-4.236z" inkscape:connector-curvature="0"/>
    </clipPath>
    <linearGradient id="linearGradient328" y2="-7.1943" gradientUnits="userSpaceOnUse" x2="-11.21" y1="-7.1943" x1="-14.05">
      <stop id="stop330" style="stop-color:#ffffff" offset="0"/>
      <stop id="stop332" style="stop-color:#ffffff;stop-opacity:0" offset="1"/>
    </linearGradient>
    <mask id="mask334">
      <g id="g336">
        <g id="g338" clip-path="url(#clipPath324)">
          <path id="path340" style="fill:url(#linearGradient328)" d="m-16.382-9.0519h8.8974v4.236h-8.8974v-4.236z" inkscape:connector-curvature="0"/>
        </g>
      </g>
    </mask>
    <linearGradient id="linearGradient344" y2="-7.1943" gradientUnits="userSpaceOnUse" x2="-11.21" y1="-7.1943" x1="-14.05">
      <stop id="stop346" style="stop-color:#97c41b" offset="0"/>
      <stop id="stop348" style="stop-color:#cdff00" offset="1"/>
    </linearGradient>
    <clipPath id="clipPath356">
      <path id="path358" d="m13.105 21.094 0.176 0.246 1.196 1.828-0.528-0.316-0.492-0.633 0.035 0.176 0.422 0.738-0.492-0.492c-0.164-0.141-0.305-0.375-0.422-0.703-0.07-0.165-0.117-0.305-0.141-0.422 0.047 0.257 0.153 0.574 0.317 0.949 0.094 0.258 0.199 0.433 0.316 0.527 0.07 0.07 0.117 0.106 0.141 0.106-0.071 0-0.129-0.036-0.176-0.106l-0.387-0.351 0.211 0.316c0.141 0.234 0.281 0.398 0.422 0.492l0.317 0.106-0.317-0.387 0.281 0.176c0.071 0.07 0.235 0.152 0.493 0.246l-0.247-0.211-0.105-0.281 0.242 0.211c0.117 0.093 0.293 0.175 0.528 0.246l-0.176-0.141-0.176-0.387 0.352 0.387-0.207-0.281-0.25-0.422 0.281 0.246c0.117 0.141 0.281 0.246 0.492 0.316l-0.352-0.351-0.281-0.387 0.527 0.352c0.141 0.14 0.34 0.258 0.598 0.351l-0.945-0.808-0.528-0.563 0.176 0.281 0.137 0.317c-0.047-0.024-0.105-0.07-0.176-0.141-0.113-0.117-0.207-0.246-0.277-0.386-0.141-0.235-0.34-0.481-0.598-0.739l0.699 1.336-0.457-0.633c-0.183-0.281-0.394-0.55-0.629-0.808z" inkscape:connector-curvature="0"/>
    </clipPath>
    <clipPath id="clipPath364">
      <path id="path366" d="m-4.6477-21.369h6.6515v7.0949h-6.6515v-7.0949z" inkscape:connector-curvature="0"/>
    </clipPath>
    <linearGradient id="linearGradient368" y2="-17.956" gradientUnits="userSpaceOnUse" x2="-.514" y1="-17.956" x1="-2.7612">
      <stop id="stop370" style="stop-color:#ffffff" offset="0"/>
      <stop id="stop372" style="stop-color:#ffffff;stop-opacity:0" offset="1"/>
    </linearGradient>
    <mask id="mask374">
      <g id="g376">
        <g id="g378" clip-path="url(#clipPath364)">
          <path id="path380" style="fill:url(#linearGradient368)" d="m-4.6477-21.369h6.6515v7.0949h-6.6515v-7.0949z" inkscape:connector-curvature="0"/>
        </g>
      </g>
    </mask>
    <linearGradient id="linearGradient384" y2="-17.956" gradientUnits="userSpaceOnUse" x2="-.514" y1="-17.956" x1="-2.7612">
      <stop id="stop386" style="stop-color:#97c41b" offset="0"/>
      <stop id="stop388" style="stop-color:#cdff00" offset="1"/>
    </linearGradient>
    <clipPath id="clipPath396">
      <path id="path398" d="m7.66 24.078c-0.324 0.164-0.558 0.457-0.699 0.879l-0.106 0.563 0.106-0.317c0.094-0.234 0.199-0.41 0.312-0.527 0.188-0.188 0.504-0.317 0.95-0.387 0.234-0.039 0.515-0.039 0.843 0l-0.984-0.141 0.457-0.07c0.258-0.019 0.621 0 1.09 0.074-0.047-0.074-0.352-0.117-0.914-0.144-0.352-0.02-0.621 0-0.809 0.07l0.176-0.101c0.211-0.094 0.539-0.133 0.984-0.106-0.375-0.098-0.843-0.027-1.406 0.207z" inkscape:connector-curvature="0"/>
    </clipPath>
    <clipPath id="clipPath404">
      <path id="path406" d="m5.449-1.4514h7.0028v6.3662h-7.0028v-6.3662z" inkscape:connector-curvature="0"/>
    </clipPath>
    <linearGradient id="linearGradient408" y2="1.812" gradientUnits="userSpaceOnUse" x2="10.789" y1="1.812" x1="7.3232">
      <stop id="stop410" style="stop-color:#ffffff" offset="0"/>
      <stop id="stop412" style="stop-color:#ffffff;stop-opacity:0" offset="1"/>
    </linearGradient>
    <mask id="mask414">
      <g id="g416">
        <g id="g418" clip-path="url(#clipPath404)">
          <path id="path420" style="fill:url(#linearGradient408)" d="m5.449-1.4514h7.0028v6.3662h-7.0028v-6.3662z" inkscape:connector-curvature="0"/>
        </g>
      </g>
    </mask>
    <linearGradient id="linearGradient424" y2="1.812" gradientUnits="userSpaceOnUse" x2="10.789" y1="1.812" x1="7.3232">
      <stop id="stop426" style="stop-color:#58730f" offset="0"/>
      <stop id="stop428" style="stop-color:#576b00" offset="1"/>
    </linearGradient>
    <clipPath id="clipPath436">
      <path id="path438" d="m11.633 19.898c0.094-0.023 0.222 0.082 0.387 0.321l0.453 0.699c-0.094-0.328-0.211-0.582-0.348-0.773l-0.387-0.418 0.282 0.101 0.316 0.211c-0.141-0.164-0.281-0.281-0.422-0.348l-0.246-0.144c0-0.07 0.141-0.031 0.422 0.109l0.562 0.242c-0.187-0.257-0.644-0.421-1.371-0.488-0.469-0.047-0.832-0.058-1.09-0.035l-0.246 0.035 0.211 0.035c0.422-0.07 0.762 0.012 1.02 0.246 0.258 0.231 0.5 0.512 0.734 0.84l-0.277-0.633z" inkscape:connector-curvature="0"/>
    </clipPath>
    <clipPath id="clipPath444">
      <path id="path446" d="m12.452 3.0046h6.3662v5.0929h-6.3662v-5.0929z" inkscape:connector-curvature="0"/>
    </clipPath>
    <linearGradient id="linearGradient448" y2="5.21" gradientUnits="userSpaceOnUse" x2="17.486" y1="5.21" x1="15.026">
      <stop id="stop450" style="stop-color:#ffffff" offset="0"/>
      <stop id="stop452" style="stop-color:#ffffff;stop-opacity:0" offset="1"/>
    </linearGradient>
    <mask id="mask454">
      <g id="g456">
        <g id="g458" clip-path="url(#clipPath444)">
          <path id="path460" style="fill:url(#linearGradient448)" d="m12.452 3.0046h6.3662v5.0929h-6.3662v-5.0929z" inkscape:connector-curvature="0"/>
        </g>
      </g>
    </mask>
    <linearGradient id="linearGradient464" y2="5.21" gradientUnits="userSpaceOnUse" x2="17.486" y1="5.21" x1="15.026">
      <stop id="stop466" style="stop-color:#58730f" offset="0"/>
      <stop id="stop468" style="stop-color:#576b00" offset="1"/>
    </linearGradient>
    <clipPath id="clipPath476">
      <path id="path478" d="m21.43 20.566 0.386-0.316c0.141-0.141 0.34-0.27 0.598-0.387-0.094 0.047-0.187 0.129-0.281 0.246l-0.422 0.563 0.422-0.457c0.164-0.164 0.375-0.27 0.633-0.317l-0.246 0.176-0.352 0.317 0.281-0.211 0.317-0.106-0.246 0.176-0.528 0.668 0.633-0.527c0.281-0.258 0.41-0.317 0.387-0.176l-0.422 0.562 0.879-0.703c0.445-0.304 0.679-0.433 0.703-0.386 0.07-0.047 0.058-0.071-0.035-0.071l-0.633 0.176 0.316-0.176c0.141-0.07 0.352-0.14 0.633-0.211l-0.422 0.035-0.703 0.145 0.563-0.25c0.218-0.074 0.398-0.129 0.543-0.156-0.344 0.039-0.817 0.14-1.422 0.297-0.489 0.14-0.903 0.363-1.231 0.668l-0.351 0.421z" inkscape:connector-curvature="0"/>
    </clipPath>
    <clipPath id="clipPath484">
      <path id="path486" d="m27.731-4.6344h6.3662v5.0929h-6.3662v-5.0929z" inkscape:connector-curvature="0"/>
    </clipPath>
    <linearGradient id="linearGradient488" y2="-2.082" gradientUnits="userSpaceOnUse" x2="33.116" y1="-2.082" x1="29.091">
      <stop id="stop490" style="stop-color:#ffffff" offset="0"/>
      <stop id="stop492" style="stop-color:#ffffff;stop-opacity:0" offset="1"/>
    </linearGradient>
    <mask id="mask494">
      <g id="g496">
        <g id="g498" clip-path="url(#clipPath484)">
          <path id="path500" style="fill:url(#linearGradient488)" d="m27.731-4.6344h6.3662v5.0929h-6.3662v-5.0929z" inkscape:connector-curvature="0"/>
        </g>
      </g>
    </mask>
    <linearGradient id="linearGradient504" y2="-2.082" gradientUnits="userSpaceOnUse" x2="33.116" y1="-2.082" x1="29.091">
      <stop id="stop506" style="stop-color:#58730f" offset="0"/>
      <stop id="stop508" style="stop-color:#576b00" offset="1"/>
    </linearGradient>
    <clipPath id="clipPath516">
      <path id="path518" d="m23.539 23.273h-0.176l-0.246-0.07 1.332-0.035-1.051-0.141h1.473l-1.789-0.175c-0.398-0.024-0.727 0-0.984 0.07l-0.282 0.105c0.375-0.07 0.657-0.07 0.844 0l-1.09 0.211 0.387-0.035c0.188-0.023 0.398-0.012 0.633 0.035h-0.563c-0.14 0-0.304 0.047-0.492 0.141l-0.246 0.141 0.668-0.18c0.328-0.067 0.539-0.082 0.633-0.031h-0.176l-0.281 0.171 1.406-0.207z" inkscape:connector-curvature="0"/>
    </clipPath>
    <clipPath id="clipPath524">
      <path id="path526" d="m25.821-8.4545h6.3662v5.0929h-6.3662v-5.0929z" inkscape:connector-curvature="0"/>
    </clipPath>
    <linearGradient id="linearGradient528" y2="-6.1602" gradientUnits="userSpaceOnUse" x2="30.858" y1="-6.1602" x1="27.057">
      <stop id="stop530" style="stop-color:#ffffff" offset="0"/>
      <stop id="stop532" style="stop-color:#ffffff;stop-opacity:0" offset="1"/>
    </linearGradient>
    <mask id="mask534">
      <g id="g536">
        <g id="g538" clip-path="url(#clipPath524)">
          <path id="path540" style="fill:url(#linearGradient528)" d="m25.821-8.4545h6.3662v5.0929h-6.3662v-5.0929z" inkscape:connector-curvature="0"/>
        </g>
      </g>
    </mask>
    <linearGradient id="linearGradient544" y2="-6.1602" gradientUnits="userSpaceOnUse" x2="30.858" y1="-6.1602" x1="27.057">
      <stop id="stop546" style="stop-color:#58730f" offset="0"/>
      <stop id="stop548" style="stop-color:#576b00" offset="1"/>
    </linearGradient>
    <clipPath id="clipPath556">
      <path id="path558" d="m19.148 25.344c0.188-0.094 0.434-0.141 0.739-0.141 0.234 0 0.383 0.024 0.453 0.07-0.113-0.093-0.278-0.152-0.492-0.175-0.211-0.024-0.371-0.012-0.489 0.035l-0.211 0.211z" inkscape:connector-curvature="0"/>
    </clipPath>
    <clipPath id="clipPath564">
      <path id="path566" d="m22.064-8.2353h3.1828v2.5292h-3.1828v-2.5292z" inkscape:connector-curvature="0"/>
    </clipPath>
    <linearGradient id="linearGradient568" y2="-6.4971" gradientUnits="userSpaceOnUse" x2="24.097" y1="-6.4971" x1="22.845">
      <stop id="stop570" style="stop-color:#ffffff" offset="0"/>
      <stop id="stop572" style="stop-color:#ffffff;stop-opacity:0" offset="1"/>
    </linearGradient>
    <mask id="mask574">
      <g id="g576">
        <g id="g578" clip-path="url(#clipPath564)">
          <path id="path580" style="fill:url(#linearGradient568)" d="m22.064-8.2353h3.1828v2.5292h-3.1828v-2.5292z" inkscape:connector-curvature="0"/>
        </g>
      </g>
    </mask>
    <linearGradient id="linearGradient584" y2="-6.4971" gradientUnits="userSpaceOnUse" x2="24.097" y1="-6.4971" x1="22.845">
      <stop id="stop586" style="stop-color:#58730f" offset="0"/>
      <stop id="stop588" style="stop-color:#576b00" offset="1"/>
    </linearGradient>
    <clipPath id="clipPath596">
      <path id="path598" d="m21.57 21.375-0.211 0.07 0.211-0.211c0.094-0.07 0.176-0.164 0.246-0.281l-0.316 0.246-0.387 0.141 0.075-0.035 0.207-0.317c-0.047 0-0.149 0.071-0.317 0.211-0.09 0.094-0.164 0.129-0.211 0.106v-0.071l0.141-0.422-0.211 0.317-0.524 0.387 0.493-0.176v0.105l-0.075 0.141 0.282-0.106-0.348 0.352 0.316-0.141c0.141-0.093 0.247-0.129 0.317-0.105l-0.387 0.387 0.527-0.282c0.141-0.093 0.375-0.304 0.704-0.632l-0.563 0.457 0.246-0.246-0.215 0.105z" inkscape:connector-curvature="0"/>
    </clipPath>
    <clipPath id="clipPath604">
      <path id="path606" d="m24.325-11.883h5.0908v4.9507h-5.0908v-4.9507z" inkscape:connector-curvature="0"/>
    </clipPath>
    <linearGradient id="linearGradient608" y2="-9.4082" gradientUnits="userSpaceOnUse" x2="27.169" y1="-9.4082" x1="24.121">
      <stop id="stop610" style="stop-color:#ffffff" offset="0"/>
      <stop id="stop612" style="stop-color:#ffffff;stop-opacity:0" offset="1"/>
    </linearGradient>
    <mask id="mask614">
      <g id="g616">
        <g id="g618" clip-path="url(#clipPath604)">
          <path id="path620" style="fill:url(#linearGradient608)" d="m24.325-11.883h5.0908v4.9507h-5.0908v-4.9507z" inkscape:connector-curvature="0"/>
        </g>
      </g>
    </mask>
    <linearGradient id="linearGradient624" y2="-9.4082" gradientUnits="userSpaceOnUse" x2="27.169" y1="-9.4082" x1="24.121">
      <stop id="stop626" style="stop-color:#97c41b" offset="0"/>
      <stop id="stop628" style="stop-color:#cdff00" offset="1"/>
    </linearGradient>
    <clipPath id="clipPath636">
      <path id="path638" d="m20.34 23.379 0.07-0.07c0.07-0.047 0.164-0.082 0.281-0.106l0.387-0.07-0.914 0.14-0.527 0.137 0.703 0.035-0.77 0.352h0.7l-0.247 0.176-0.281 0.07-0.035 0.07 0.492-0.14 0.317-0.141-0.352 0.07 0.633-0.382-0.527 0.14h-0.141l0.773-0.281c-0.187-0.024-0.328-0.024-0.422 0h-0.14z" inkscape:connector-curvature="0"/>
    </clipPath>
    <clipPath id="clipPath644">
      <path id="path646" d="m23.39-0.18644h4.7177v3.5772h-4.7177v-3.5772z" inkscape:connector-curvature="0"/>
    </clipPath>
    <linearGradient id="linearGradient648" y2="2.1768" gradientUnits="userSpaceOnUse" x2="26.585" y1="2.1768" x1="23.839">
      <stop id="stop650" style="stop-color:#ffffff" offset="0"/>
      <stop id="stop652" style="stop-color:#ffffff;stop-opacity:0" offset="1"/>
    </linearGradient>
    <mask id="mask654">
      <g id="g656">
        <g id="g658" clip-path="url(#clipPath644)">
          <path id="path660" style="fill:url(#linearGradient648)" d="m23.39-0.18644h4.7177v3.5772h-4.7177v-3.5772z" inkscape:connector-curvature="0"/>
        </g>
      </g>
    </mask>
    <linearGradient id="linearGradient664" y2="2.1768" gradientUnits="userSpaceOnUse" x2="26.585" y1="2.1768" x1="23.839">
      <stop id="stop666" style="stop-color:#97c41b" offset="0"/>
      <stop id="stop668" style="stop-color:#cdff00" offset="1"/>
    </linearGradient>
  </defs>
  <g id="g10" transform="matrix(1.25,0,0,-1.25,0,40)">
    <g id="g12">
      <g id="g14">
        <g id="g16">
          <g id="g22">
            <path id="path30" style="fill-rule:evenodd;fill:url(#radialGradient24)" d="m18.27 25.484c2.203 0.071 4.273-0.656 6.218-2.175 3.114-2.414 4.543-5.434 4.282-9.063-0.211-2.883-1.18-5.187-2.915-6.922-1.71-1.707-3.781-2.832-6.218-3.371-2.34-0.515-4.879-0.48-7.621 0.106-2.809 0.609-5.055 1.886-6.743 3.828-1.851 2.156-2.613 4.754-2.285 7.801 0.305 2.832 1.594 5.136 3.867 6.917 1.801 1.43 3.571 2.165 5.301 2.211 1.524 0.047 3.563 0.27 6.114 0.668z" inkscape:connector-curvature="0"/>
          </g>
        </g>
      </g>
      <g id="g32">
        <g id="g48" mask="url(#mask40)">
          <g id="g60">
            <g id="g62" clip-path="url(#clipPath52)">
              <g id="g64">
                <g id="g68">
                  <g id="g70" clip-path="url(#clipPath56)">
                    <g id="g72">
                      <path id="path74" style="fill-rule:evenodd;fill:#f28457" d="m13.73 22.773c2.086-0.328 3.793-1.367 5.129-3.125 1.707-2.222 1.977-4.625 0.809-7.199-1.125-2.484-3.023-4.074-5.691-4.777-2.649-0.656-4.989-0.41-7.024 0.738-2.109 1.168-3.187 2.926-3.234 5.266-0.024 2.226 0.398 4.09 1.265 5.586 0.75 1.289 1.77 2.203 3.055 2.738 1.969 0.82 3.863 1.078 5.691 0.773z" inkscape:connector-curvature="0"/>
                    </g>
                  </g>
                </g>
              </g>
            </g>
          </g>
        </g>
      </g>
      <g id="g76">
        <g id="g92" mask="url(#mask84)">
          <g id="g104">
            <g id="g106" clip-path="url(#clipPath96)">
              <g id="g108">
                <g id="g112">
                  <g id="g114" clip-path="url(#clipPath100)">
                    <g id="g116">
                      <path id="path118" style="fill-rule:evenodd;fill:#571b09" d="m28.938 17.086c0.468-2.578 0.011-5.117-1.372-7.625l-0.246-0.383-0.035-0.07c-0.469-0.656-0.84-1.125-1.121-1.406-1.219-1.219-2.812-2.133-4.777-2.739-2.18-0.539-4.215-0.785-6.114-0.738-0.843 0.047-1.589 0.129-2.246 0.246l-0.386 0.07c0.656-0.07 1.488-0.058 2.492 0.036 2.015 0.164 3.91 0.628 5.691 1.402 2.016 0.891 3.547 2.402 4.602 4.531 0.984 1.969 1.336 3.969 1.054 6.008-0.398 2.738-1.605 4.824-3.621 6.25 0.379 0.023 0.809 0.07 1.301 0.141 0.375 0.07 0.656 0.093 0.844 0.07 0.351-0.047 0.668-0.141 0.949-0.281 1.098-1.098 1.895-2.246 2.387-3.442 0.258-0.633 0.457-1.32 0.598-2.07z" inkscape:connector-curvature="0"/>
                    </g>
                  </g>
                </g>
              </g>
            </g>
          </g>
        </g>
      </g>
      <g id="g120">
        <g id="g136" mask="url(#mask128)">
          <g id="g148">
            <g id="g150" clip-path="url(#clipPath140)">
              <g id="g152">
                <g id="g156">
                  <g id="g158" clip-path="url(#clipPath144)">
                    <g id="g160">
                      <path id="path162" style="fill-rule:evenodd;fill:#f28457" d="m12.461 22c1.078 0 2.027-0.375 2.848-1.125 0.886-0.793 1.39-1.836 1.507-3.125 0.164-1.945-0.328-3.652-1.472-5.129-1.242-1.59-2.895-2.445-4.953-2.562-2.203-0.141-3.793 0.621-4.778 2.281-0.937 1.57-1.066 3.371-0.386 5.41 0.539 1.57 1.664 2.715 3.371 3.441 1.218 0.539 2.507 0.809 3.863 0.809z" inkscape:connector-curvature="0"/>
                    </g>
                  </g>
                </g>
              </g>
            </g>
          </g>
        </g>
      </g>
      <g id="g164">
        <g id="g180" mask="url(#mask172)">
          <g id="g192">
            <g id="g194" clip-path="url(#clipPath184)">
              <g id="g196">
                <g id="g200">
                  <g id="g202" clip-path="url(#clipPath188)">
                    <g id="g204">
                      <path id="path206" style="fill-rule:evenodd;fill:#ffffff" d="m9.723 18.258c0.187-0.516 0.152-0.961-0.106-1.336-0.351-0.469-0.715-0.774-1.086-0.914-0.328-0.117-0.597-0.082-0.808 0.105-0.516 0.446-0.692 1.02-0.528 1.723 0.164 0.633 0.481 0.996 0.95 1.09 0.793 0.164 1.32-0.059 1.578-0.668z" inkscape:connector-curvature="0"/>
                    </g>
                  </g>
                </g>
              </g>
            </g>
          </g>
        </g>
      </g>
      <g id="g208">
        <g id="g224" mask="url(#mask216)">
          <g id="g236">
            <g id="g238" clip-path="url(#clipPath228)">
              <g id="g240">
                <g id="g244">
                  <g id="g246" clip-path="url(#clipPath232)">
                    <g id="g248">
                      <path id="path250" style="fill-rule:evenodd;fill:#ffffff" d="m8 15.129c0.191-0.141 0.246-0.328 0.176-0.563-0.071-0.211-0.231-0.281-0.488-0.211-0.258 0.071-0.317 0.247-0.176 0.528 0.14 0.305 0.3 0.387 0.488 0.246z" inkscape:connector-curvature="0"/>
                    </g>
                  </g>
                </g>
              </g>
            </g>
          </g>
        </g>
      </g>
      <path id="path252" style="fill-rule:evenodd;fill:#5e9119" d="m25.328 22.922c-0.183 0-0.687-0.047-1.508-0.141-0.562-0.047-1.242-0.023-2.039 0.071-0.867 0.093-1.66 0.257-2.386 0.488l-0.809 0.32 1.371-0.844c1.004-0.632 1.801-1.195 2.387-1.687 1.172-1.008 2.051-1.559 2.633-1.652 0.492-0.067 0.902-0.032 1.23 0.109-0.117-0.145-0.316-0.274-0.598-0.387-0.582-0.187-1.285-0.176-2.105 0.035-0.75 0.207-1.336 0.489-1.758 0.84-0.539 0.492-1.078 0.949-1.617 1.371-0.84 0.633-1.707 1.16-2.598 1.582l-1.09 0.453c-0.796-0.468-1.554-1.132-2.281-2-0.351-0.445-0.726-0.937-1.125-1.476-0.375-0.328-1.043-0.574-2-0.738-0.844-0.141-1.863 0.105-3.058 0.738l1.476-0.492c1.055-0.184 1.793 0.105 2.215 0.879 0.328 0.539 0.605 1.078 0.84 1.617 0.164 0.375 0.351 0.703 0.562 0.984 0.539 0.656 1.231 1.043 2.075 1.16 0.046 0.067-0.622 0.176-2.004 0.313-0.774 0.07-1.567-0.043-2.387-0.352-0.844-0.324-1.442-0.476-1.793-0.453-0.606 0.02-1.121 0.184-1.543 0.492-0.398 0.278-0.598 0.606-0.598 0.981l0.035 0.738 0.211-0.879c0.329-0.586 0.926-0.808 1.789-0.668 0.61 0.094 1.336 0.352 2.18 0.774 0.656 0.351 1.367 0.515 2.141 0.492 0.89-0.024 1.64-0.176 2.25-0.457 0.304-0.164 0.527-0.317 0.668-0.457l0.453 0.316c0.398 0.235 0.797 0.399 1.195 0.492 0.281 0.071 0.715 0.036 1.301-0.105 0.562-0.117 1.027-0.094 1.402 0.07 0.391 0.18 0.66 0.34 0.809 0.473-0.207-0.352-0.5-0.602-0.879-0.754-0.234-0.094-0.664-0.141-1.297-0.141-0.562 0-0.902-0.035-1.019-0.105l-0.352-0.246 0.668-0.071c0.563-0.117 1.16-0.281 1.793-0.492 1.496-0.515 2.961-0.785 4.391-0.808 1.074-0.047 2.375-0.371 3.898-0.981-1.219 0.399-2.262 0.598-3.129 0.598z" inkscape:connector-curvature="0"/>
      <path id="path254" style="fill-rule:evenodd;fill:#31591e" d="m16.301 24.395c1.078-0.094 1.687-0.2 1.828-0.317 0.141-0.14 0.07-0.266-0.211-0.383s-0.68-0.152-1.195-0.105c-0.446 0.047-0.758 0.148-0.95 0.316l-0.136 0.246 0.664 0.243z" inkscape:connector-curvature="0"/>
      <g id="g256">
        <g id="g258">
          <g id="g264">
            <path id="path272" style="fill-rule:evenodd;fill:url(#linearGradient266)" d="m17.074 27.906-0.14 0.492h0.211c0.187 0 0.386-0.035 0.597-0.105 0.305-0.117 0.422-0.246 0.352-0.387-0.305-0.019-0.516-0.019-0.633 0h-0.387z" inkscape:connector-curvature="0"/>
          </g>
        </g>
      </g>
      <g id="g274">
        <g id="g276">
          <g id="g282">
            <path id="path290" style="fill-rule:evenodd;fill:url(#linearGradient284)" d="m17.777 27.906h0.352c-0.082-0.011-0.16-0.047-0.246-0.105-0.258-0.188-0.41-0.598-0.457-1.227-0.071-1.031 0-1.875 0.211-2.531-0.141-0.211-0.504-0.316-1.09-0.316-0.328 0-0.574 0.07-0.738 0.211l-0.172 0.21c0.207 1.43 0.476 2.497 0.804 3.196l0.493 1.054 0.246-0.246c0.187-0.16 0.386-0.246 0.597-0.246z" inkscape:connector-curvature="0"/>
          </g>
        </g>
      </g>
      <g id="g292">
        <g id="g294">
          <g id="g300">
            <path id="path308" style="fill-rule:evenodd;fill:url(#linearGradient302)" d="m17.145 26.258c0.07 0.844 0.199 1.312 0.386 1.406-0.07-0.027-0.152-0.094-0.246-0.211l-0.246-0.738 0.07 0.527c0.164 0.328 0.223 0.539 0.176 0.633l-0.176 0.316c0.188-0.191 0.411-0.285 0.668-0.285h0.317c-0.399-0.066-0.621-0.511-0.668-1.332-0.071-1.031 0-1.875 0.211-2.531-0.141-0.207-0.504-0.313-1.09-0.313-0.324 0-0.57 0.071-0.735 0.208l-0.16 0.195c0.075-0.082 0.278-0.125 0.618-0.125 0.117 0 0.175 0.105 0.175 0.32l0.246 0.594v-0.317c0-0.164 0.036-0.335 0.106-0.527l0.035 0.422 0.141 0.773v-1.121c0.047-0.164 0.117-0.152 0.207 0.036-0.071 0.535-0.082 1.226-0.035 2.07z" inkscape:connector-curvature="0"/>
          </g>
        </g>
      </g>
      <path id="path310" style="fill-rule:evenodd;fill:#67a614" d="m16.934 27.629c0.023-0.07 0.086-0.094 0.175-0.07l-0.316-0.668c-0.301-0.821-0.516-1.489-0.629-2.004-0.094-0.422-0.051-0.012 0.137 1.23 0.351 1.266 0.562 1.77 0.633 1.512z" inkscape:connector-curvature="0"/>
      <g id="g312">
        <g id="g314" clip-path="url(#clipPath316)">
          <g id="g320" transform="matrix(-.69256 -.11752 -.11752 .69256 2.9207 28.4)">
            <g id="g342" mask="url(#mask334)">
              <path id="path350" style="fill-rule:evenodd;fill:url(#linearGradient344)" d="m14.266 25.098-0.633 0.105c-0.258 0.024-0.469 0.024-0.633 0l-0.176-0.07 0.492-0.106 0.317-0.14h-0.774l0.668-0.141c0.282-0.07 0.481-0.141 0.598-0.211-0.375 0.094-0.902 0.141-1.582 0.141-0.445 0-0.844-0.059-1.195-0.176l-0.418-0.141 0.246 0.106c0.164 0.094 0.515 0.199 1.051 0.316l-0.493-0.07-0.91-0.246 0.422 0.14c0.211 0.094 0.5 0.188 0.879 0.282l-0.844-0.141c-0.164-0.047-0.433-0.129-0.808-0.246-0.211-0.047-0.481-0.094-0.809-0.141l1.723 0.563c0.398 0.117 0.691 0.234 0.879 0.351l-1.055-0.211 0.422 0.211c0.328 0.165 0.621 0.247 0.879 0.247l0.98-0.106h-0.664c-0.164 0-0.281-0.023-0.351-0.07l-0.071-0.071h0.84c0.328 0 0.668-0.058 1.02-0.175z" inkscape:connector-curvature="0"/>
            </g>
          </g>
        </g>
      </g>
      <g id="g352">
        <g id="g354" clip-path="url(#clipPath356)">
          <g id="g360" transform="matrix(-.37512 -.59392 -.59392 .37512 2.9195 28.4)">
            <g id="g382" mask="url(#mask374)">
              <path id="path390" style="fill-rule:evenodd;fill:url(#linearGradient384)" d="m13.105 21.094 0.176 0.246 1.196 1.828-0.528-0.316-0.492-0.633 0.035 0.176 0.422 0.738-0.492-0.492c-0.164-0.141-0.305-0.375-0.422-0.703-0.07-0.165-0.117-0.305-0.141-0.422 0.047 0.257 0.153 0.574 0.317 0.949 0.094 0.258 0.199 0.433 0.316 0.527 0.07 0.07 0.117 0.106 0.141 0.106-0.071 0-0.129-0.036-0.176-0.106l-0.387-0.351 0.211 0.316c0.141 0.234 0.281 0.398 0.422 0.492l0.317 0.106-0.317-0.387 0.281 0.176c0.071 0.07 0.235 0.152 0.493 0.246l-0.247-0.211-0.105-0.281 0.242 0.211c0.117 0.093 0.293 0.175 0.528 0.246l-0.176-0.141-0.176-0.387 0.352 0.387-0.207-0.281-0.25-0.422 0.281 0.246c0.117 0.141 0.281 0.246 0.492 0.316l-0.352-0.351-0.281-0.387 0.527 0.352c0.141 0.14 0.34 0.258 0.598 0.351l-0.945-0.808-0.528-0.563 0.176 0.281 0.137 0.317c-0.047-0.024-0.105-0.07-0.176-0.141-0.113-0.117-0.207-0.246-0.277-0.386-0.141-0.235-0.34-0.481-0.598-0.739l0.699 1.336-0.457-0.633c-0.183-0.281-0.394-0.55-0.629-0.808z" inkscape:connector-curvature="0"/>
            </g>
          </g>
        </g>
      </g>
      <g id="g392">
        <g id="g394" clip-path="url(#clipPath396)">
          <g id="g400" transform="matrix(.62832 -.31416 -.31416 -.62832 2.9203 28.4)">
            <g id="g422" mask="url(#mask414)">
              <path id="path430" style="fill-rule:evenodd;fill:url(#linearGradient424)" d="m7.66 24.078c-0.324 0.164-0.558 0.457-0.699 0.879l-0.106 0.563 0.106-0.317c0.094-0.234 0.199-0.41 0.312-0.527 0.188-0.188 0.504-0.317 0.95-0.387 0.234-0.039 0.515-0.039 0.843 0l-0.984-0.141 0.457-0.07c0.258-0.019 0.621 0 1.09 0.074-0.047-0.074-0.352-0.117-0.914-0.144-0.352-0.02-0.621 0-0.809 0.07l0.176-0.101c0.211-0.094 0.539-0.133 0.984-0.106-0.375-0.098-0.843-0.027-1.406 0.207z" inkscape:connector-curvature="0"/>
            </g>
          </g>
        </g>
      </g>
      <g id="g432">
        <g id="g434" clip-path="url(#clipPath436)">
          <g id="g440" transform="matrix(.62832 -.31416 -.31416 -.62832 2.9203 28.4)">
            <g id="g462" mask="url(#mask454)">
              <path id="path470" style="fill-rule:evenodd;fill:url(#linearGradient464)" d="m11.633 19.898c0.094-0.023 0.222 0.082 0.387 0.321l0.453 0.699c-0.094-0.328-0.211-0.582-0.348-0.773l-0.387-0.418 0.282 0.101 0.316 0.211c-0.141-0.164-0.281-0.281-0.422-0.348l-0.246-0.144c0-0.07 0.141-0.031 0.422 0.109l0.562 0.242c-0.187-0.257-0.644-0.421-1.371-0.488-0.469-0.047-0.832-0.058-1.09-0.035l-0.246 0.035 0.211 0.035c0.422-0.07 0.762 0.012 1.02 0.246 0.258 0.231 0.5 0.512 0.734 0.84l-0.277-0.633z" inkscape:connector-curvature="0"/>
            </g>
          </g>
        </g>
      </g>
      <g id="g472">
        <g id="g474" clip-path="url(#clipPath476)">
          <g id="g480" transform="matrix(.62832 -.31416 -.31416 -.62832 2.9202 28.4)">
            <g id="g502" mask="url(#mask494)">
              <path id="path510" style="fill-rule:evenodd;fill:url(#linearGradient504)" d="m21.43 20.566 0.386-0.316c0.141-0.141 0.34-0.27 0.598-0.387-0.094 0.047-0.187 0.129-0.281 0.246l-0.422 0.563 0.422-0.457c0.164-0.164 0.375-0.27 0.633-0.317l-0.246 0.176-0.352 0.317 0.281-0.211 0.317-0.106-0.246 0.176-0.528 0.668 0.633-0.527c0.281-0.258 0.41-0.317 0.387-0.176l-0.422 0.562 0.879-0.703c0.445-0.304 0.679-0.433 0.703-0.386 0.07-0.047 0.058-0.071-0.035-0.071l-0.633 0.176 0.316-0.176c0.141-0.07 0.352-0.14 0.633-0.211l-0.422 0.035-0.703 0.145 0.563-0.25c0.218-0.074 0.398-0.129 0.543-0.156-0.344 0.039-0.817 0.14-1.422 0.297-0.489 0.14-0.903 0.363-1.231 0.668l-0.351 0.421z" inkscape:connector-curvature="0"/>
            </g>
          </g>
        </g>
      </g>
      <g id="g512">
        <g id="g514" clip-path="url(#clipPath516)">
          <g id="g520" transform="matrix(.62832 -.31416 -.31416 -.62832 2.9203 28.4)">
            <g id="g542" mask="url(#mask534)">
              <path id="path550" style="fill-rule:evenodd;fill:url(#linearGradient544)" d="m23.539 23.273h-0.176l-0.246-0.07 1.332-0.035-1.051-0.141h1.473l-1.789-0.175c-0.398-0.024-0.727 0-0.984 0.07l-0.282 0.105c0.375-0.07 0.657-0.07 0.844 0l-1.09 0.211 0.387-0.035c0.188-0.023 0.398-0.012 0.633 0.035h-0.563c-0.14 0-0.304 0.047-0.492 0.141l-0.246 0.141 0.668-0.18c0.328-0.067 0.539-0.082 0.633-0.031h-0.176l-0.281 0.171 1.406-0.207z" inkscape:connector-curvature="0"/>
            </g>
          </g>
        </g>
      </g>
      <g id="g552">
        <g id="g554" clip-path="url(#clipPath556)">
          <g id="g560" transform="matrix(.63112 -.30856 -.30856 -.63112 2.9198 28.4)">
            <g id="g582" mask="url(#mask574)">
              <path id="path590" style="fill-rule:evenodd;fill:url(#linearGradient584)" d="m19.148 25.344c0.188-0.094 0.434-0.141 0.739-0.141 0.234 0 0.383 0.024 0.453 0.07-0.113-0.093-0.278-0.152-0.492-0.175-0.211-0.024-0.371-0.012-0.489 0.035l-0.211 0.211z" inkscape:connector-curvature="0"/>
            </g>
          </g>
        </g>
      </g>
      <g id="g592">
        <g id="g594" clip-path="url(#clipPath596)">
          <g id="g600" transform="matrix(.53008 -.46096 -.46096 -.53008 2.9199 28.4)">
            <g id="g622" mask="url(#mask614)">
              <path id="path630" style="fill-rule:evenodd;fill:url(#linearGradient624)" d="m21.57 21.375-0.211 0.07 0.211-0.211c0.094-0.07 0.176-0.164 0.246-0.281l-0.316 0.246-0.387 0.141 0.075-0.035 0.207-0.317c-0.047 0-0.149 0.071-0.317 0.211-0.09 0.094-0.164 0.129-0.211 0.106v-0.071l0.141-0.422-0.211 0.317-0.524 0.387 0.493-0.176v0.105l-0.075 0.141 0.282-0.106-0.348 0.352 0.316-0.141c0.141-0.093 0.247-0.129 0.317-0.105l-0.387 0.387 0.527-0.282c0.141-0.093 0.375-0.304 0.704-0.632l-0.563 0.457 0.246-0.246-0.215 0.105z" inkscape:connector-curvature="0"/>
            </g>
          </g>
        </g>
      </g>
      <g id="g632">
        <g id="g634" clip-path="url(#clipPath636)">
          <g id="g640" transform="matrix(.69072 -.12792 -.12792 -.69072 2.9199 28.4)">
            <g id="g662" mask="url(#mask654)">
              <path id="path670" style="fill-rule:evenodd;fill:url(#linearGradient664)" d="m20.34 23.379 0.07-0.07c0.07-0.047 0.164-0.082 0.281-0.106l0.387-0.07-0.914 0.14-0.527 0.137 0.703 0.035-0.77 0.352h0.7l-0.247 0.176-0.281 0.07-0.035 0.07 0.492-0.14 0.317-0.141-0.352 0.07 0.633-0.382-0.527 0.14h-0.141l0.773-0.281c-0.187-0.024-0.328-0.024-0.422 0h-0.14z" inkscape:connector-curvature="0"/>
            </g>
          </g>
        </g>
      </g>
    </g>
  </g>
<metadata><rdf:RDF><cc:Work><dc:format>image/svg+xml</dc:format><dc:type rdf:resource="http://purl.org/dc/dcmitype/StillImage"/><cc:license rdf:resource="http://creativecommons.org/licenses/publicdomain/"/><dc:publisher><cc:Agent rdf:about="http://openclipart.org/"><dc:title>Openclipart</dc:title></cc:Agent></dc:publisher></cc:Work><cc:License rdf:about="http://creativecommons.org/licenses/publicdomain/"><cc:permits rdf:resource="http://creativecommons.org/ns#Reproduction"/><cc:permits rdf:resource="http://creativecommons.org/ns#Distribution"/><cc:permits rdf:resource="http://creativecommons.org/ns#DerivativeWorks"/></cc:License></rdf:RDF></metadata></svg>
