<?xml version="1.0" encoding="UTF-8" standalone="no"?>
<!-- Created with Inkscape (http://www.inkscape.org/) -->
<svg xmlns:inkscape="http://www.inkscape.org/namespaces/inkscape" xmlns:rdf="http://www.w3.org/1999/02/22-rdf-syntax-ns#" xmlns="http://www.w3.org/2000/svg" xmlns:xlink="http://www.w3.org/1999/xlink" xmlns:ns1="http://sozi.baierouge.fr" xmlns:cc="http://creativecommons.org/ns#" xmlns:sodipodi="http://sodipodi.sourceforge.net/DTD/sodipodi-0.dtd" xmlns:dc="http://purl.org/dc/elements/1.1/" id="svg2" xml:space="preserve" viewBox="0 0 14.516 16.097" version="1.1" inkscape:version="0.91 r13725">
  <defs id="defs6">
    <radialGradient id="radialGradient32" gradientUnits="userSpaceOnUse" cy="-3.3438" cx="9.6738" gradientTransform="matrix(.2456 -.59096 .59096 .2456 3.9528 14.52)" r="14.267">
      <stop id="stop34" style="stop-color:#ed0101" offset="0"/>
      <stop id="stop36" style="stop-color:#7e0806" offset="1"/>
    </radialGradient>
    <radialGradient id="radialGradient50" gradientUnits="userSpaceOnUse" cy="-2.3169" cx="9.2959" gradientTransform="matrix(.24512 -.5912 .5912 .24512 2.7408 14.013)" r="8.5519">
      <stop id="stop52" style="stop-color:#ff7d7d" offset="0"/>
      <stop id="stop54" style="stop-color:#f51919" offset="1"/>
    </radialGradient>
    <radialGradient id="radialGradient68" gradientUnits="userSpaceOnUse" cy="4.0728" cx="13.202" gradientTransform="matrix(.24752 -.59016 .59016 .24752 -4.8066 10.861)" r=".42020">
      <stop id="stop70" style="stop-color:#ff7d7d" offset="0"/>
      <stop id="stop72" style="stop-color:#f51919" offset="1"/>
    </radialGradient>
    <radialGradient id="radialGradient86" gradientUnits="userSpaceOnUse" cy="-3.165" cx="15.208" gradientTransform="matrix(.24752 -.59016 .59016 .24752 3.7368 14.444)" r="1.2606">
      <stop id="stop88" style="stop-color:#ff7d7d" offset="0"/>
      <stop id="stop90" style="stop-color:#f51919" offset="1"/>
    </radialGradient>
    <radialGradient id="radialGradient104" gradientUnits="userSpaceOnUse" cy="-8.1108" cx="12.958" gradientTransform="matrix(.24808 -.58992 .58992 .24808 9.5704 16.903)" r="1.451">
      <stop id="stop106" style="stop-color:#ff7d7d" offset="0"/>
      <stop id="stop108" style="stop-color:#f51919" offset="1"/>
    </radialGradient>
    <radialGradient id="radialGradient122" gradientUnits="userSpaceOnUse" cy="-5.5771" cx="16.361" gradientTransform="matrix(.24656 -.59056 .59056 .24656 6.5888 15.628)" r="1.3952">
      <stop id="stop124" style="stop-color:#ff7d7d" offset="0"/>
      <stop id="stop126" style="stop-color:#f51919" offset="1"/>
    </radialGradient>
    <radialGradient id="radialGradient140" gradientUnits="userSpaceOnUse" cy="-1.4102" cx="17.519" gradientTransform="matrix(.24088 -.59296 .59296 .24088 1.6736 13.557)" r=".8635">
      <stop id="stop142" style="stop-color:#ff7d7d" offset="0"/>
      <stop id="stop144" style="stop-color:#f51919" offset="1"/>
    </radialGradient>
    <radialGradient id="radialGradient158" gradientUnits="userSpaceOnUse" cy=".80370" cx="16.842" gradientTransform="matrix(.24672 -.59056 .59056 .24672 -.948 12.482)" r="1.0702">
      <stop id="stop160" style="stop-color:#ff7d7d" offset="0"/>
      <stop id="stop162" style="stop-color:#f51919" offset="1"/>
    </radialGradient>
    <radialGradient id="radialGradient176" gradientUnits="userSpaceOnUse" cy="2.7896" cx="16.959" gradientTransform="matrix(.24272 -.59216 .59216 .24272 -3.303 11.524)" r=".82410">
      <stop id="stop178" style="stop-color:#ff7d7d" offset="0"/>
      <stop id="stop180" style="stop-color:#f51919" offset="1"/>
    </radialGradient>
    <radialGradient id="radialGradient194" gradientUnits="userSpaceOnUse" cy="5.7217" cx="16.638" gradientTransform="matrix(.25056 -.58888 .58888 .25056 -6.7385 10.01)" r=".63850">
      <stop id="stop196" style="stop-color:#ff7d7d" offset="0"/>
      <stop id="stop198" style="stop-color:#f51919" offset="1"/>
    </radialGradient>
    <radialGradient id="radialGradient212" gradientUnits="userSpaceOnUse" cy="3.8149" cx="15.923" gradientTransform="matrix(.24968 -.58928 .58928 .24968 -4.495 10.973)" r=".801">
      <stop id="stop214" style="stop-color:#ff7d7d" offset="0"/>
      <stop id="stop216" style="stop-color:#f51919" offset="1"/>
    </radialGradient>
    <radialGradient id="radialGradient230" gradientUnits="userSpaceOnUse" cy="-4.3594" cx="9.3608" gradientTransform="matrix(.16688 -.61784 .61784 .16688 5.388 14.333)" r="10.928">
      <stop id="stop232" style="stop-color:#f58758" offset="0"/>
      <stop id="stop234" style="stop-color:#bd5206" offset="1"/>
    </radialGradient>
    <radialGradient id="radialGradient248" gradientUnits="userSpaceOnUse" cy="-4.3521" cx="9.3643" gradientTransform="matrix(.16744 -.61768 .61768 .16744 5.3768 14.335)" r="10.944">
      <stop id="stop250" style="stop-color:#f58758" offset="0"/>
      <stop id="stop252" style="stop-color:#bd5206" offset="1"/>
    </radialGradient>
    <radialGradient id="radialGradient698" gradientUnits="userSpaceOnUse" cy="-4.355" cx="9.3633" gradientTransform="matrix(.1672 -.61776 .61776 .1672 5.3816 14.335)" r="10.956">
      <stop id="stop700" style="stop-color:#f58758" offset="0"/>
      <stop id="stop702" style="stop-color:#bd5206" offset="1"/>
    </radialGradient>
  </defs>
  <g id="g10" transform="matrix(1.25 0 0 -1.25 0 16.097)">
    <g id="g12">
      <path id="path14" style="fill-rule:evenodd;fill:#2d4f1b" d="m8.066 9.534 0.094-0.082c0.106-0.062 0.203-0.062 0.289 0 0.125 0.152 0.406 0.215 0.832 0.191 0.512-0.019 0.895-0.253 1.153-0.703 0.277-0.468 0.074-0.746-0.61-0.832-0.617-0.086-1.047-0.031-1.281 0.16-0.129 0.106-0.246 0.364-0.352 0.77l-0.125 0.496zm-0.066 0.047c-1.109-0.043-1.801 0.055-2.078 0.289-0.172 0.148-0.27 0.406-0.289 0.77l0.031 0.511 0.227-0.195c0.211-0.106 0.468-0.156 0.765-0.156 0.364 0 0.672-0.129 0.93-0.387 0.254-0.234 0.402-0.488 0.445-0.766l0.035-0.113-0.066 0.047z" inkscape:connector-curvature="0"/>
      <path id="path16" style="fill-rule:evenodd;fill:#2d4f1b" d="m9.633 7.725c0.34 0.043 0.726-0.082 1.152-0.382 0.449-0.321 0.703-0.715 0.766-1.184 0.152-0.875 0.023-1.684-0.383-2.434-0.234-0.488-0.297-0.906-0.191-1.246-0.149 0.426-0.18 0.907-0.098 1.438 0.047 0.43-0.074 0.91-0.348 1.441-0.32 0.578-0.676 0.875-1.058 0.895-0.34 0.023-0.414 0.269-0.223 0.738l0.383 0.734z" inkscape:connector-curvature="0"/>
      <path id="path18" style="fill-rule:evenodd;fill:#387329" d="m6.688 11.245c0.683-0.234 1.183-0.5 1.503-0.801 0.344-0.316 0.512-0.679 0.512-1.086-0.043-0.66-0.043-1.078 0-1.25-1.726 0.215-2.504 0.535-2.336 0.961 0.363 0.832 0.078 1.528-0.863 2.082-0.469 0.254-0.672 0.617-0.606 1.086 0.02 0.235 0.094 0.449 0.223 0.641-0.019-0.106-0.031-0.223-0.031-0.352 0.043-0.277 0.16-0.511 0.351-0.703 0.149-0.129 0.567-0.32 1.247-0.578z" inkscape:connector-curvature="0"/>
      <path id="path20" style="fill-rule:evenodd;fill:#48782a" d="m8.129 8.815c0.851 0.297 1.652 0.223 2.398-0.226 0.45-0.297 0.746-0.84 0.899-1.629 0.062-0.406 0.082-0.781 0.062-1.121-0.148 0.277-0.363 0.511-0.64 0.703-0.555 0.406-1.16 0.406-1.825 0-0.66-0.406-1-0.149-1.023 0.769l0.129 1.504z" inkscape:connector-curvature="0"/>
      <g id="g22">
        <g id="g24">
          <g id="g30">
            <path id="path38" style="fill-rule:evenodd;fill:url(#radialGradient32)" d="m0.961 5.968c0.148 1.191 0.5 2.14 1.055 2.847 0.597 0.789 1.386 1.227 2.371 1.313 1.937 0.168 3.433-0.281 4.476-1.348 1.367-1.469 1.934-2.965 1.699-4.476-0.171-1.219-0.726-2.137-1.664-2.754-0.812-0.532-1.753-0.844-2.82-0.926-1.383-0.129-2.258-0.246-2.621-0.352-0.855-0.281-1.633-0.343-2.336-0.195-0.726 0.152-1.101 0.492-1.121 1.027 0 0.426 0.105 1.012 0.32 1.758 0.278 1.004 0.492 2.035 0.641 3.106z" inkscape:connector-curvature="0"/>
          </g>
        </g>
      </g>
      <g id="g40">
        <g id="g42">
          <g id="g48">
            <path id="path56" style="fill-rule:evenodd;fill:url(#radialGradient50)" d="m2.723 3.054c0.168 0.023 0.316 0.117 0.445 0.289 0.105 0.191 0.141 0.414 0.098 0.672-0.067 0.277-0.215 0.351-0.45 0.222-0.148-0.062-0.277-0.203-0.382-0.414-0.129-0.215-0.153-0.406-0.067-0.578 0.067-0.168 0.184-0.234 0.356-0.191zm0.863 0.863c0.211-0.211 0.5-0.106 0.863 0.32 0.129 0.149 0.18 0.309 0.16 0.481-0.043 0.191-0.214 0.257-0.511 0.191-0.215-0.043-0.387-0.18-0.512-0.414-0.152-0.234-0.152-0.426 0-0.578zm0.383 2.625c-0.258-0.254-0.395-0.512-0.414-0.77-0.043-0.277 0.05-0.414 0.285-0.414 0.234 0 0.469 0.18 0.703 0.543 0.258 0.344 0.375 0.61 0.352 0.801-0.02 0.191-0.137 0.266-0.352 0.223-0.168-0.02-0.359-0.149-0.574-0.383zm-0.543 0.93c0.019-0.321 0.222-0.375 0.605-0.161 0.364 0.211 0.598 0.457 0.707 0.735 0.106 0.234 0.149 0.383 0.125 0.449-0.043 0.086-0.168 0.137-0.383 0.16-0.214 0.02-0.449-0.086-0.703-0.32-0.257-0.258-0.375-0.547-0.351-0.863zm3.008-0.196c-0.192 0.043-0.438-0.051-0.739-0.285-0.297-0.234-0.476-0.492-0.543-0.769-0.062-0.297 0.043-0.438 0.321-0.415 0.257 0 0.5 0.125 0.734 0.383 0.215 0.235 0.344 0.457 0.387 0.672 0.043 0.235-0.012 0.371-0.16 0.414zm-0.961 0.832c0.023-0.34 0.3-0.285 0.832 0.16 0.554 0.469 0.683 0.758 0.383 0.868-0.254 0.082-0.524 0.019-0.797-0.196-0.301-0.211-0.438-0.488-0.418-0.832zm-2.305-2.078c-0.191 0-0.395-0.109-0.606-0.32-0.234-0.235-0.343-0.524-0.32-0.863 0.02-0.258 0.137-0.375 0.352-0.352 0.211 0.02 0.406 0.148 0.574 0.383 0.152 0.234 0.234 0.48 0.258 0.734 0 0.278-0.086 0.418-0.258 0.418zm-0.094 1.567c-0.195 0.152-0.48-0.063-0.867-0.641-0.105-0.191-0.094-0.395 0.035-0.606 0.106-0.191 0.235-0.183 0.383 0.032l0.289 0.449c0.211 0.469 0.266 0.723 0.16 0.766zm3.551 1.73c0.598-0.043 0.648-0.418 0.16-1.121-0.191-0.277-0.504-0.469-0.93-0.574l0.61-0.032c0.383-0.109 0.531-0.343 0.449-0.707-0.191-0.703-0.684-1.171-1.473-1.406-0.171-0.066-0.351-0.097-0.543-0.097h-0.257l0.129-0.192c0.085-0.148 0.093-0.34 0.031-0.574-0.063-0.258-0.149-0.449-0.258-0.578-0.063-0.063-0.223-0.16-0.477-0.289-0.234-0.125-0.437-0.149-0.609-0.063-0.148-0.34-0.344-0.566-0.578-0.672-0.149-0.086-0.297-0.097-0.445-0.031-0.129 0.063-0.192 0.149-0.192 0.254v0.16c-0.301-0.277-0.554-0.383-0.769-0.32-0.192 0.086-0.246 0.32-0.161 0.703-0.019-0.234 0.032-0.414 0.161-0.543 0.105-0.129 0.222-0.094 0.351 0.098 0.149 0.191 0.246 0.414 0.289 0.672l0.032 0.32c-0.086 0.129-0.192 0.203-0.321 0.222-0.136 0-0.262-0.093-0.383-0.289l0.161 0.289c-0.067 0.043-0.129 0.118-0.192 0.223 0.082-0.082 0.18-0.105 0.285-0.062 0.086 0.043 0.153 0.117 0.196 0.222 0.082 0.192 0.136 0.418 0.156 0.672 0.043 0.301 0.035 0.449-0.031 0.449-0.383 0-0.618-0.246-0.704-0.734v-0.32c-0.019 0.148-0.019 0.32 0 0.511 0.172 0.618 0.438 0.864 0.801 0.735-0.172 0.086-0.191 0.332-0.066 0.738 0.086 0.32 0.246 0.586 0.48 0.797 0.196 0.195 0.352 0.269 0.481 0.227l0.258-0.032c0.254 0.469 0.629 0.754 1.121 0.864 0.488 0.128 0.715 0.105 0.672-0.067l0.511 0.289c0.403 0.192 0.754 0.278 1.055 0.258z" inkscape:connector-curvature="0"/>
          </g>
        </g>
      </g>
      <g id="g58">
        <g id="g60">
          <g id="g66">
            <path id="path74" style="fill-rule:evenodd;fill:url(#radialGradient68)" d="m1.09 4.143c-0.172-0.214-0.278-0.312-0.32-0.289-0.043 0.02-0.067 0.075-0.067 0.161l0.035 0.093 0.063-0.062c0.043-0.063 0.137-0.031 0.289 0.097z" inkscape:connector-curvature="0"/>
          </g>
        </g>
      </g>
      <g id="g76">
        <g id="g78">
          <g id="g84">
            <path id="path92" style="fill-rule:evenodd;fill:url(#radialGradient86)" d="m5.219 4.206c0.105-0.106 0.297-0.086 0.574 0.062 0.254 0.153 0.395 0.352 0.414 0.61 0-0.321-0.105-0.567-0.316-0.735-0.301-0.214-0.524-0.195-0.672 0.063z" inkscape:connector-curvature="0"/>
          </g>
        </g>
      </g>
      <g id="g94">
        <g id="g96">
          <g id="g102">
            <path id="path110" style="fill-rule:evenodd;fill:url(#radialGradient104)" d="m7.648 6.444c0.192-0.019 0.395 0.078 0.61 0.289 0.191 0.192 0.254 0.449 0.191 0.77 0.172-0.215 0.172-0.492 0-0.832-0.191-0.344-0.461-0.418-0.801-0.227z" inkscape:connector-curvature="0"/>
          </g>
        </g>
      </g>
      <g id="g112">
        <g id="g114">
          <g id="g120">
            <path id="path128" style="fill-rule:evenodd;fill:url(#radialGradient122)" d="m6.816 4.077c0.192-0.086 0.426-0.031 0.704 0.16 0.257 0.192 0.437 0.375 0.546 0.543-0.043-0.402-0.226-0.672-0.546-0.797-0.192-0.066-0.372-0.066-0.543 0l-0.161 0.094z" inkscape:connector-curvature="0"/>
          </g>
        </g>
      </g>
      <g id="g130">
        <g id="g132">
          <g id="g138">
            <path id="path146" style="fill-rule:evenodd;fill:url(#radialGradient140)" d="m5.602 2.925c0-0.235-0.141-0.36-0.418-0.383-0.149 0-0.278 0.031-0.383 0.098l-0.098 0.093 0.16-0.031c0.11-0.02 0.215-0.02 0.321 0 0.171 0.043 0.312 0.117 0.418 0.223z" inkscape:connector-curvature="0"/>
          </g>
        </g>
      </g>
      <g id="g148">
        <g id="g150">
          <g id="g156">
            <path id="path164" style="fill-rule:evenodd;fill:url(#radialGradient158)" d="m4.191 2.862 0.036-0.16c0-0.129-0.055-0.258-0.161-0.383-0.195-0.215-0.449-0.222-0.769-0.031 0.258 0 0.449 0.043 0.574 0.125 0.129 0.066 0.234 0.215 0.32 0.449z" inkscape:connector-curvature="0"/>
          </g>
        </g>
      </g>
      <g id="g166">
        <g id="g168">
          <g id="g174">
            <path id="path182" style="fill-rule:evenodd;fill:url(#radialGradient176)" d="m2.816 2.288c0.043-0.129 0.032-0.246-0.031-0.352-0.062-0.109-0.16-0.171-0.289-0.195-0.086-0.019-0.16-0.019-0.223 0l-0.066 0.035c0.195-0.023 0.332 0.008 0.418 0.094l0.191 0.418z" inkscape:connector-curvature="0"/>
          </g>
        </g>
      </g>
      <g id="g184">
        <g id="g186">
          <g id="g192">
            <path id="path200" style="fill-rule:evenodd;fill:url(#radialGradient194)" d="m1.152 1.741c0.043-0.148-0.019-0.266-0.191-0.351-0.191-0.086-0.32-0.051-0.383 0.097l0.223-0.035c0.086 0 0.203 0.098 0.351 0.289z" inkscape:connector-curvature="0"/>
          </g>
        </g>
      </g>
      <g id="g202">
        <g id="g204">
          <g id="g210">
            <path id="path218" style="fill-rule:evenodd;fill:url(#radialGradient212)" d="m2.145 2.64c-0.043-0.235-0.149-0.387-0.321-0.45-0.191-0.086-0.32-0.054-0.383 0.094l0.352-0.031c0.105 0.043 0.223 0.172 0.352 0.387z" inkscape:connector-curvature="0"/>
          </g>
        </g>
      </g>
      <g id="g220">
        <g id="g222">
          <g id="g228">
            <path id="path236" style="fill-rule:evenodd;fill:url(#radialGradient230)" d="m2.785 8.847c-0.129-0.407-0.289-0.653-0.48-0.739-0.192-0.086-0.258 0-0.192 0.258 0.106 0.383 0.254 0.609 0.449 0.672 0.192 0.043 0.266-0.02 0.223-0.191z" inkscape:connector-curvature="0"/>
          </g>
        </g>
      </g>
      <g id="g238">
        <g id="g240">
          <g id="g246">
            <path id="path254" style="fill-rule:evenodd;fill:url(#radialGradient248)" d="m4.48 8.304c-0.062-0.45-0.265-0.719-0.609-0.801-0.359-0.086-0.445 0.031-0.254 0.351 0.149 0.278 0.34 0.481 0.574 0.61 0.235 0.105 0.332 0.051 0.289-0.16z" inkscape:connector-curvature="0"/>
          </g>
        </g>
      </g>
      <g id="g256">
        <g id="g258">
          <g id="g264">
            <path id="path272" style="fill:url(#radialGradient248);fill-rule:evenodd" d="m6.367 7.054c0.067-0.383-0.082-0.684-0.445-0.895-0.387-0.215-0.567-0.184-0.547 0.094 0.023 0.234 0.191 0.469 0.516 0.707 0.297 0.234 0.457 0.265 0.476 0.094z" inkscape:connector-curvature="0"/>
          </g>
        </g>
      </g>
      <g id="g274">
        <g id="g276">
          <g id="g282">
            <path id="path290" style="fill:url(#radialGradient248);fill-rule:evenodd" d="m7.711 5.007c0.301-0.024 0.312-0.172 0.035-0.45-0.301-0.3-0.578-0.406-0.832-0.32-0.258 0.067-0.258 0.215 0 0.449 0.254 0.235 0.52 0.34 0.797 0.321z" inkscape:connector-curvature="0"/>
          </g>
        </g>
      </g>
      <g id="g292">
        <g id="g294">
          <g id="g300">
            <path id="path308" style="fill:url(#radialGradient230);fill-rule:evenodd" d="m8.512 2.96c0.277 0 0.258-0.129-0.063-0.387-0.32-0.254-0.578-0.359-0.769-0.32-0.168 0.066-0.125 0.195 0.129 0.387 0.277 0.21 0.511 0.32 0.703 0.32z" inkscape:connector-curvature="0"/>
          </g>
        </g>
      </g>
      <g id="g310">
        <g id="g312">
          <g id="g318">
            <path id="path326" style="fill:url(#radialGradient230);fill-rule:evenodd" d="m2.914 7.436c-0.023-0.296-0.129-0.554-0.32-0.765-0.172-0.215-0.266-0.203-0.289 0.031-0.02 0.215 0.086 0.426 0.32 0.641 0.234 0.254 0.332 0.289 0.289 0.093z" inkscape:connector-curvature="0"/>
          </g>
        </g>
      </g>
      <g id="g328">
        <g id="g330">
          <g id="g336">
            <path id="path344" style="fill:url(#radialGradient248);fill-rule:evenodd" d="m4.609 6.765c0.235-0.168 0.203-0.415-0.097-0.735-0.278-0.32-0.512-0.449-0.703-0.383-0.149 0.086-0.098 0.321 0.16 0.703 0.258 0.364 0.469 0.5 0.64 0.415z" inkscape:connector-curvature="0"/>
          </g>
        </g>
      </g>
      <g id="g346">
        <g id="g348">
          <g id="g354">
            <path id="path362" style="fill:url(#radialGradient248);fill-rule:evenodd" d="m6.047 5.007c0.129-0.153 0.055-0.332-0.223-0.543-0.277-0.239-0.449-0.289-0.512-0.16-0.085 0.125-0.011 0.308 0.223 0.543 0.235 0.253 0.406 0.308 0.512 0.16z" inkscape:connector-curvature="0"/>
          </g>
        </g>
      </g>
      <g id="g364">
        <g id="g366">
          <g id="g372">
            <path id="path380" style="fill:url(#radialGradient248);fill-rule:evenodd" d="m6.977 3.151c0.062-0.172-0.051-0.363-0.352-0.578-0.297-0.191-0.5-0.215-0.609-0.062-0.106 0.129 0.011 0.296 0.351 0.511 0.344 0.211 0.547 0.254 0.61 0.129z" inkscape:connector-curvature="0"/>
          </g>
        </g>
      </g>
      <g id="g382">
        <g id="g384">
          <g id="g390">
            <path id="path398" style="fill:url(#radialGradient248);fill-rule:evenodd" d="m6.914 1.327c0.383-0.023 0.449-0.109 0.191-0.258-0.277-0.148-0.511-0.191-0.703-0.125-0.172 0.043-0.172 0.113 0 0.223 0.149 0.105 0.317 0.16 0.512 0.16z" inkscape:connector-curvature="0"/>
          </g>
        </g>
      </g>
      <g id="g400">
        <g id="g402">
          <g id="g408">
            <path id="path416" style="fill:url(#radialGradient230);fill-rule:evenodd" d="m1.855 5.932c0.043-0.296 0-0.562-0.125-0.796-0.152-0.239-0.246-0.227-0.289 0.031-0.043 0.234 0.012 0.457 0.161 0.672 0.148 0.211 0.234 0.246 0.253 0.093z" inkscape:connector-curvature="0"/>
          </g>
        </g>
      </g>
      <g id="g418">
        <g id="g420">
          <g id="g426">
            <path id="path434" style="fill:url(#radialGradient248);fill-rule:evenodd" d="m2.945 5.772c0.297 0.086 0.371-0.074 0.223-0.48-0.148-0.383-0.352-0.594-0.606-0.641-0.171 0-0.203 0.172-0.097 0.516 0.105 0.34 0.265 0.543 0.48 0.605z" inkscape:connector-curvature="0"/>
          </g>
        </g>
      </g>
      <g id="g436">
        <g id="g438">
          <g id="g444">
            <path id="path452" style="fill:url(#radialGradient230);fill-rule:evenodd" d="m4.289 4.78c0.234-0.019 0.246-0.18 0.031-0.476-0.215-0.282-0.406-0.395-0.574-0.356-0.152 0.067-0.152 0.215 0 0.449 0.168 0.258 0.352 0.383 0.543 0.383z" inkscape:connector-curvature="0"/>
          </g>
        </g>
      </g>
      <g id="g454">
        <g id="g456">
          <g id="g462">
            <path id="path470" style="fill:url(#radialGradient230);fill-rule:evenodd" d="m5.375 3.276c0.234-0.105 0.27-0.211 0.098-0.316-0.149-0.11-0.34-0.16-0.575-0.16-0.195 0-0.195 0.093 0 0.285 0.192 0.172 0.352 0.234 0.477 0.191z" inkscape:connector-curvature="0"/>
          </g>
        </g>
      </g>
      <g id="g472">
        <g id="g474">
          <g id="g480">
            <path id="path488" style="fill:url(#radialGradient230);fill-rule:evenodd" d="m5.824 1.741c0.321-0.043 0.375-0.129 0.16-0.254-0.191-0.109-0.406-0.16-0.64-0.16-0.192 0-0.203 0.074-0.032 0.223 0.149 0.148 0.321 0.215 0.512 0.191z" inkscape:connector-curvature="0"/>
          </g>
        </g>
      </g>
      <g id="g490">
        <g id="g492">
          <g id="g498">
            <path id="path506" style="fill:url(#radialGradient248);fill-rule:evenodd" d="m1.762 4.366c0.234 0.106 0.297-0.055 0.191-0.48-0.105-0.426-0.246-0.598-0.418-0.512-0.125 0.062-0.16 0.223-0.094 0.48 0.063 0.254 0.168 0.426 0.321 0.512z" inkscape:connector-curvature="0"/>
          </g>
        </g>
      </g>
      <g id="g508">
        <g id="g510">
          <g id="g516">
            <path id="path524" style="fill:url(#radialGradient248);fill-rule:evenodd" d="m2.977 4.108c0.214-0.019 0.222-0.199 0.031-0.543-0.168-0.34-0.317-0.449-0.446-0.32-0.105 0.129-0.105 0.309 0 0.543 0.106 0.238 0.243 0.344 0.415 0.32z" inkscape:connector-curvature="0"/>
          </g>
        </g>
      </g>
      <g id="g526">
        <g id="g528">
          <g id="g534">
            <path id="path542" style="fill:url(#radialGradient248);fill-rule:evenodd" d="m3.906 3.054c0.211-0.02 0.254-0.129 0.125-0.321-0.148-0.191-0.34-0.297-0.574-0.32-0.215-0.02-0.223 0.086-0.031 0.32 0.168 0.215 0.328 0.321 0.48 0.321z" inkscape:connector-curvature="0"/>
          </g>
        </g>
      </g>
      <g id="g544">
        <g id="g546">
          <g id="g552">
            <path id="path560" style="fill:url(#radialGradient230);fill-rule:evenodd" d="m4.449 1.807c0.215 0 0.254-0.085 0.129-0.257-0.129-0.149-0.312-0.235-0.547-0.254-0.234-0.024-0.254 0.062-0.062 0.254 0.172 0.172 0.332 0.257 0.48 0.257z" inkscape:connector-curvature="0"/>
          </g>
        </g>
      </g>
      <g id="g562">
        <g id="g564">
          <g id="g570">
            <path id="path578" style="fill:url(#radialGradient248);fill-rule:evenodd" d="m1.891 3.022c0.234 0.086 0.308 0.012 0.222-0.222-0.109-0.235-0.258-0.395-0.449-0.481-0.172-0.066-0.203 0.02-0.098 0.254 0.11 0.234 0.215 0.387 0.325 0.449z" inkscape:connector-curvature="0"/>
          </g>
        </g>
      </g>
      <g id="g580">
        <g id="g582">
          <g id="g588">
            <path id="path596" style="fill:url(#radialGradient248);fill-rule:evenodd" d="m2.496 2.413c0.215 0.152 0.277 0.098 0.192-0.16-0.063-0.254-0.18-0.403-0.352-0.446-0.148-0.023-0.18 0.051-0.094 0.223 0.063 0.172 0.149 0.297 0.254 0.383z" inkscape:connector-curvature="0"/>
          </g>
        </g>
      </g>
      <g id="g598">
        <g id="g600">
          <g id="g606">
            <path id="path614" style="fill:url(#radialGradient230);fill-rule:evenodd" d="m3.328 1.741c0.149 0 0.172-0.074 0.067-0.223-0.11-0.171-0.258-0.265-0.45-0.289-0.191-0.019-0.215 0.055-0.066 0.223 0.172 0.195 0.32 0.289 0.449 0.289z" inkscape:connector-curvature="0"/>
          </g>
        </g>
      </g>
      <g id="g616">
        <g id="g618">
          <g id="g624">
            <path id="path632" style="fill:url(#radialGradient248);fill-rule:evenodd" d="m1.023 3.151c-0.062-0.406-0.136-0.617-0.222-0.64-0.063-0.024-0.106 0.086-0.129 0.32-0.02 0.168 0.043 0.309 0.191 0.414 0.129 0.086 0.184 0.055 0.16-0.094z" inkscape:connector-curvature="0"/>
          </g>
        </g>
      </g>
      <g id="g634">
        <g id="g636">
          <g id="g642">
            <path id="path650" style="fill:url(#radialGradient248);fill-rule:evenodd" d="m1.059 2.128c0.062-0.172 0.031-0.321-0.098-0.449-0.129-0.129-0.234-0.149-0.32-0.067-0.086 0.067-0.043 0.184 0.129 0.356 0.148 0.168 0.246 0.222 0.289 0.16z" inkscape:connector-curvature="0"/>
          </g>
        </g>
      </g>
      <g id="g652">
        <g id="g654">
          <g id="g660">
            <path id="path668" style="fill:url(#radialGradient248);fill-rule:evenodd" d="m1.855 1.39c0.172 0 0.204-0.075 0.098-0.223-0.105-0.149-0.258-0.223-0.449-0.223-0.168 0-0.192 0.074-0.063 0.223 0.149 0.148 0.289 0.223 0.414 0.223z" inkscape:connector-curvature="0"/>
          </g>
        </g>
      </g>
      <g id="g670">
        <g id="g672">
          <g id="g678">
            <path id="path686" style="fill:url(#radialGradient248);fill-rule:evenodd" d="m1.121 4.749c0.02-0.192-0.031-0.352-0.16-0.481-0.106-0.125-0.16-0.117-0.16 0.036 0 0.125 0.054 0.265 0.16 0.414 0.086 0.129 0.141 0.14 0.16 0.031z" inkscape:connector-curvature="0"/>
          </g>
        </g>
      </g>
      <g id="g688">
        <g id="g690">
          <g id="g696">
            <path id="path704" style="fill-rule:evenodd;fill:url(#radialGradient698)" d="m1.664 7.436c0-0.339-0.043-0.574-0.129-0.703-0.082-0.105-0.137-0.043-0.16 0.192-0.02 0.215 0.023 0.382 0.129 0.511 0.105 0.153 0.16 0.153 0.16 0z" inkscape:connector-curvature="0"/>
          </g>
        </g>
      </g>
      <g id="g706">
        <g id="g708">
          <g id="g714">
            <path id="path722" style="fill:url(#radialGradient248);fill-rule:evenodd" d="m4.387 9.679c0.297 0.019 0.402-0.043 0.316-0.192-0.082-0.172-0.297-0.301-0.637-0.383-0.343-0.109-0.429-0.047-0.257 0.188 0.148 0.238 0.343 0.363 0.578 0.387z" inkscape:connector-curvature="0"/>
          </g>
        </g>
      </g>
      <g id="g724">
        <g id="g726">
          <g id="g732">
            <path id="path740" style="fill:url(#radialGradient230);fill-rule:evenodd" d="m6.242 9.038c0.403 0.105 0.488 0 0.254-0.32-0.234-0.321-0.449-0.469-0.641-0.45-0.167 0.024-0.191 0.141-0.062 0.352 0.105 0.238 0.254 0.375 0.449 0.418z" inkscape:connector-curvature="0"/>
          </g>
        </g>
      </g>
      <g id="g742">
        <g id="g744">
          <g id="g750">
            <path id="path758" style="fill:url(#radialGradient230);fill-rule:evenodd" d="m8.031 7.503c0.344-0.086 0.418-0.278 0.227-0.578-0.215-0.297-0.406-0.407-0.578-0.321-0.149 0.067-0.172 0.239-0.063 0.512 0.106 0.277 0.246 0.406 0.414 0.387z" inkscape:connector-curvature="0"/>
          </g>
        </g>
      </g>
      <g id="g760">
        <g id="g762">
          <g id="g768">
            <path id="path776" style="fill:url(#radialGradient248);fill-rule:evenodd" d="m9.344 5.647c0.086-0.382 0.054-0.652-0.094-0.8-0.152-0.129-0.27-0.067-0.352 0.191-0.066 0.215-0.023 0.406 0.129 0.574 0.168 0.195 0.274 0.203 0.317 0.035z" inkscape:connector-curvature="0"/>
          </g>
        </g>
      </g>
      <g id="g778">
        <g id="g780">
          <g id="g786">
            <path id="path794" style="fill:url(#radialGradient248);fill-rule:evenodd" d="m10.273 3.725c0.02-0.191-0.066-0.382-0.257-0.574-0.168-0.191-0.317-0.226-0.446-0.097-0.109 0.105-0.023 0.289 0.254 0.546 0.278 0.254 0.426 0.297 0.449 0.125z" inkscape:connector-curvature="0"/>
          </g>
        </g>
      </g>
      <g id="g796">
        <g id="g798">
          <g id="g804">
            <path id="path812" style="fill:url(#radialGradient230);fill-rule:evenodd" d="m6.402 9.839c0.254-0.043 0.317-0.11 0.192-0.192-0.11-0.066-0.258-0.074-0.449-0.035-0.172 0.024-0.192 0.078-0.067 0.16 0.11 0.067 0.215 0.086 0.324 0.067z" inkscape:connector-curvature="0"/>
          </g>
        </g>
      </g>
      <g id="g814">
        <g id="g816">
          <g id="g822">
            <path id="path830" style="fill:url(#radialGradient230);fill-rule:evenodd" d="m7.617 9.038c0.321 0.105 0.426 0.043 0.321-0.191-0.129-0.278-0.258-0.395-0.383-0.352-0.086 0.02-0.11 0.105-0.067 0.254 0.024 0.148 0.063 0.246 0.129 0.289z" inkscape:connector-curvature="0"/>
          </g>
        </g>
      </g>
      <g id="g832">
        <g id="g834">
          <g id="g840">
            <path id="path848" style="fill:url(#radialGradient248);fill-rule:evenodd" d="m9.25 7.632c0.043-0.301 0.02-0.485-0.066-0.547-0.063-0.086-0.118-0.031-0.157 0.16-0.023 0.172 0 0.32 0.063 0.449 0.086 0.129 0.137 0.106 0.16-0.062z" inkscape:connector-curvature="0"/>
          </g>
        </g>
      </g>
      <g id="g850">
        <g id="g852">
          <g id="g858">
            <path id="path866" style="fill:url(#radialGradient230);fill-rule:evenodd" d="m10.336 6.097c0-0.321-0.043-0.547-0.129-0.676-0.062-0.125-0.137-0.125-0.223 0-0.062 0.109-0.019 0.301 0.129 0.578 0.129 0.254 0.203 0.289 0.223 0.098z" inkscape:connector-curvature="0"/>
          </g>
        </g>
      </g>
      <path id="path868" style="fill-rule:evenodd;fill:#649433" d="m9.695 4.589c0.215 0.172 0.418 0.406 0.61 0.707 0.406 0.594 0.609 1.203 0.609 1.82-0.023 0.727-0.301 1.293-0.832 1.699l0.285-0.129c0.258-0.148 0.504-0.375 0.738-0.671 0.254-0.321 0.395-0.801 0.415-1.442 0.023-0.598-0.051-1.023-0.223-1.281-0.258-0.426-0.789-0.66-1.602-0.703z" inkscape:connector-curvature="0"/>
    </g>
  </g>
<metadata><rdf:RDF><cc:Work><dc:format>image/svg+xml</dc:format><dc:type rdf:resource="http://purl.org/dc/dcmitype/StillImage"/><cc:license rdf:resource="http://creativecommons.org/licenses/publicdomain/"/><dc:publisher><cc:Agent rdf:about="http://openclipart.org/"><dc:title>Openclipart</dc:title></cc:Agent></dc:publisher></cc:Work><cc:License rdf:about="http://creativecommons.org/licenses/publicdomain/"><cc:permits rdf:resource="http://creativecommons.org/ns#Reproduction"/><cc:permits rdf:resource="http://creativecommons.org/ns#Distribution"/><cc:permits rdf:resource="http://creativecommons.org/ns#DerivativeWorks"/></cc:License></rdf:RDF></metadata></svg>
