<?xml version="1.0" encoding="UTF-8" standalone="no"?>
<!-- Created with Inkscape (http://www.inkscape.org/) -->
<svg xmlns:inkscape="http://www.inkscape.org/namespaces/inkscape" xmlns:rdf="http://www.w3.org/1999/02/22-rdf-syntax-ns#" xmlns="http://www.w3.org/2000/svg" xmlns:xlink="http://www.w3.org/1999/xlink" xmlns:ns1="http://sozi.baierouge.fr" xmlns:cc="http://creativecommons.org/ns#" xmlns:sodipodi="http://sodipodi.sourceforge.net/DTD/sodipodi-0.dtd" xmlns:dc="http://purl.org/dc/elements/1.1/" id="svg2" xml:space="preserve" viewBox="0 0 40 40" version="1.1" inkscape:version="0.91 r13725">
  <g id="g10" transform="matrix(1.25,0,0,-1.25,0,40)">
    <g id="g12">
      <path id="path14" style="fill-rule:evenodd;fill:#4f6e34" d="m20.141 12.969c-0.274-0.199-0.461-0.375-0.563-0.524-0.273-0.425-0.699-0.523-1.273-0.3l-0.223-1.309c-0.051-0.5-0.859-1.074-2.434-1.723-0.175 0.598-0.336 1.211-0.488 1.832-0.297 1.274-0.398 2-0.297 2.172 0.098 0.203 0.746 0.637 1.946 1.313 1.023 0.574 1.66 0.91 1.91 1.011 0.125 0.047 0.437-0.175 0.933-0.675 0.524-0.524 0.774-0.934 0.75-1.235-0.023-0.25-0.113-0.437-0.261-0.562z" inkscape:connector-curvature="0"/>
      <path id="path16" style="fill-rule:evenodd;fill:#658c42" d="m19.617 14.504-1.16 2.621 1.121-0.113 1.871-4.532c0.051-0.171 0.512-1.109 1.387-2.804 0.523-1.024 0.637-1.598 0.336-1.723-0.199-0.074-0.336-0.301-0.41-0.676-0.028-0.222-0.25-0.25-0.676-0.074-2.27 0.824-3.707 1.375-4.305 1.649-0.375 0.175-0.699 0.46-0.972 0.859l-0.336 0.523 0.672 0.34 0.636-0.449c0.477-0.301 0.801-0.461 0.973-0.488 0.25-0.075 0.512-0.039 0.785 0.113l-1.269 4.117 0.296 0.262 0.45-1.348c0.375-1.023 0.711-1.859 1.011-2.508 0.301-0.648 0.762-1.046 1.387-1.199 0.324-0.074 0.609-0.074 0.859 0-0.773 0.199-1.222 0.574-1.347 1.125-0.074 0.5-0.149 0.949-0.223 1.348-0.176 0.75-0.539 1.734-1.086 2.957z" inkscape:connector-curvature="0"/>
      <path id="path18" style="fill-rule:evenodd;fill:#81b354" d="m20.703 16.449 0.035-0.746c0.125-0.726 0.426-1.711 0.899-2.961 0.551-1.418 1.011-2.383 1.386-2.879 0.274-0.375 0.922-1 1.946-1.871 0.847-0.699 1.597-1.176 2.246-1.426 0.347-0.125 0.597-0.171 0.75-0.148l0.148-0.898c0.024-0.676-0.199-1.262-0.675-1.758-0.497-0.551-0.973-0.789-1.422-0.715l-0.524 0.301c-0.172 0.3-1.097 1.136-2.769 2.507-1.297 1.051-2.559 1.786-3.782 2.211-0.796 0.246-2.183 0.512-4.152 0.786-0.973 0.148-1.637 0.324-1.984 0.523l-0.227 0.262 0.152 2.133 6.59-2.844c-0.8 1.445-1.613 2.844-2.433 4.191-0.528 0.848-0.977 1.348-1.348 1.496l-0.449-0.035 1.683 1.121 1.008-2.394c0.477-1.024 1.188-1.836 2.133-2.434 0.078 0.649-0.086 1.348-0.484 2.098l-1.274 2.355 0.563 0.114 0.898-2.059c0.274-0.676 0.75-1.199 1.422-1.574 0.023 0.625-0.148 1.386-0.523 2.285-0.25 0.598-0.512 1.172-0.786 1.722l-0.375 0.633h1.348v0.004z" inkscape:connector-curvature="0"/>
      <path id="path20" style="fill-rule:evenodd;fill:#66943b" d="m27.402 5.184c0.301-0.102 0.375-0.028 0.227 0.222-0.875 0.727-1.473 1.199-1.797 1.422l-1.461 1.238 1.16-0.789c0.824-0.523 1.383-0.859 1.684-1.007l0.75-0.375 0.148-0.602c-0.051-0.598-0.273-1.109-0.672-1.531-0.55-0.602-1.05-0.824-1.5-0.676l0.079 0.226c0.945 0.473 1.246 1.008 0.894 1.61-0.172 0.25-0.496 0.535-0.973 0.859-0.722 0.473-1.273 0.86-1.644 1.16-0.551 0.45-1.313 0.973-2.285 1.571l-1.274 0.75 3.895-2.168c0.547-0.328 1.148-0.739 1.797-1.239 0.5-0.398 0.824-0.621 0.972-0.671z" inkscape:connector-curvature="0"/>
      <path id="path22" style="fill-rule:evenodd;fill:#66943b" d="m18.941 8.066c-0.796 0.25-2.183 0.512-4.152 0.786-0.973 0.148-1.637 0.324-1.984 0.523l-0.227 0.262 0.039 0.261c2.422-0.746 4.043-1.132 4.867-1.16 1.848-0.125 3.231-0.484 4.153-1.086 1-0.621 2.16-1.621 3.484-2.992 0.621-0.699 1.258-1.125 1.906-1.273-0.621-0.477-1.132-0.489-1.531-0.039-0.176 0.3-1.098 1.136-2.769 2.507-1.301 1.051-2.563 1.786-3.786 2.211z" inkscape:connector-curvature="0"/>
      <path id="path24" style="fill-rule:evenodd;fill:#a5db72" d="m21.488 11.809c-0.101 0.175-0.226 0.523-0.375 1.05-0.125 0.571-0.136 0.883-0.039 0.934 0.102 0.023 0.238-0.363 0.414-1.16 0.149-0.801 0.149-1.074 0-0.824z" inkscape:connector-curvature="0"/>
      <path id="path26" style="fill-rule:evenodd;fill:#a5db72" d="m20.891 10.984c0.121-0.25 0.011-0.484-0.336-0.711-0.328-0.199-0.59-0.199-0.789 0-0.274 0.274-0.114 0.364 0.488 0.262 0.176-0.023 0.211 0.164 0.113 0.563-0.125 0.574-0.187 0.898-0.187 0.972 0.023 0.176 0.125 0.102 0.297-0.226 0.101-0.199 0.238-0.485 0.414-0.86z" inkscape:connector-curvature="0"/>
      <path id="path28" style="fill-rule:evenodd;fill:#a5db72" d="m18.793 11.023c0.125-0.324 0.262-0.636 0.41-0.937 0.051-0.148 0-0.188-0.148-0.113-0.176 0.101-0.375 0.375-0.598 0.824-0.227 0.426-0.363 0.773-0.414 1.047-0.023 0.254 0.062 0.254 0.262 0 0.175-0.223 0.34-0.496 0.488-0.821z" inkscape:connector-curvature="0"/>
      <path id="path30" style="fill-rule:evenodd;fill:#a5db72" d="m24.371 8.066c0.75-0.75 1.008-1.074 0.785-0.972-0.176 0.097-0.511 0.347-1.011 0.746-1.946 1.301-3.02 2.086-3.219 2.359-0.149 0.199-0.074 0.227 0.226 0.074 0.274-0.125 0.524-0.285 0.746-0.484 0.051-0.051 0.426-0.301 1.125-0.75 0.625-0.375 1.075-0.699 1.348-0.973z" inkscape:connector-curvature="0"/>
      <path id="path32" style="fill-rule:evenodd;fill:#a5db72" d="m23.957 6.68c1.176-1.098 1.609-1.633 1.313-1.61l-2.133 1.797c-0.449 0.375-0.852 0.738-1.199 1.086-0.325 0.348-0.376 0.461-0.149 0.336 0.848-0.574 1.57-1.109 2.168-1.609z" inkscape:connector-curvature="0"/>
      <path id="path34" style="fill-rule:evenodd;fill:#4a732f" d="m23.508 25.473c0.574 0 0.961-0.278 1.164-0.825l0.035-0.523c0.574-0.051 0.949-0.363 1.125-0.937 0.125-0.399 0.086-0.762-0.113-1.086 0.125-0.172 0.199-0.313 0.222-0.411 0.102-0.351 0.051-0.675-0.148-0.972l0.113-0.262c0.098-0.375 0.063-0.727-0.113-1.051-0.172-0.324-0.438-0.547-0.785-0.672h-0.074c0.046-0.273 0-0.535-0.153-0.785-0.176-0.25-0.386-0.414-0.636-0.488l-0.375-0.035c0.05-0.278 0-0.512-0.149-0.715-0.125-0.223-0.312-0.371-0.562-0.445-0.149-0.051-0.286-0.051-0.411 0-0.05-0.352-0.214-0.563-0.488-0.637-0.324-0.074-0.574 0.023-0.75 0.297l-0.297-0.074h-0.039c-0.023-0.2-0.125-0.375-0.301-0.524-0.171-0.148-0.371-0.223-0.597-0.223l-0.301 0.075c-0.148-0.227-0.375-0.336-0.672-0.336-0.25 0-0.449 0.097-0.601 0.297l-0.036 0.039c-0.125-0.399-0.375-0.649-0.75-0.75l-0.41-0.039c0.051-0.223 0.028-0.45-0.074-0.672-0.125-0.199-0.297-0.34-0.523-0.414-0.176-0.024-0.348-0.024-0.524 0-0.101-0.172-0.25-0.297-0.449-0.371-0.051-0.352-0.227-0.563-0.524-0.637-0.226-0.074-0.437-0.051-0.636 0.074-0.102-0.223-0.262-0.375-0.488-0.449-0.376-0.074-0.684 0.023-0.934 0.301l-0.188-0.078c-0.25-0.075-0.488-0.047-0.711 0.078-0.25 0.097-0.425 0.273-0.523 0.523-0.477-0.051-0.773 0.16-0.898 0.633-0.075 0.203-0.063 0.414 0.035 0.641-0.574 0.046-0.934 0.347-1.086 0.894l-0.035 0.301c-0.524 0.074-0.887 0.375-1.086 0.898-0.125 0.449-0.039 0.86 0.261 1.235-0.226 0.074-0.375 0.238-0.449 0.488-0.125 0.273-0.086 0.523 0.114 0.75l-0.079 0.336c0 0.148 0.051 0.273 0.153 0.375-0.324 0.223-0.461 0.508-0.414 0.859 0 0.348 0.14 0.598 0.414 0.75-0.153 0.172-0.227 0.371-0.227 0.598 0 0.398 0.203 0.66 0.602 0.785-0.075 0.102-0.114 0.223-0.114 0.375 0 0.148 0.051 0.274 0.149 0.375-0.074 0.574 0.152 0.949 0.676 1.121 0.172 0.078 0.336 0.09 0.484 0.039v0.035c0.027 0.301 0.148 0.551 0.375 0.75 0.227 0.227 0.488 0.325 0.785 0.301 0.125 0 0.289-0.051 0.488-0.152 0.051 0.301 0.188 0.551 0.411 0.75 0.226 0.199 0.488 0.289 0.789 0.262 0.047 0.277 0.172 0.511 0.375 0.71 0.222 0.204 0.484 0.301 0.785 0.301l0.449-0.113c0.051 0.301 0.188 0.539 0.41 0.715 0.25 0.199 0.524 0.297 0.824 0.297 0.399-0.024 0.723-0.211 0.973-0.559 0.25 0.098 0.449 0.149 0.602 0.149l0.148-0.04c0.176 0.25 0.438 0.375 0.785 0.375 0.399 0 0.676-0.16 0.824-0.484 0.2 0.098 0.364 0.149 0.485 0.149 0.301-0.051 0.551-0.188 0.75-0.411 0.152 0.149 0.351 0.223 0.601 0.223 0.223 0 0.422-0.086 0.598-0.262 0.149-0.175 0.223-0.386 0.223-0.636v-0.075h0.113c0.223 0 0.426-0.074 0.598-0.226 0.203-0.149 0.312-0.336 0.339-0.559l0.446-0.226z" inkscape:connector-curvature="0"/>
      <path id="path36" style="fill-rule:evenodd;fill:#4c7a31" d="m20.477 16.152c-0.25-0.05-0.399 0.047-0.45 0.297-0.05 0.25 0.051 0.399 0.301 0.449 0.25 0.051 0.399-0.05 0.449-0.296 0.051-0.25-0.05-0.403-0.3-0.45z" inkscape:connector-curvature="0"/>
      <path id="path38" style="fill-rule:evenodd;fill:#508033" d="m22.535 22.777c-0.125-0.05-0.211 0-0.262 0.149-0.05 0.176 0 0.262 0.153 0.262 0.148 0.05 0.246 0 0.297-0.149 0-0.176-0.063-0.262-0.188-0.262z" inkscape:connector-curvature="0"/>
      <path id="path40" style="fill-rule:evenodd;fill:#5a8f39" d="m22.574 24.199c-0.301-0.051-0.476 0.063-0.523 0.336-0.051 0.274 0.062 0.438 0.336 0.488 0.273 0.098 0.437 0 0.484-0.3 0.078-0.301-0.023-0.473-0.297-0.524z" inkscape:connector-curvature="0"/>
      <path id="path42" style="fill-rule:evenodd;fill:#5a8f39" d="m22.348 25.211c-0.125-0.051-0.211 0.012-0.262 0.184-0.051 0.125 0.016 0.214 0.187 0.265 0.125 0.047 0.215-0.015 0.262-0.187 0-0.125-0.062-0.215-0.187-0.262z" inkscape:connector-curvature="0"/>
      <path id="path44" style="fill-rule:evenodd;fill:#5a8f39" d="m23.508 23.75c-0.223-0.051-0.36 0.051-0.41 0.301-0.102 0.222-0.012 0.359 0.261 0.41 0.227 0.051 0.364-0.035 0.414-0.262 0.047-0.25-0.039-0.398-0.265-0.449z" inkscape:connector-curvature="0"/>
      <path id="path46" style="fill-rule:evenodd;fill:#5a8f39" d="m24.258 22.215c-0.399-0.102-0.649 0.051-0.75 0.449-0.024 0.176 0 0.336 0.078 0.488 0.098 0.121 0.234 0.211 0.41 0.262 0.149 0.024 0.301 0 0.449-0.074 0.153-0.102 0.239-0.238 0.262-0.414 0.074-0.375-0.074-0.614-0.449-0.711z" inkscape:connector-curvature="0"/>
      <path id="path48" style="fill-rule:evenodd;fill:#5a8f39" d="m24.746 20.828c-0.324-0.047-0.512 0.078-0.562 0.375-0.102 0.352 0.011 0.551 0.336 0.602 0.351 0.074 0.55-0.051 0.597-0.375 0.102-0.301-0.023-0.5-0.371-0.602z" inkscape:connector-curvature="0"/>
      <path id="path50" style="fill-rule:evenodd;fill:#508033" d="m23.172 21.316c-0.301-0.05-0.473 0.063-0.524 0.336-0.05 0.274 0.063 0.45 0.336 0.524 0.278 0.051 0.438-0.063 0.489-0.336 0.05-0.125 0.035-0.238-0.039-0.336-0.047-0.102-0.137-0.164-0.262-0.188z" inkscape:connector-curvature="0"/>
      <path id="path52" style="fill-rule:evenodd;fill:#508033" d="m23.621 20.043c-0.125-0.051-0.25-0.023-0.375 0.074-0.125 0.078-0.199 0.176-0.223 0.301-0.074 0.324 0.051 0.535 0.375 0.637 0.125 0.023 0.25 0 0.375-0.075 0.125-0.078 0.2-0.187 0.223-0.339 0.051-0.121 0.027-0.246-0.074-0.371-0.074-0.125-0.176-0.2-0.301-0.227z" inkscape:connector-curvature="0"/>
      <path id="path54" style="fill-rule:evenodd;fill:#508033" d="m24.707 19.07c-0.199-0.05-0.375-0.027-0.523 0.075-0.149 0.125-0.25 0.273-0.301 0.449-0.102 0.449 0.074 0.738 0.523 0.863 0.176 0.023 0.352-0.016 0.524-0.113 0.175-0.102 0.277-0.25 0.3-0.449 0.051-0.2 0.028-0.375-0.074-0.524-0.125-0.176-0.273-0.277-0.449-0.301z" inkscape:connector-curvature="0"/>
      <path id="path56" style="fill-rule:evenodd;fill:#508033" d="m23.246 18.77c-0.199-0.075-0.348 0.015-0.449 0.265-0.024 0.223 0.074 0.387 0.301 0.485 0.25 0.05 0.398-0.051 0.449-0.297 0.051-0.25-0.051-0.403-0.301-0.453z" inkscape:connector-curvature="0"/>
      <path id="path58" style="fill-rule:evenodd;fill:#508033" d="m22.273 19.559c-0.125-0.051-0.25-0.028-0.375 0.074-0.097 0.074-0.16 0.172-0.187 0.301-0.098 0.273 0.016 0.461 0.34 0.558 0.324 0.051 0.511-0.074 0.558-0.371 0.028-0.125 0.016-0.25-0.035-0.375-0.074-0.101-0.176-0.164-0.301-0.187z" inkscape:connector-curvature="0"/>
      <path id="path60" style="fill-rule:evenodd;fill:#4c7a31" d="m21.711 18.324c-0.246-0.051-0.422 0.063-0.523 0.336-0.047 0.274 0.062 0.434 0.339 0.485 0.246 0.074 0.422-0.024 0.524-0.301 0.051-0.297-0.063-0.473-0.34-0.52z" inkscape:connector-curvature="0"/>
      <path id="path62" style="fill-rule:evenodd;fill:#4c7a31" d="m22.348 17.535c-0.325-0.051-0.512 0.074-0.559 0.375-0.027 0.125 0 0.25 0.074 0.375 0.075 0.125 0.172 0.199 0.301 0.223 0.125 0.027 0.246 0 0.371-0.074 0.102-0.075 0.164-0.172 0.188-0.301 0.101-0.324-0.024-0.524-0.375-0.598z" inkscape:connector-curvature="0"/>
      <path id="path64" style="fill-rule:evenodd;fill:#4c7a31" d="m21.34 17.234c-0.199-0.046-0.324 0.028-0.375 0.227s0.023 0.324 0.223 0.375c0.203 0.051 0.324-0.027 0.374-0.227 0.051-0.199-0.023-0.324-0.222-0.375z" inkscape:connector-curvature="0"/>
      <path id="path66" style="fill-rule:evenodd;fill:#4c7a31" d="m21.824 16.074c-0.297-0.047-0.484 0.078-0.562 0.375-0.051 0.324 0.074 0.512 0.375 0.563 0.301 0.05 0.488-0.074 0.562-0.375 0.051-0.301-0.074-0.485-0.375-0.563z" inkscape:connector-curvature="0"/>
      <path id="path68" style="fill-rule:evenodd;fill:#4c7a31" d="m23.172 16.938c-0.25-0.051-0.399 0.05-0.449 0.296-0.024 0.102-0.012 0.188 0.039 0.266 0.05 0.098 0.125 0.16 0.222 0.188 0.25 0.046 0.414-0.051 0.489-0.301 0.05-0.25-0.051-0.399-0.301-0.449z" inkscape:connector-curvature="0"/>
      <path id="path70" style="fill-rule:evenodd;fill:#508033" d="m24.035 17.945c-0.277-0.047-0.465 0.063-0.562 0.34-0.051 0.274 0.062 0.461 0.336 0.559 0.3 0.051 0.488-0.074 0.562-0.371 0.051-0.301-0.062-0.477-0.336-0.528z" inkscape:connector-curvature="0"/>
      <path id="path72" style="fill-rule:evenodd;fill:#5a8f39" d="m25.379 22.141c-0.199-0.051-0.32 0.023-0.371 0.222-0.051 0.176 0.023 0.289 0.222 0.34 0.176 0.051 0.29-0.027 0.336-0.226 0.051-0.176-0.011-0.286-0.187-0.336z" inkscape:connector-curvature="0"/>
      <path id="path74" style="fill-rule:evenodd;fill:#5a8f39" d="m25.082 22.965c-0.176-0.051-0.289 0.023-0.336 0.223-0.051 0.175 0.024 0.285 0.223 0.335 0.176 0.051 0.289-0.023 0.336-0.222 0.05-0.176-0.024-0.289-0.223-0.336z" inkscape:connector-curvature="0"/>
      <path id="path76" style="fill-rule:evenodd;fill:#5a8f39" d="m24.297 23.75c-0.199-0.051-0.324 0.023-0.375 0.223-0.051 0.203 0.023 0.324 0.223 0.375 0.199 0.05 0.324-0.024 0.375-0.223 0.05-0.199-0.024-0.324-0.223-0.375z" inkscape:connector-curvature="0"/>
      <path id="path78" style="fill-rule:evenodd;fill:#5a8f39" d="m23.547 24.723c-0.125 0-0.211 0.062-0.262 0.187 0 0.176 0.063 0.262 0.188 0.262 0.125 0.051 0.211 0 0.261-0.149 0.051-0.152-0.011-0.25-0.187-0.3z" inkscape:connector-curvature="0"/>
      <path id="path80" style="fill-rule:evenodd;fill:#5a8f39" d="m21.711 25.922c-0.149-0.051-0.246 0.012-0.297 0.187 0 0.149 0.063 0.25 0.188 0.297 0.148 0 0.246-0.062 0.296-0.187 0.051-0.199-0.011-0.297-0.187-0.297z" inkscape:connector-curvature="0"/>
      <path id="path82" style="fill-rule:evenodd;fill:#466b2c" d="m19.992 26.707 0.149-0.488c0.574 0.051 1-0.188 1.273-0.711 0.199-0.399 0.223-0.774 0.074-1.121 0.149-0.075 0.262-0.188 0.336-0.336 0.153-0.352 0.153-0.688 0-1.012l0.153-0.227c0.175-0.324 0.211-0.671 0.113-1.046-0.102-0.352-0.313-0.61-0.637-0.786l-0.078-0.039c0.102-0.273 0.102-0.535 0-0.785-0.121-0.273-0.309-0.472-0.559-0.597-0.101-0.079-0.214-0.114-0.339-0.114 0.101-0.25 0.101-0.488 0-0.711-0.075-0.25-0.223-0.425-0.45-0.523-0.148-0.074-0.297-0.113-0.449-0.113 0.051-0.325-0.062-0.563-0.336-0.711-0.273-0.176-0.551-0.125-0.824 0.148-0.023-0.051-0.113-0.097-0.262-0.148l-0.035 0.035c0-0.547-0.238-0.86-0.715-0.934l-0.336 0.035c-0.097-0.25-0.297-0.41-0.597-0.484-0.176-0.027-0.387 0.035-0.637 0.188l-0.035 0.035c-0.078-0.399-0.278-0.684-0.602-0.86-0.097-0.074-0.234-0.113-0.41-0.113 0.098-0.223 0.109-0.449 0.035-0.672-0.074-0.25-0.211-0.426-0.41-0.523-0.199-0.074-0.363-0.102-0.488-0.074-0.098-0.25-0.223-0.403-0.371-0.454l-0.039-0.035c0.05-0.324-0.086-0.562-0.414-0.711-0.172-0.101-0.372-0.113-0.598-0.039-0.074-0.222-0.211-0.398-0.41-0.523-0.352-0.199-0.676-0.16-0.977 0.113l-0.148-0.113c-0.551-0.25-1-0.137-1.348 0.336-0.473-0.098-0.812 0.051-1.012 0.449-0.097 0.176-0.125 0.398-0.074 0.676-0.547-0.051-0.961 0.16-1.234 0.636l-0.11 0.297c-0.527 0-0.925 0.239-1.199 0.711-0.226 0.403-0.226 0.813 0 1.239-0.226 0.05-0.398 0.187-0.523 0.41-0.153 0.25-0.164 0.5-0.039 0.75-0.075 0.074-0.11 0.172-0.11 0.3-0.027 0.126-0.015 0.262 0.035 0.411-0.3 0.175-0.488 0.425-0.562 0.75-0.023 0.324 0.062 0.597 0.262 0.82-0.176 0.176-0.274 0.363-0.297 0.562-0.078 0.375 0.062 0.672 0.41 0.899-0.102 0.101-0.148 0.211-0.148 0.336-0.028 0.074-0.016 0.215 0.035 0.414-0.176 0.523-0.012 0.934 0.488 1.234 0.148 0.074 0.312 0.114 0.484 0.114-0.047 0.296 0.016 0.57 0.188 0.82 0.176 0.25 0.414 0.402 0.711 0.449 0.226 0 0.386-0.023 0.488-0.074 0 0.301 0.098 0.562 0.301 0.785 0.172 0.25 0.41 0.398 0.711 0.449-0.028 0.278 0.062 0.528 0.262 0.75 0.175 0.25 0.41 0.399 0.71 0.449l0.45-0.035c0 0.297 0.101 0.559 0.3 0.785 0.176 0.25 0.411 0.399 0.711 0.45 0.422 0.05 0.786-0.075 1.086-0.375 0.125 0.125 0.313 0.211 0.563 0.261h0.109c0.176 0.325 0.426 0.5 0.75 0.524 0.352 0.051 0.649-0.051 0.899-0.297 0.199 0.125 0.347 0.187 0.449 0.187 0.301 0.024 0.562-0.05 0.785-0.226 0.152 0.199 0.324 0.312 0.527 0.336 0.246 0.027 0.473-0.035 0.672-0.188 0.199-0.125 0.313-0.312 0.336-0.558v-0.074l0.113 0.035c0.524 0.074 0.875-0.137 1.047-0.637 0.028 0 0.188-0.035 0.489-0.109 0.597 0.121 1.035-0.079 1.308-0.602z" inkscape:connector-curvature="0"/>
      <path id="path84" style="fill-rule:evenodd;fill:#5e943b" d="m16.211 27.156c-0.301-0.101-0.512 0.024-0.637 0.375-0.176 0.348-0.113 0.586 0.188 0.711 0.25 0.125 0.461 0 0.636-0.375 0.125-0.347 0.063-0.586-0.187-0.711z" inkscape:connector-curvature="0"/>
      <path id="path86" style="fill-rule:evenodd;fill:#5e943b" d="m14.938 26.969c-0.325-0.125-0.551-0.012-0.676 0.336-0.074 0.125-0.086 0.261-0.035 0.414 0.05 0.148 0.136 0.246 0.261 0.297 0.324 0.101 0.551-0.012 0.676-0.336 0.121-0.348 0.047-0.586-0.226-0.711z" inkscape:connector-curvature="0"/>
      <path id="path88" style="fill-rule:evenodd;fill:#5e943b" d="m13.59 27.344c-0.274-0.153-0.485-0.063-0.637 0.261-0.148 0.274-0.062 0.489 0.262 0.637 0.125 0.051 0.25 0.051 0.375 0s0.211-0.137 0.262-0.262c0.05-0.125 0.05-0.25 0-0.375-0.051-0.148-0.137-0.238-0.262-0.261z" inkscape:connector-curvature="0"/>
      <path id="path90" style="fill-rule:evenodd;fill:#5e943b" d="m13.59 25.922c-0.25-0.125-0.449-0.051-0.598 0.223-0.125 0.273-0.051 0.488 0.223 0.636 0.301 0.125 0.512 0.039 0.637-0.261 0.05-0.125 0.05-0.25 0-0.375-0.051-0.125-0.137-0.2-0.262-0.223z" inkscape:connector-curvature="0"/>
      <path id="path92" style="fill-rule:evenodd;fill:#5e943b" d="m12.469 26.895c-0.203-0.075-0.352-0.028-0.449 0.148-0.079 0.199-0.028 0.352 0.148 0.449 0.199 0.074 0.348 0.028 0.449-0.148 0.074-0.199 0.024-0.352-0.148-0.449z" inkscape:connector-curvature="0"/>
      <path id="path94" style="fill-rule:evenodd;fill:#5e943b" d="m11.457 26.594c-0.352-0.125-0.598-0.024-0.75 0.301-0.148 0.375-0.051 0.625 0.301 0.746 0.324 0.152 0.574 0.05 0.75-0.297 0.121-0.352 0.023-0.602-0.301-0.75z" inkscape:connector-curvature="0"/>
      <path id="path96" style="fill-rule:evenodd;fill:#5e943b" d="m11.941 25.473c-0.273-0.102-0.461-0.016-0.558 0.261-0.125 0.25-0.051 0.45 0.222 0.598 0.274 0.102 0.477 0.012 0.602-0.262 0.098-0.273 0.012-0.472-0.266-0.597z" inkscape:connector-curvature="0"/>
      <path id="path98" style="fill-rule:evenodd;fill:#5e943b" d="m12.656 24.945c-0.203-0.097-0.351-0.035-0.453 0.188-0.098 0.226-0.035 0.39 0.188 0.488 0.226 0.074 0.375 0.012 0.449-0.187 0.125-0.223 0.062-0.387-0.184-0.489z" inkscape:connector-curvature="0"/>
      <path id="path100" style="fill-rule:evenodd;fill:#5e943b" d="m10.332 24.945c-0.199-0.097-0.398-0.109-0.598-0.035-0.199 0.098-0.347 0.25-0.449 0.449-0.101 0.2-0.101 0.399 0 0.598 0.074 0.203 0.211 0.34 0.41 0.414 0.203 0.098 0.403 0.098 0.602 0 0.199-0.074 0.336-0.215 0.41-0.414 0.102-0.172 0.113-0.371 0.039-0.598-0.074-0.199-0.211-0.336-0.414-0.414z" inkscape:connector-curvature="0"/>
      <path id="path102" style="fill-rule:evenodd;fill:#5e943b" d="m10.859 24.086c-0.277-0.125-0.476-0.035-0.601 0.262-0.051 0.101-0.051 0.214 0 0.34 0.051 0.121 0.125 0.21 0.222 0.257 0.301 0.125 0.512 0.051 0.637-0.222 0.129-0.301 0.039-0.512-0.258-0.637z" inkscape:connector-curvature="0"/>
      <path id="path104" style="fill-rule:evenodd;fill:#5e943b" d="m9.211 22.887c-0.176-0.075-0.352-0.075-0.523 0-0.2 0.078-0.34 0.203-0.415 0.375-0.171 0.426-0.046 0.75 0.375 0.972 0.176 0.078 0.364 0.078 0.563 0 0.176-0.074 0.301-0.211 0.375-0.41 0.074-0.176 0.074-0.351 0-0.523-0.074-0.199-0.199-0.336-0.375-0.414z" inkscape:connector-curvature="0"/>
      <path id="path106" style="fill-rule:evenodd;fill:#5e943b" d="m8.613 24.535c-0.301-0.125-0.523-0.035-0.675 0.262-0.098 0.324-0.012 0.551 0.261 0.676 0.301 0.125 0.524 0.035 0.676-0.266 0.125-0.297 0.035-0.519-0.262-0.672z" inkscape:connector-curvature="0"/>
      <path id="path108" style="fill-rule:evenodd;fill:#5e943b" d="m10.184 22.363c-0.223-0.097-0.387-0.023-0.485 0.227-0.101 0.222-0.039 0.387 0.188 0.484 0.222 0.102 0.398 0.039 0.523-0.187 0.098-0.223 0.024-0.399-0.226-0.524z" inkscape:connector-curvature="0"/>
      <path id="path110" style="fill-rule:evenodd;fill:#5e943b" d="m9.699 24.199c-0.027-0.027-0.078-0.027-0.152 0-0.051 0.024-0.086 0.063-0.113 0.113-0.047 0.098-0.012 0.188 0.113 0.262 0.125 0.051 0.215 0.012 0.262-0.113 0.05-0.125 0.011-0.211-0.11-0.262z" inkscape:connector-curvature="0"/>
      <path id="path112" style="fill-rule:evenodd;fill:#518033" d="m9.211 21.277c-0.324-0.172-0.563-0.086-0.711 0.262-0.074 0.125-0.09 0.266-0.039 0.414 0.074 0.149 0.176 0.25 0.301 0.301 0.125 0.047 0.261 0.047 0.41 0 0.152-0.051 0.25-0.152 0.301-0.301 0.125-0.324 0.039-0.551-0.262-0.676z" inkscape:connector-curvature="0"/>
      <path id="path114" style="fill-rule:evenodd;fill:#518033" d="m7.453 23.113c-0.277-0.125-0.488-0.039-0.637 0.262-0.125 0.324-0.039 0.551 0.262 0.672 0.274 0.125 0.484 0.039 0.637-0.262 0.125-0.324 0.035-0.547-0.262-0.672z" inkscape:connector-curvature="0"/>
      <path id="path116" style="fill-rule:evenodd;fill:#518033" d="m6.141 21.914c-0.348-0.125-0.61-0.023-0.786 0.301-0.125 0.351-0.023 0.613 0.301 0.785 0.348 0.125 0.61 0.012 0.785-0.336 0.149-0.375 0.051-0.625-0.3-0.75z" inkscape:connector-curvature="0"/>
      <path id="path118" style="fill-rule:evenodd;fill:#518033" d="m7.414 21.539c-0.375-0.172-0.648-0.074-0.824 0.301-0.051 0.152-0.051 0.301 0 0.449 0.074 0.176 0.187 0.289 0.336 0.34 0.351 0.172 0.613 0.074 0.785-0.301 0.051-0.152 0.051-0.301 0-0.449-0.047-0.176-0.149-0.289-0.297-0.34z" inkscape:connector-curvature="0"/>
      <path id="path120" style="fill-rule:evenodd;fill:#5e943b" d="m8.238 22.363c-0.226-0.097-0.363-0.035-0.414 0.188-0.097 0.176-0.051 0.312 0.153 0.41 0.199 0.051 0.335-0.012 0.41-0.188 0.101-0.171 0.051-0.308-0.149-0.41z" inkscape:connector-curvature="0"/>
      <path id="path122" style="fill-rule:evenodd;fill:#518033" d="m7.898 20.156c-0.398-0.125-0.671-0.011-0.82 0.336-0.051 0.149-0.051 0.301 0 0.449 0.074 0.176 0.188 0.289 0.336 0.336 0.348 0.176 0.609 0.063 0.785-0.336 0.176-0.347 0.074-0.609-0.301-0.785z" inkscape:connector-curvature="0"/>
      <path id="path124" style="fill-rule:evenodd;fill:#518033" d="m11.195 20.941c-0.324-0.125-0.55-0.035-0.675 0.262-0.075 0.301 0.015 0.512 0.261 0.637 0.328 0.125 0.551 0.039 0.676-0.262 0.148-0.301 0.063-0.512-0.262-0.637z" inkscape:connector-curvature="0"/>
      <path id="path126" style="fill-rule:evenodd;fill:#518033" d="m12.691 21.277c-0.273-0.097-0.472-0.011-0.597 0.262-0.102 0.301-0.016 0.488 0.261 0.563 0.098 0.05 0.211 0.05 0.336 0 0.125-0.024 0.2-0.098 0.223-0.223 0.125-0.25 0.051-0.449-0.223-0.602z" inkscape:connector-curvature="0"/>
      <path id="path128" style="fill-rule:evenodd;fill:#518033" d="m16.473 21.617c-0.25-0.078-0.438 0-0.563 0.223-0.101 0.25-0.023 0.426 0.223 0.523 0.277 0.102 0.453 0.028 0.527-0.222 0.125-0.2 0.063-0.375-0.187-0.524z" inkscape:connector-curvature="0"/>
      <path id="path130" style="fill-rule:evenodd;fill:#5e943b" d="m17.223 23.789c-0.203-0.101-0.352-0.039-0.453 0.184-0.075 0.226-0.012 0.375 0.187 0.453 0.227 0.074 0.375 0.012 0.449-0.188 0.125-0.203 0.063-0.351-0.183-0.449z" inkscape:connector-curvature="0"/>
      <path id="path132" style="fill-rule:evenodd;fill:#5e943b" d="m18.27 24.461c-0.149-0.051-0.25-0.016-0.301 0.113-0.051 0.149-0.012 0.25 0.113 0.297 0.148 0.051 0.25 0.016 0.301-0.109 0.047-0.153 0.012-0.25-0.113-0.301z" inkscape:connector-curvature="0"/>
      <path id="path134" style="fill-rule:evenodd;fill:#5e943b" d="m18.195 22.328c-0.199-0.074-0.351-0.027-0.449 0.149-0.074 0.222-0.012 0.375 0.188 0.449 0.199 0.101 0.336 0.039 0.41-0.188 0.101-0.176 0.051-0.312-0.149-0.41z" inkscape:connector-curvature="0"/>
      <path id="path136" style="fill-rule:evenodd;fill:#5e943b" d="m18.008 25.883c-0.25-0.125-0.438-0.051-0.563 0.222-0.074 0.25 0 0.438 0.227 0.563 0.297 0.102 0.484 0.027 0.558-0.223 0.153-0.277 0.075-0.465-0.222-0.562z" inkscape:connector-curvature="0"/>
      <path id="path138" style="fill-rule:evenodd;fill:#5e943b" d="m17.633 26.82c-0.149-0.05-0.25 0-0.301 0.149-0.074 0.101-0.035 0.199 0.113 0.301 0.102 0.023 0.2-0.028 0.301-0.153 0.051-0.125 0.012-0.222-0.113-0.297z" inkscape:connector-curvature="0"/>
      <path id="path140" style="fill-rule:evenodd;fill:#5e943b" d="m16.773 26.07c-0.277-0.101-0.476-0.011-0.601 0.262-0.098 0.301-0.012 0.488 0.262 0.563 0.101 0.05 0.214 0.05 0.339 0 0.125-0.024 0.2-0.102 0.223-0.227 0.125-0.25 0.051-0.449-0.223-0.598z" inkscape:connector-curvature="0"/>
      <path id="path142" style="fill-rule:evenodd;fill:#5e943b" d="m15.688 26.371c-0.153-0.101-0.25-0.062-0.301 0.109-0.075 0.125-0.039 0.239 0.113 0.34 0.148 0.047 0.262 0 0.336-0.152 0.051-0.148 0-0.25-0.148-0.297z" inkscape:connector-curvature="0"/>
      <path id="path144" style="fill-rule:evenodd;fill:#518033" d="m19.02 25.621c-0.227-0.074-0.375-0.012-0.454 0.188-0.125 0.222-0.062 0.386 0.188 0.484 0.203 0.102 0.351 0.039 0.449-0.188 0.102-0.246 0.039-0.41-0.183-0.484z" inkscape:connector-curvature="0"/>
      <path id="path146" style="fill-rule:evenodd;fill:#518033" d="m20.027 24.234c-0.371-0.125-0.636-0.011-0.785 0.34-0.176 0.348-0.074 0.61 0.301 0.785 0.375 0.176 0.648 0.063 0.824-0.336 0.125-0.375 0.012-0.636-0.34-0.789z" inkscape:connector-curvature="0"/>
      <path id="path148" style="fill-rule:evenodd;fill:#518033" d="m20.812 23c-0.32-0.125-0.546-0.035-0.671 0.262-0.149 0.273-0.063 0.488 0.261 0.636 0.301 0.125 0.512 0.04 0.637-0.261s0.051-0.512-0.227-0.637z" inkscape:connector-curvature="0"/>
      <path id="path150" style="fill-rule:evenodd;fill:#5e943b" d="m19.129 23.152c-0.223-0.078-0.41 0-0.563 0.223-0.097 0.301-0.023 0.488 0.227 0.563 0.102 0.05 0.211 0.05 0.336 0 0.125-0.028 0.199-0.102 0.226-0.227 0.149-0.223 0.075-0.41-0.226-0.559z" inkscape:connector-curvature="0"/>
      <path id="path152" style="fill-rule:evenodd;fill:#5e943b" d="m18.156 23.336c-0.199-0.074-0.347-0.024-0.449 0.152-0.074 0.2-0.023 0.348 0.152 0.45 0.2 0.074 0.348 0.023 0.45-0.149 0.074-0.203 0.023-0.351-0.153-0.453z" inkscape:connector-curvature="0"/>
      <path id="path154" style="fill-rule:evenodd;fill:#518033" d="m19.84 21.992c-0.324-0.125-0.547-0.039-0.672 0.262-0.051 0.125-0.051 0.262 0 0.41 0.051 0.125 0.137 0.211 0.262 0.262 0.324 0.125 0.55 0.039 0.675-0.262 0.122-0.324 0.036-0.551-0.265-0.672z" inkscape:connector-curvature="0"/>
      <path id="path156" style="fill-rule:evenodd;fill:#518033" d="m21.078 21.242c-0.176-0.074-0.351-0.074-0.523 0-0.176 0.074-0.301 0.199-0.375 0.375-0.176 0.399-0.063 0.711 0.336 0.934 0.175 0.074 0.363 0.074 0.562 0 0.172-0.074 0.297-0.199 0.375-0.375 0.074-0.199 0.074-0.383 0-0.559-0.078-0.176-0.203-0.301-0.375-0.375z" inkscape:connector-curvature="0"/>
      <path id="path158" style="fill-rule:evenodd;fill:#518033" d="m19.73 20.68c-0.226-0.125-0.386-0.063-0.488 0.187-0.125 0.227-0.062 0.387 0.188 0.488 0.222 0.122 0.386 0.059 0.484-0.187 0.125-0.227 0.063-0.387-0.184-0.488z" inkscape:connector-curvature="0"/>
      <path id="path160" style="fill-rule:evenodd;fill:#518033" d="m18.605 21.242c-0.3-0.074-0.511 0.012-0.636 0.262-0.125 0.301-0.035 0.512 0.261 0.637 0.278 0.097 0.477 0.011 0.602-0.262 0.148-0.277 0.074-0.488-0.227-0.637z" inkscape:connector-curvature="0"/>
      <path id="path162" style="fill-rule:evenodd;fill:#518033" d="m17.332 21.691c-0.148-0.05-0.262 0-0.336 0.149-0.051 0.152 0 0.25 0.149 0.301 0.152 0.097 0.25 0.062 0.3-0.114 0.075-0.125 0.039-0.238-0.113-0.336z" inkscape:connector-curvature="0"/>
      <path id="path164" style="fill-rule:evenodd;fill:#5e943b" d="m16.809 22.812c-0.098-0.05-0.172-0.023-0.223 0.075-0.051 0.125-0.016 0.215 0.109 0.265 0.102 0.047 0.176 0.012 0.227-0.113 0.051-0.101 0.012-0.176-0.113-0.227z" inkscape:connector-curvature="0"/>
      <path id="path166" style="fill-rule:evenodd;fill:#5e943b" d="m14.711 25.211c-0.199-0.078-0.348-0.027-0.449 0.148-0.074 0.2-0.024 0.348 0.152 0.45 0.223 0.074 0.375 0.011 0.449-0.188 0.051-0.074 0.051-0.16 0-0.262-0.027-0.074-0.074-0.125-0.152-0.148z" inkscape:connector-curvature="0"/>
      <path id="path168" style="fill-rule:evenodd;fill:#5e943b" d="m15.875 25.211c-0.176-0.102-0.313-0.051-0.414 0.148-0.051 0.149 0 0.274 0.148 0.375 0.176 0.098 0.313 0.047 0.414-0.152 0.102-0.199 0.051-0.324-0.148-0.371z" inkscape:connector-curvature="0"/>
      <path id="path170" style="fill-rule:evenodd;fill:#5e943b" d="m12.129 23.938c-0.199-0.102-0.348-0.04-0.449 0.187-0.075 0.223-0.012 0.375 0.187 0.449 0.227 0.074 0.375 0.012 0.449-0.187 0.075-0.227 0.016-0.375-0.187-0.449z" inkscape:connector-curvature="0"/>
      <path id="path172" style="fill-rule:evenodd;fill:#5e943b" d="m11.68 24.762c-0.121-0.074-0.235-0.039-0.336 0.109-0.047 0.152 0 0.25 0.152 0.301 0.098 0.074 0.199 0.039 0.297-0.113 0.051-0.149 0.012-0.25-0.113-0.297z" inkscape:connector-curvature="0"/>
      <path id="path174" style="fill-rule:evenodd;fill:#5e943b" d="m11.344 23.227c-0.25-0.125-0.422-0.063-0.524 0.187-0.125 0.223-0.062 0.41 0.188 0.559 0.25 0.078 0.437 0 0.562-0.223 0.075-0.25 0-0.426-0.226-0.523z" inkscape:connector-curvature="0"/>
      <path id="path176" style="fill-rule:evenodd;fill:#5e943b" d="m10.258 23.336c-0.199-0.098-0.324-0.047-0.371 0.152-0.078 0.149-0.028 0.274 0.148 0.375 0.149 0.098 0.274 0.047 0.375-0.152 0.047-0.176-0.004-0.301-0.152-0.375z" inkscape:connector-curvature="0"/>
      <path id="path178" style="fill-rule:evenodd;fill:#5e943b" d="m13.703 24.609c-0.273-0.097-0.476-0.011-0.601 0.262-0.149 0.277-0.075 0.465 0.226 0.563 0.125 0.05 0.25 0.05 0.375 0 0.125-0.051 0.199-0.125 0.223-0.223 0.125-0.25 0.051-0.449-0.223-0.602z" inkscape:connector-curvature="0"/>
      <path id="path180" style="fill-rule:evenodd;fill:#5e943b" d="m12.918 24.234c-0.102-0.046-0.176-0.023-0.227 0.078-0.05 0.098-0.011 0.172 0.114 0.223 0.074 0.051 0.136 0.012 0.187-0.113 0.047-0.074 0.024-0.137-0.074-0.188z" inkscape:connector-curvature="0"/>
      <path id="path182" style="fill-rule:evenodd;fill:#5e943b" d="m12.73 22.664c-0.375-0.125-0.625-0.012-0.75 0.336-0.074 0.152-0.074 0.301 0 0.449 0.051 0.153 0.153 0.25 0.301 0.301 0.149 0.074 0.297 0.074 0.449 0 0.149-0.051 0.25-0.148 0.301-0.301 0.172-0.347 0.071-0.609-0.301-0.785z" inkscape:connector-curvature="0"/>
      <path id="path184" style="fill-rule:evenodd;fill:#5e943b" d="m11.57 22.066c-0.3-0.078-0.511 0.012-0.636 0.262-0.051 0.098-0.051 0.211 0 0.336 0.046 0.125 0.125 0.211 0.222 0.262 0.301 0.125 0.512 0.051 0.637-0.227 0.125-0.297 0.051-0.508-0.223-0.633z" inkscape:connector-curvature="0"/>
      <path id="path186" style="fill-rule:evenodd;fill:#518033" d="m10.223 21.652c-0.125-0.05-0.215-0.011-0.266 0.114-0.098 0.148-0.062 0.25 0.113 0.3 0.102 0.075 0.2 0.036 0.301-0.113 0.051-0.125 0-0.226-0.148-0.301z" inkscape:connector-curvature="0"/>
      <path id="path188" style="fill-rule:evenodd;fill:#5e943b" d="m14.152 23.152c-0.351-0.175-0.613-0.078-0.785 0.297-0.176 0.375-0.078 0.649 0.297 0.824 0.375 0.125 0.648 0.012 0.824-0.335 0.051-0.149 0.051-0.301 0-0.45-0.05-0.176-0.16-0.289-0.336-0.336z" inkscape:connector-curvature="0"/>
      <path id="path190" style="fill-rule:evenodd;fill:#5e943b" d="m14.602 26.184c-0.153-0.051-0.25 0-0.301 0.148-0.098 0.148-0.063 0.25 0.113 0.301 0.125 0.074 0.238 0.035 0.336-0.113 0.051-0.2 0-0.313-0.148-0.336z" inkscape:connector-curvature="0"/>
      <path id="path192" style="fill-rule:evenodd;fill:#5e943b" d="m15.312 23.938c-0.273-0.126-0.488-0.051-0.636 0.222-0.125 0.278-0.051 0.488 0.222 0.637 0.301 0.125 0.512 0.039 0.637-0.262 0.051-0.125 0.051-0.25 0-0.375-0.023-0.125-0.097-0.199-0.223-0.222z" inkscape:connector-curvature="0"/>
      <path id="path194" style="fill-rule:evenodd;fill:#5e943b" d="m16.062 23.637c-0.203-0.051-0.339 0.011-0.414 0.187-0.05 0.176 0 0.301 0.153 0.375 0.172 0.098 0.308 0.051 0.41-0.152 0.051-0.199 0-0.336-0.149-0.41z" inkscape:connector-curvature="0"/>
      <path id="path196" style="fill-rule:evenodd;fill:#5e943b" d="m16.66 24.574c-0.226-0.125-0.387-0.062-0.488 0.188-0.074 0.222-0.012 0.371 0.187 0.449 0.25 0.098 0.414 0.035 0.489-0.188 0.074-0.226 0.011-0.375-0.188-0.449z" inkscape:connector-curvature="0"/>
      <path id="path198" style="fill-rule:evenodd;fill:#5e943b" d="m17.184 25.359c-0.149-0.05-0.274 0-0.375 0.149-0.051 0.152 0 0.273 0.148 0.375 0.176 0.051 0.301 0 0.375-0.149 0.051-0.175 0-0.3-0.148-0.375z" inkscape:connector-curvature="0"/>
      <path id="path200" style="fill-rule:evenodd;fill:#5e943b" d="m17.781 24.91c-0.172-0.101-0.312-0.051-0.41 0.149-0.101 0.175-0.051 0.312 0.149 0.414 0.199 0.074 0.335 0.023 0.414-0.153 0.097-0.222 0.046-0.359-0.153-0.41z" inkscape:connector-curvature="0"/>
      <path id="path202" style="fill-rule:evenodd;fill:#5e943b" d="m15.535 22.215c-0.347-0.176-0.609-0.074-0.785 0.297-0.125 0.351-0.023 0.613 0.301 0.789 0.347 0.125 0.609 0.011 0.785-0.336 0.148-0.375 0.051-0.625-0.301-0.75z" inkscape:connector-curvature="0"/>
      <path id="path204" style="fill-rule:evenodd;fill:#518033" d="m14.34 22.102c-0.203-0.125-0.375-0.063-0.528 0.187-0.097 0.25-0.023 0.41 0.227 0.488 0.223 0.125 0.387 0.063 0.488-0.187 0.098-0.25 0.035-0.414-0.187-0.488z" inkscape:connector-curvature="0"/>
      <path id="path206" style="fill-rule:evenodd;fill:#518033" d="m13.367 22.176c-0.203-0.074-0.351-0.024-0.453 0.152-0.074 0.223-0.012 0.371 0.188 0.449 0.203 0.098 0.351 0.051 0.453-0.152 0.074-0.223 0.011-0.371-0.188-0.449z" inkscape:connector-curvature="0"/>
      <path id="path208" style="fill-rule:evenodd;fill:#518033" d="m14.711 21.617c-0.074-0.051-0.137-0.027-0.184 0.074-0.05 0.102-0.027 0.176 0.075 0.223 0.097 0.051 0.171 0.027 0.222-0.074 0-0.125-0.035-0.199-0.113-0.223z" inkscape:connector-curvature="0"/>
      <path id="path210" style="fill-rule:evenodd;fill:#518033" d="m17.406 20.457c-0.246-0.102-0.41-0.027-0.484 0.223-0.102 0.226-0.039 0.386 0.187 0.488 0.223 0.098 0.399 0.035 0.524-0.188 0.101-0.277 0.023-0.449-0.227-0.523z" inkscape:connector-curvature="0"/>
      <path id="path212" style="fill-rule:evenodd;fill:#518033" d="m18.27 19.93c-0.227-0.098-0.415-0.024-0.563 0.226-0.102 0.301-0.023 0.485 0.227 0.563 0.097 0.047 0.211 0.047 0.336 0 0.125-0.028 0.199-0.102 0.222-0.227 0.153-0.222 0.074-0.41-0.222-0.562z" inkscape:connector-curvature="0"/>
      <path id="path214" style="fill-rule:evenodd;fill:#518033" d="m19.055 19.297c-0.274-0.152-0.489-0.063-0.637 0.262-0.125 0.324-0.039 0.546 0.262 0.671 0.3 0.075 0.511-0.011 0.636-0.261 0.125-0.324 0.039-0.547-0.261-0.672z" inkscape:connector-curvature="0"/>
      <path id="path216" style="fill-rule:evenodd;fill:#518033" d="m19.992 18.844c-0.273-0.098-0.449-0.024-0.523 0.226-0.102 0.227-0.039 0.387 0.187 0.489 0.274 0.074 0.449 0.011 0.524-0.188 0.097-0.277 0.035-0.449-0.188-0.527z" inkscape:connector-curvature="0"/>
      <path id="path218" style="fill-rule:evenodd;fill:#518033" d="m20.629 20.008c-0.277-0.102-0.477-0.016-0.602 0.262-0.05 0.097-0.05 0.21 0 0.335 0.028 0.098 0.102 0.172 0.227 0.223 0.25 0.125 0.449 0.051 0.598-0.223 0.125-0.25 0.05-0.449-0.223-0.597z" inkscape:connector-curvature="0"/>
      <path id="path220" style="fill-rule:evenodd;fill:#518033" d="m21.152 24.387c-0.152-0.075-0.277-0.028-0.375 0.148-0.074 0.153-0.023 0.274 0.149 0.375 0.152 0.074 0.277 0.024 0.375-0.148 0.101-0.203 0.051-0.324-0.149-0.375z" inkscape:connector-curvature="0"/>
      <path id="path222" style="fill-rule:evenodd;fill:#518033" d="m20.738 25.133c-0.199-0.098-0.324-0.047-0.371 0.152-0.074 0.149-0.027 0.274 0.149 0.375 0.148 0.098 0.273 0.051 0.375-0.152 0.097-0.199 0.047-0.324-0.153-0.375z" inkscape:connector-curvature="0"/>
      <path id="path224" style="fill-rule:evenodd;fill:#518033" d="m19.805 25.77c-0.176-0.098-0.313-0.047-0.414 0.152-0.098 0.172-0.047 0.312 0.152 0.41 0.176 0.102 0.312 0.051 0.41-0.148 0.102-0.227 0.051-0.364-0.148-0.414z" inkscape:connector-curvature="0"/>
      <path id="path226" style="fill-rule:evenodd;fill:#518033" d="m18.906 26.594c-0.152-0.051-0.25-0.012-0.301 0.113-0.05 0.148-0.011 0.25 0.114 0.297 0.148 0.051 0.25 0.016 0.301-0.109 0.046-0.153 0.011-0.25-0.114-0.301z" inkscape:connector-curvature="0"/>
      <path id="path228" style="fill-rule:evenodd;fill:#518033" d="m16.883 27.379c-0.172-0.047-0.285 0-0.336 0.152-0.074 0.125-0.039 0.235 0.113 0.336 0.199 0.051 0.313 0 0.336-0.148 0.051-0.153 0.012-0.262-0.113-0.34z" inkscape:connector-curvature="0"/>
      <path id="path230" style="fill-rule:evenodd;fill:#5e943b" d="m10.258 26.668c-0.125-0.051-0.211-0.012-0.262 0.113-0.074 0.102-0.051 0.188 0.074 0.262 0.125 0.051 0.215 0.012 0.262-0.113 0.102-0.098 0.074-0.188-0.074-0.262z" inkscape:connector-curvature="0"/>
      <path id="path232" style="fill-rule:evenodd;fill:#476e2d" d="m11.906 21.055c0.098 0.222 0.239 0.375 0.41 0.449 0.176 0.101 0.375 0.113 0.602 0.035 0.199-0.074 0.348-0.211 0.449-0.41v-0.074l0.11 0.074c0.425 0.176 0.789 0.074 1.085-0.301 0.153 0.027 0.301 0.027 0.45 0 0.226 0.125 0.449 0.164 0.676 0.113 0.25-0.023 0.46-0.125 0.636-0.3 0.121-0.125 0.199-0.25 0.223-0.375 0.5 0.175 0.937 0.078 1.312-0.297 0.246-0.25 0.371-0.574 0.371-0.973l0.34-0.226c0.25-0.25 0.336-0.536 0.262-0.86l0.188-0.152c0.25-0.274 0.375-0.574 0.375-0.899 0-0.347-0.125-0.648-0.375-0.898l-0.079-0.035c0.352-0.473 0.313-0.926-0.109-1.348l-0.301-0.187c0.149-0.2 0.211-0.414 0.188-0.637 0-0.223-0.086-0.41-0.262-0.563-0.125-0.125-0.25-0.199-0.375-0.222 0.125-0.274 0.086-0.512-0.113-0.711-0.25-0.199-0.5-0.215-0.746-0.039-0.028-0.098-0.09-0.176-0.188-0.223h-0.078c0.176-0.426 0.039-0.75-0.41-0.973l-0.262-0.078c-0.051-0.25-0.187-0.437-0.414-0.558-0.223-0.078-0.422-0.078-0.598 0h-0.074c0.051-0.352-0.047-0.653-0.301-0.899-0.171-0.101-0.285-0.164-0.336-0.187 0.153-0.176 0.227-0.375 0.227-0.602-0.027-0.222-0.113-0.41-0.262-0.558-0.101-0.102-0.238-0.176-0.414-0.227 0-0.172-0.074-0.336-0.222-0.484 0.097-0.325 0.035-0.575-0.188-0.75-0.152-0.176-0.324-0.239-0.527-0.188 0-0.222-0.074-0.41-0.223-0.558-0.273-0.227-0.574-0.278-0.898-0.153l-0.114-0.148c-0.175-0.176-0.386-0.262-0.636-0.262-0.223 0-0.434 0.074-0.637 0.223-0.348-0.199-0.672-0.149-0.973 0.152-0.148 0.149-0.222 0.336-0.222 0.559-0.477-0.2-0.899-0.114-1.274 0.261l-0.148 0.227c-0.477-0.152-0.887-0.051-1.239 0.301-0.324 0.32-0.421 0.683-0.296 1.082-0.25 0-0.45 0.078-0.602 0.226-0.172 0.172-0.234 0.399-0.187 0.672-0.098 0.051-0.161 0.125-0.188 0.227-0.074 0.097-0.086 0.222-0.035 0.375-0.324 0.047-0.563 0.222-0.711 0.523-0.102 0.25-0.086 0.512 0.039 0.785-0.203 0.075-0.34 0.211-0.414 0.411-0.148 0.324-0.098 0.613 0.152 0.863-0.101 0.074-0.175 0.172-0.226 0.297-0.051 0.074-0.074 0.187-0.074 0.34-0.301 0.445-0.262 0.859 0.113 1.234 0.023 0.023 0.16 0.098 0.41 0.223-0.125 0.25-0.137 0.5-0.035 0.75 0.074 0.273 0.246 0.472 0.523 0.597l0.449 0.074c-0.074 0.278-0.062 0.528 0.036 0.75 0.101 0.274 0.277 0.461 0.527 0.563h0.035c-0.098 0.25-0.098 0.5 0 0.75 0.102 0.25 0.274 0.434 0.524 0.559 0.027 0 0.164 0.039 0.414 0.113-0.075 0.273-0.063 0.523 0.035 0.75 0.125 0.273 0.312 0.461 0.562 0.562 0.325 0.172 0.66 0.16 1.012-0.039 0.148 0.176 0.297 0.301 0.449 0.375l0.11 0.039c0.101 0.325 0.277 0.535 0.527 0.633 0.273 0.152 0.559 0.141 0.859-0.035 0.102 0.125 0.211 0.223 0.336 0.301 0.278 0.125 0.524 0.109 0.75-0.039z" inkscape:connector-curvature="0"/>
      <path id="path234" style="fill-rule:evenodd;fill:#5f963c" d="m12.879 20.082c-0.25-0.152-0.473-0.102-0.672 0.148-0.227 0.301-0.227 0.536 0 0.711 0.199 0.149 0.41 0.086 0.633-0.187 0.226-0.25 0.238-0.473 0.039-0.672z" inkscape:connector-curvature="0"/>
      <path id="path236" style="fill-rule:evenodd;fill:#5f963c" d="m11.793 19.594c-0.223-0.172-0.449-0.137-0.672 0.113-0.226 0.273-0.215 0.5 0.035 0.672 0.227 0.176 0.449 0.141 0.676-0.109 0.223-0.25 0.211-0.477-0.039-0.676z" inkscape:connector-curvature="0"/>
      <path id="path238" style="fill-rule:evenodd;fill:#5f963c" d="m10.52 19.559c-0.2-0.176-0.411-0.153-0.633 0.074-0.176 0.222-0.153 0.437 0.074 0.637 0.246 0.199 0.461 0.171 0.637-0.075 0.172-0.226 0.148-0.437-0.078-0.636z" inkscape:connector-curvature="0"/>
      <path id="path240" style="fill-rule:evenodd;fill:#5f963c" d="m10.895 18.324c-0.223-0.176-0.422-0.152-0.598 0.074-0.074 0.075-0.113 0.172-0.113 0.297s0.05 0.227 0.148 0.301c0.227 0.176 0.438 0.149 0.637-0.074 0.176-0.227 0.152-0.426-0.074-0.598z" inkscape:connector-curvature="0"/>
      <path id="path242" style="fill-rule:evenodd;fill:#5f963c" d="m9.621 18.883c-0.125-0.125-0.262-0.113-0.41 0.039-0.125 0.172-0.113 0.32 0.035 0.449 0.051 0.051 0.125 0.074 0.227 0.074 0.074-0.023 0.136-0.062 0.187-0.113 0.125-0.172 0.113-0.324-0.039-0.449z" inkscape:connector-curvature="0"/>
      <path id="path244" style="fill-rule:evenodd;fill:#5f963c" d="m8.836 18.395c-0.25-0.223-0.5-0.211-0.75 0.039-0.223 0.273-0.199 0.523 0.078 0.75 0.274 0.222 0.524 0.199 0.746-0.079 0.199-0.273 0.176-0.507-0.074-0.71z" inkscape:connector-curvature="0"/>
      <path id="path246" style="fill-rule:evenodd;fill:#5f963c" d="m9.547 17.535c-0.199-0.176-0.399-0.16-0.598 0.039-0.152 0.25-0.125 0.449 0.074 0.598 0.223 0.176 0.411 0.152 0.563-0.074 0.199-0.2 0.187-0.387-0.039-0.563z" inkscape:connector-curvature="0"/>
      <path id="path248" style="fill-rule:evenodd;fill:#5f963c" d="m10.297 17.234c-0.176-0.125-0.324-0.097-0.449 0.078-0.153 0.149-0.137 0.297 0.035 0.45 0.176 0.125 0.324 0.109 0.449-0.039 0.176-0.176 0.164-0.336-0.035-0.489z" inkscape:connector-curvature="0"/>
      <path id="path250" style="fill-rule:evenodd;fill:#5f963c" d="m8.238 16.637c-0.152-0.125-0.324-0.188-0.523-0.188-0.203 0.028-0.363 0.113-0.488 0.262-0.125 0.176-0.172 0.363-0.149 0.562 0 0.2 0.086 0.352 0.262 0.45 0.148 0.125 0.324 0.187 0.523 0.187 0.199-0.023 0.364-0.113 0.485-0.262 0.125-0.175 0.175-0.363 0.152-0.562-0.027-0.199-0.113-0.348-0.262-0.449z" inkscape:connector-curvature="0"/>
      <path id="path252" style="fill-rule:evenodd;fill:#5f963c" d="m8.949 16.039c-0.25-0.199-0.461-0.187-0.637 0.035-0.175 0.227-0.148 0.438 0.075 0.637 0.226 0.176 0.425 0.152 0.601-0.074 0.172-0.223 0.16-0.426-0.039-0.598z" inkscape:connector-curvature="0"/>
      <path id="path254" style="fill-rule:evenodd;fill:#5f963c" d="m7.789 14.543c-0.375-0.277-0.687-0.238-0.937 0.109-0.098 0.125-0.149 0.278-0.149 0.45 0.024 0.175 0.098 0.328 0.223 0.453 0.324 0.297 0.636 0.273 0.937-0.078 0.274-0.348 0.25-0.661-0.074-0.934z" inkscape:connector-curvature="0"/>
      <path id="path256" style="fill-rule:evenodd;fill:#548535" d="m6.816 15.852c-0.226-0.176-0.437-0.164-0.636 0.039-0.153 0.246-0.125 0.472 0.074 0.671 0.223 0.176 0.437 0.149 0.637-0.074 0.199-0.226 0.175-0.437-0.075-0.636z" inkscape:connector-curvature="0"/>
      <path id="path258" style="fill-rule:evenodd;fill:#5f963c" d="m8.762 14.355c-0.2-0.152-0.364-0.136-0.489 0.036-0.148 0.203-0.136 0.363 0.039 0.488 0.176 0.148 0.348 0.137 0.524-0.039 0.148-0.172 0.125-0.336-0.074-0.485z" inkscape:connector-curvature="0"/>
      <path id="path260" style="fill-rule:evenodd;fill:#5f963c" d="m7.898 15.812c-0.097-0.097-0.187-0.085-0.261 0.04-0.075 0.074-0.075 0.16 0 0.261 0.152 0.051 0.238 0.039 0.261-0.039 0.102-0.097 0.102-0.183 0-0.262z" inkscape:connector-curvature="0"/>
      <path id="path262" style="fill-rule:evenodd;fill:#5f963c" d="m8.164 13.117c-0.25-0.199-0.488-0.187-0.711 0.039-0.176 0.25-0.152 0.485 0.074 0.711 0.246 0.199 0.485 0.176 0.711-0.074 0.074-0.102 0.11-0.215 0.11-0.336-0.024-0.152-0.086-0.262-0.184-0.34z" inkscape:connector-curvature="0"/>
      <path id="path264" style="fill-rule:evenodd;fill:#548535" d="m6.18 14.316c-0.227-0.222-0.438-0.211-0.637 0.039s-0.176 0.461 0.074 0.637c0.199 0.199 0.414 0.184 0.637-0.039 0.176-0.25 0.148-0.461-0.074-0.637z" inkscape:connector-curvature="0"/>
      <path id="path266" style="fill-rule:evenodd;fill:#548535" d="m5.316 12.895c-0.296-0.227-0.558-0.2-0.785 0.074-0.226 0.273-0.199 0.523 0.074 0.75 0.301 0.222 0.563 0.199 0.786-0.074 0.226-0.278 0.203-0.528-0.075-0.75z" inkscape:connector-curvature="0"/>
      <path id="path268" style="fill-rule:evenodd;fill:#548535" d="m6.516 12.895c-0.102-0.125-0.239-0.176-0.411-0.153-0.152 0.028-0.277 0.102-0.375 0.227-0.226 0.273-0.199 0.523 0.075 0.75 0.125 0.097 0.261 0.148 0.414 0.148 0.148-0.023 0.273-0.097 0.371-0.222 0.226-0.278 0.199-0.528-0.074-0.75z" inkscape:connector-curvature="0"/>
      <path id="path270" style="fill-rule:evenodd;fill:#5f963c" d="m7.039 13.832c-0.125-0.125-0.262-0.113-0.41 0.035-0.125 0.125-0.113 0.262 0.035 0.41 0.125 0.125 0.262 0.114 0.414-0.035 0.125-0.125 0.113-0.262-0.039-0.41z" inkscape:connector-curvature="0"/>
      <path id="path272" style="fill-rule:evenodd;fill:#548535" d="m7.301 11.809c-0.297-0.223-0.563-0.2-0.785 0.074-0.102 0.101-0.149 0.238-0.149 0.414 0.024 0.148 0.098 0.273 0.223 0.371 0.25 0.227 0.512 0.203 0.785-0.074 0.227-0.297 0.199-0.559-0.074-0.785z" inkscape:connector-curvature="0"/>
      <path id="path274" style="fill-rule:evenodd;fill:#548535" d="m5.73 11.324c-0.3-0.226-0.562-0.203-0.785 0.074-0.101 0.125-0.14 0.262-0.113 0.411 0 0.152 0.063 0.277 0.188 0.375 0.25 0.222 0.511 0.199 0.785-0.075 0.222-0.3 0.199-0.562-0.075-0.785z" inkscape:connector-curvature="0"/>
      <path id="path276" style="fill-rule:evenodd;fill:#4d7830" d="m6.703 9.898c-0.148-0.125-0.324-0.187-0.523-0.187-0.203 0.027-0.364 0.125-0.489 0.301-0.125 0.152-0.171 0.324-0.148 0.523s0.109 0.363 0.262 0.488c0.148 0.125 0.324 0.176 0.523 0.149 0.199-0.024 0.363-0.113 0.484-0.262 0.126-0.148 0.176-0.324 0.153-0.523-0.024-0.199-0.113-0.364-0.262-0.489z" inkscape:connector-curvature="0"/>
      <path id="path278" style="fill-rule:evenodd;fill:#4d7830" d="m7.75 10.648c-0.25-0.199-0.461-0.187-0.637 0.04-0.222 0.222-0.211 0.433 0.039 0.636 0.098 0.098 0.211 0.137 0.336 0.11 0.125 0 0.223-0.051 0.301-0.149 0.199-0.25 0.188-0.461-0.039-0.637z" inkscape:connector-curvature="0"/>
      <path id="path280" style="fill-rule:evenodd;fill:#548535" d="m8.613 11.621c-0.277-0.223-0.523-0.199-0.75 0.074-0.226 0.278-0.199 0.524 0.075 0.75 0.273 0.223 0.523 0.2 0.75-0.074 0.25-0.301 0.222-0.551-0.075-0.75z" inkscape:connector-curvature="0"/>
      <path id="path282" style="fill-rule:evenodd;fill:#548535" d="m9.211 12.633c-0.199-0.153-0.387-0.125-0.563 0.074-0.175 0.227-0.148 0.414 0.075 0.563 0.203 0.199 0.386 0.187 0.562-0.04 0.176-0.222 0.149-0.421-0.074-0.597z" inkscape:connector-curvature="0"/>
      <path id="path284" style="fill-rule:evenodd;fill:#5f963c" d="m9.996 13.344c-0.223-0.227-0.437-0.211-0.637 0.035-0.171 0.25-0.148 0.465 0.075 0.641 0.203 0.199 0.414 0.183 0.636-0.04 0.176-0.25 0.153-0.46-0.074-0.636z" inkscape:connector-curvature="0"/>
      <path id="path286" style="fill-rule:evenodd;fill:#548535" d="m10.559 12.035c-0.2-0.176-0.414-0.152-0.637 0.074-0.176 0.223-0.149 0.438 0.074 0.637 0.227 0.176 0.438 0.149 0.637-0.078 0.176-0.223 0.148-0.434-0.074-0.633z" inkscape:connector-curvature="0"/>
      <path id="path288" style="fill-rule:evenodd;fill:#548535" d="m9.66 11.773c-0.199-0.152-0.363-0.14-0.488 0.036-0.172 0.175-0.16 0.336 0.039 0.488 0.176 0.172 0.336 0.16 0.488-0.039 0.149-0.199 0.137-0.363-0.039-0.485z" inkscape:connector-curvature="0"/>
      <path id="path290" style="fill-rule:evenodd;fill:#548535" d="m9.062 10.688c-0.175-0.153-0.351-0.141-0.527 0.035-0.125 0.175-0.097 0.351 0.078 0.523 0.172 0.125 0.336 0.102 0.485-0.074 0.148-0.199 0.136-0.363-0.036-0.484z" inkscape:connector-curvature="0"/>
      <path id="path292" style="fill-rule:evenodd;fill:#548535" d="m9.996 10.574c-0.199-0.148-0.363-0.136-0.484 0.035-0.153 0.203-0.141 0.364 0.035 0.489 0.176 0.175 0.34 0.164 0.488-0.039 0.172-0.172 0.16-0.336-0.039-0.485z" inkscape:connector-curvature="0"/>
      <path id="path294" style="fill-rule:evenodd;fill:#548535" d="m10.672 10.797c-0.125-0.125-0.266-0.109-0.414 0.039-0.074 0.176-0.051 0.312 0.074 0.41 0.152 0.152 0.277 0.141 0.375-0.035 0.152-0.152 0.137-0.289-0.035-0.414z" inkscape:connector-curvature="0"/>
      <path id="path296" style="fill-rule:evenodd;fill:#4d7830" d="m8.949 9.711c-0.199-0.149-0.363-0.137-0.488 0.039-0.149 0.199-0.137 0.359 0.039 0.484 0.172 0.176 0.336 0.164 0.484-0.035 0.176-0.176 0.164-0.336-0.035-0.488z" inkscape:connector-curvature="0"/>
      <path id="path298" style="fill-rule:evenodd;fill:#4d7830" d="m8.164 9.34c-0.226-0.199-0.437-0.176-0.637 0.074-0.199 0.199-0.187 0.422 0.035 0.676 0.278 0.172 0.5 0.148 0.676-0.078 0.223-0.223 0.2-0.45-0.074-0.672z" inkscape:connector-curvature="0"/>
      <path id="path300" style="fill-rule:evenodd;fill:#4d7830" d="m7.227 8.516c-0.223-0.176-0.438-0.164-0.637 0.035-0.176 0.226-0.149 0.437 0.074 0.637 0.227 0.175 0.426 0.152 0.602-0.075 0.172-0.222 0.16-0.425-0.039-0.597z" inkscape:connector-curvature="0"/>
      <path id="path302" style="fill-rule:evenodd;fill:#4d7830" d="m7.824 7.766c-0.172-0.125-0.324-0.098-0.449 0.074-0.148 0.152-0.137 0.301 0.039 0.449 0.176 0.125 0.324 0.113 0.449-0.035 0.125-0.176 0.114-0.34-0.039-0.488z" inkscape:connector-curvature="0"/>
      <path id="path304" style="fill-rule:evenodd;fill:#4d7830" d="m8.5 8.176c-0.125-0.149-0.273-0.137-0.449 0.039-0.125 0.176-0.113 0.336 0.035 0.484 0.176 0.125 0.34 0.113 0.488-0.035 0.149-0.176 0.125-0.336-0.074-0.488z" inkscape:connector-curvature="0"/>
      <path id="path306" style="fill-rule:evenodd;fill:#4d7830" d="m9.398 8.59c-0.074-0.102-0.164-0.102-0.261 0-0.125 0.125-0.114 0.211 0.035 0.262 0.101 0.101 0.176 0.101 0.226 0 0.125-0.125 0.125-0.211 0-0.262z" inkscape:connector-curvature="0"/>
      <path id="path308" style="fill-rule:evenodd;fill:#4d7830" d="m8.836 6.68c-0.227-0.2-0.438-0.176-0.637 0.074s-0.172 0.465 0.074 0.637c0.2 0.175 0.415 0.152 0.637-0.075 0.199-0.222 0.176-0.437-0.074-0.636z" inkscape:connector-curvature="0"/>
      <path id="path310" style="fill-rule:evenodd;fill:#4d7830" d="m9.66 7.203c-0.226-0.172-0.426-0.148-0.598 0.078-0.175 0.223-0.164 0.422 0.036 0.598 0.226 0.176 0.437 0.148 0.636-0.074 0.176-0.227 0.149-0.426-0.074-0.602z" inkscape:connector-curvature="0"/>
      <path id="path312" style="fill-rule:evenodd;fill:#4d7830" d="m8.949 7.84c-0.101-0.047-0.176-0.035-0.226 0.039-0.047 0.051-0.047 0.125 0 0.223 0.101 0.05 0.187 0.039 0.265-0.036 0.047-0.074 0.035-0.152-0.039-0.226z" inkscape:connector-curvature="0"/>
      <path id="path314" style="fill-rule:evenodd;fill:#4d7830" d="m8.012 7.277c-0.024-0.023-0.086-0.011-0.188 0.039-0.023 0.024-0.012 0.086 0.039 0.188 0.024 0.023 0.086 0.012 0.188-0.039 0.051-0.047 0.035-0.11-0.039-0.188z" inkscape:connector-curvature="0"/>
      <path id="path316" style="fill-rule:evenodd;fill:#4d7830" d="m8.91 8.965c-0.125-0.125-0.25-0.113-0.375 0.035-0.097 0.125-0.086 0.25 0.039 0.375 0.149 0.102 0.274 0.086 0.375-0.035 0.125-0.176 0.113-0.301-0.039-0.375z" inkscape:connector-curvature="0"/>
      <path id="path318" style="fill-rule:evenodd;fill:#4d7830" d="m9.848 9.113c-0.2-0.175-0.399-0.16-0.602 0.039-0.172 0.223-0.148 0.422 0.078 0.598 0.199 0.176 0.387 0.148 0.563-0.074 0.172-0.176 0.16-0.364-0.039-0.563z" inkscape:connector-curvature="0"/>
      <path id="path320" style="fill-rule:evenodd;fill:#548535" d="m10.559 9.75c-0.153-0.152-0.301-0.125-0.45 0.074-0.125 0.125-0.113 0.274 0.036 0.449 0.175 0.125 0.335 0.114 0.488-0.035 0.148-0.176 0.125-0.34-0.074-0.488z" inkscape:connector-curvature="0"/>
      <path id="path322" style="fill-rule:evenodd;fill:#4d7830" d="m10.633 8.141c-0.223-0.176-0.426-0.149-0.598 0.074-0.176 0.176-0.148 0.363 0.074 0.562 0.176 0.176 0.364 0.161 0.563-0.039 0.172-0.199 0.16-0.398-0.039-0.597z" inkscape:connector-curvature="0"/>
      <path id="path324" style="fill-rule:evenodd;fill:#5f963c" d="m11.23 14.02c-0.199-0.176-0.386-0.153-0.558 0.074-0.176 0.172-0.164 0.359 0.035 0.558 0.199 0.176 0.402 0.164 0.602-0.035 0.171-0.226 0.148-0.426-0.079-0.597z" inkscape:connector-curvature="0"/>
      <path id="path326" style="fill-rule:evenodd;fill:#548535" d="m11.758 12.742c-0.227-0.199-0.438-0.172-0.637 0.078s-0.176 0.461 0.074 0.637c0.2 0.172 0.41 0.148 0.637-0.078 0.199-0.223 0.172-0.434-0.074-0.637z" inkscape:connector-curvature="0"/>
      <path id="path328" style="fill-rule:evenodd;fill:#548535" d="m13.066 13.68c-0.101-0.075-0.226-0.063-0.375 0.039-0.097 0.121-0.086 0.246 0.039 0.371 0.149 0.101 0.262 0.09 0.336-0.035 0.102-0.098 0.102-0.223 0-0.375z" inkscape:connector-curvature="0"/>
      <path id="path330" style="fill-rule:evenodd;fill:#548535" d="m13.891 13.117c-0.176-0.125-0.325-0.109-0.45 0.039-0.125 0.125-0.113 0.262 0.036 0.41 0.175 0.125 0.324 0.114 0.449-0.035 0.051-0.051 0.078-0.125 0.078-0.226-0.027-0.075-0.066-0.137-0.113-0.188z" inkscape:connector-curvature="0"/>
      <path id="path332" style="fill-rule:evenodd;fill:#548535" d="m14.078 12.184c-0.125-0.102-0.25-0.086-0.375 0.035-0.074 0.125-0.062 0.238 0.035 0.34 0.102 0.097 0.227 0.097 0.375 0 0.102-0.125 0.09-0.25-0.035-0.375z" inkscape:connector-curvature="0"/>
      <path id="path334" style="fill-rule:evenodd;fill:#548535" d="m14.562 11.957c-0.148-0.098-0.261-0.086-0.335 0.039-0.098 0.149-0.086 0.262 0.039 0.336 0.125 0.125 0.234 0.113 0.336-0.035 0.125-0.125 0.109-0.238-0.04-0.34z" inkscape:connector-curvature="0"/>
      <path id="path336" style="fill-rule:evenodd;fill:#548535" d="m14.789 12.707c-0.152-0.125-0.301-0.113-0.449 0.039-0.125 0.149-0.113 0.297 0.035 0.449 0.152 0.125 0.301 0.114 0.449-0.039 0.125-0.148 0.114-0.301-0.035-0.449z" inkscape:connector-curvature="0"/>
      <path id="path338" style="fill-rule:evenodd;fill:#4d7830" d="m15.5 11.957c-0.227-0.125-0.414-0.098-0.562 0.078-0.149 0.199-0.126 0.387 0.074 0.559 0.226 0.176 0.398 0.152 0.523-0.074 0.176-0.176 0.164-0.36-0.035-0.563z" inkscape:connector-curvature="0"/>
      <path id="path340" style="fill-rule:evenodd;fill:#4d7830" d="m16.359 11.996c-0.148-0.125-0.312-0.101-0.484 0.074-0.125 0.125-0.102 0.289 0.074 0.489 0.149 0.121 0.313 0.097 0.485-0.079 0.152-0.171 0.125-0.335-0.075-0.484z" inkscape:connector-curvature="0"/>
      <path id="path342" style="fill-rule:evenodd;fill:#548535" d="m14.75 13.793c-0.223-0.223-0.438-0.211-0.637 0.039-0.222 0.246-0.211 0.473 0.039 0.672 0.274 0.226 0.5 0.199 0.672-0.074 0.102-0.102 0.137-0.211 0.114-0.336 0-0.125-0.063-0.227-0.188-0.301z" inkscape:connector-curvature="0"/>
      <path id="path344" style="fill-rule:evenodd;fill:#548535" d="m15.723 13.23c-0.176-0.125-0.336-0.097-0.485 0.075-0.125 0.152-0.101 0.312 0.074 0.488 0.149 0.125 0.313 0.102 0.489-0.074 0.148-0.176 0.121-0.34-0.078-0.489z" inkscape:connector-curvature="0"/>
      <path id="path346" style="fill-rule:evenodd;fill:#5f963c" d="m14.449 15.289c-0.148-0.176-0.324-0.16-0.523 0.039-0.149 0.199-0.125 0.375 0.074 0.524 0.176 0.148 0.352 0.136 0.527-0.04 0.149-0.222 0.125-0.398-0.078-0.523z" inkscape:connector-curvature="0"/>
      <path id="path348" style="fill-rule:evenodd;fill:#5f963c" d="m13.555 14.391c-0.102-0.125-0.227-0.114-0.375 0.039-0.102 0.148-0.09 0.273 0.035 0.375 0.152 0.125 0.273 0.109 0.375-0.039 0.148-0.149 0.137-0.274-0.035-0.375z" inkscape:connector-curvature="0"/>
      <path id="path350" style="fill-rule:evenodd;fill:#5f963c" d="m14.602 17.387c-0.153-0.153-0.301-0.137-0.45 0.035-0.125 0.152-0.113 0.301 0.036 0.449 0.203 0.152 0.363 0.137 0.488-0.035 0.125-0.176 0.097-0.324-0.074-0.449z" inkscape:connector-curvature="0"/>
      <path id="path352" style="fill-rule:evenodd;fill:#5f963c" d="m15.348 18.246c-0.098-0.098-0.196-0.086-0.297 0.039-0.074 0.074-0.063 0.16 0.039 0.262 0.098 0.098 0.199 0.086 0.297-0.039 0.074-0.074 0.062-0.16-0.039-0.262z" inkscape:connector-curvature="0"/>
      <path id="path354" style="fill-rule:evenodd;fill:#5f963c" d="m15.801 16.336c-0.153-0.148-0.289-0.137-0.414 0.039s-0.114 0.324 0.039 0.449c0.199 0.102 0.347 0.074 0.449-0.074 0.098-0.148 0.074-0.289-0.074-0.414z" inkscape:connector-curvature="0"/>
      <path id="path356" style="fill-rule:evenodd;fill:#5f963c" d="m14.789 19.406c-0.227-0.125-0.414-0.097-0.562 0.074-0.176 0.176-0.153 0.364 0.074 0.563 0.226 0.176 0.398 0.152 0.523-0.074 0.176-0.176 0.164-0.364-0.035-0.563z" inkscape:connector-curvature="0"/>
      <path id="path358" style="fill-rule:evenodd;fill:#5f963c" d="m14.188 20.156c-0.075-0.101-0.172-0.086-0.297 0.039-0.079 0.075-0.063 0.172 0.035 0.297 0.101 0.074 0.199 0.063 0.301-0.035 0.101-0.102 0.085-0.199-0.039-0.301z" inkscape:connector-curvature="0"/>
      <path id="path360" style="fill-rule:evenodd;fill:#5f963c" d="m13.629 19.297c-0.176-0.176-0.363-0.164-0.563 0.035-0.175 0.199-0.164 0.398 0.036 0.598 0.226 0.175 0.425 0.152 0.601-0.075 0.172-0.175 0.149-0.359-0.074-0.558z" inkscape:connector-curvature="0"/>
      <path id="path362" style="fill-rule:evenodd;fill:#5f963c" d="m12.617 19.258c-0.101-0.102-0.199-0.086-0.301 0.039-0.097 0.098-0.086 0.199 0.039 0.297 0.098 0.101 0.2 0.086 0.301-0.035 0.098-0.102 0.086-0.2-0.039-0.301z" inkscape:connector-curvature="0"/>
      <path id="path364" style="fill-rule:evenodd;fill:#5f963c" d="m15.723 19.445c-0.176-0.125-0.325-0.101-0.45 0.075-0.148 0.148-0.136 0.3 0.039 0.449 0.149 0.101 0.313 0.086 0.485-0.035 0.152-0.176 0.125-0.34-0.074-0.489z" inkscape:connector-curvature="0"/>
      <path id="path366" style="fill-rule:evenodd;fill:#5f963c" d="m16.961 18.508c-0.277-0.223-0.539-0.199-0.789 0.078-0.098 0.098-0.137 0.234-0.11 0.41 0.024 0.149 0.086 0.274 0.188 0.375 0.297 0.223 0.559 0.199 0.785-0.074 0.246-0.301 0.223-0.563-0.074-0.789z" inkscape:connector-curvature="0"/>
      <path id="path368" style="fill-rule:evenodd;fill:#548535" d="m17.934 17.609c-0.2-0.199-0.414-0.187-0.637 0.039-0.176 0.223-0.152 0.438 0.074 0.633 0.102 0.102 0.211 0.141 0.336 0.114 0.125 0 0.227-0.051 0.301-0.149 0.172-0.273 0.148-0.484-0.074-0.637z" inkscape:connector-curvature="0"/>
      <path id="path370" style="fill-rule:evenodd;fill:#5f963c" d="m16.434 17.312c-0.2-0.152-0.387-0.124-0.559 0.075-0.176 0.222-0.152 0.398 0.074 0.523 0.176 0.176 0.36 0.164 0.559-0.039 0.152-0.199 0.125-0.387-0.074-0.559z" inkscape:connector-curvature="0"/>
      <path id="path372" style="fill-rule:evenodd;fill:#5f963c" d="m15.535 17.199c-0.148-0.125-0.297-0.113-0.449 0.035-0.125 0.153-0.113 0.301 0.039 0.454 0.148 0.121 0.301 0.109 0.449-0.04 0.125-0.148 0.114-0.3-0.039-0.449z" inkscape:connector-curvature="0"/>
      <path id="path374" style="fill-rule:evenodd;fill:#548535" d="m17.332 16.488c-0.223-0.226-0.434-0.211-0.633 0.035-0.226 0.25-0.215 0.477 0.035 0.676 0.274 0.223 0.5 0.199 0.676-0.074 0.098-0.102 0.137-0.215 0.11-0.336 0-0.125-0.063-0.227-0.188-0.301z" inkscape:connector-curvature="0"/>
      <path id="path376" style="fill-rule:evenodd;fill:#548535" d="m18.645 16.152c-0.352-0.25-0.649-0.226-0.899 0.075-0.101 0.125-0.152 0.273-0.152 0.449 0.027 0.172 0.101 0.324 0.226 0.449 0.125 0.102 0.274 0.148 0.45 0.148 0.199-0.023 0.347-0.097 0.449-0.222 0.25-0.352 0.222-0.653-0.074-0.899z" inkscape:connector-curvature="0"/>
      <path id="path378" style="fill-rule:evenodd;fill:#548535" d="m17.594 15.289c-0.149-0.176-0.324-0.16-0.524 0.039-0.125 0.172-0.097 0.336 0.075 0.484 0.203 0.153 0.363 0.137 0.488-0.035 0.148-0.199 0.137-0.363-0.039-0.488z" inkscape:connector-curvature="0"/>
      <path id="path380" style="fill-rule:evenodd;fill:#5f963c" d="m16.434 15.516c-0.2-0.176-0.399-0.164-0.598 0.035-0.199 0.25-0.188 0.461 0.039 0.637 0.223 0.175 0.434 0.148 0.633-0.075 0.176-0.222 0.152-0.425-0.074-0.597z" inkscape:connector-curvature="0"/>
      <path id="path382" style="fill-rule:evenodd;fill:#5f963c" d="m15.199 15.59c-0.074-0.125-0.172-0.125-0.301 0-0.097 0.148-0.086 0.262 0.04 0.336 0.101 0.101 0.199 0.086 0.3-0.035 0.074-0.125 0.063-0.227-0.039-0.301z" inkscape:connector-curvature="0"/>
      <path id="path384" style="fill-rule:evenodd;fill:#5f963c" d="m14.488 16.414c-0.097-0.051-0.176-0.039-0.222 0.035-0.051 0.051-0.039 0.125 0.035 0.227 0.051 0.074 0.125 0.062 0.226-0.039 0.075-0.075 0.063-0.149-0.039-0.223z" inkscape:connector-curvature="0"/>
      <path id="path386" style="fill-rule:evenodd;fill:#5f963c" d="m12.02 17.984c-0.153-0.148-0.29-0.136-0.415 0.039-0.148 0.149-0.136 0.286 0.036 0.411 0.05 0.05 0.125 0.074 0.226 0.074 0.102 0 0.164-0.035 0.188-0.113 0.05-0.047 0.074-0.125 0.074-0.223 0-0.102-0.035-0.164-0.109-0.188z" inkscape:connector-curvature="0"/>
      <path id="path388" style="fill-rule:evenodd;fill:#5f963c" d="m13.066 18.285c-0.152-0.152-0.273-0.137-0.375 0.035-0.097 0.102-0.086 0.227 0.039 0.375 0.125 0.102 0.25 0.086 0.375-0.035 0.098-0.152 0.086-0.277-0.039-0.375z" inkscape:connector-curvature="0"/>
      <path id="path390" style="fill-rule:evenodd;fill:#548535" d="m12.055 10.012c-0.2-0.149-0.375-0.125-0.524 0.074-0.148 0.199-0.125 0.375 0.074 0.523 0.176 0.125 0.352 0.102 0.524-0.074 0.125-0.176 0.101-0.347-0.074-0.523z" inkscape:connector-curvature="0"/>
      <path id="path392" style="fill-rule:evenodd;fill:#4d7830" d="m12.766 10.051c-0.125-0.051-0.223-0.039-0.297 0.035-0.078 0.102-0.063 0.199 0.035 0.301 0.125 0.074 0.226 0.062 0.301-0.039 0.097-0.098 0.086-0.2-0.039-0.297z" inkscape:connector-curvature="0"/>
      <path id="path394" style="fill-rule:evenodd;fill:#4d7830" d="m11.758 9.152c-0.028-0.05-0.102-0.05-0.227 0-0.051 0.098-0.035 0.184 0.039 0.262 0.098 0.047 0.172 0.035 0.223-0.039 0.102-0.098 0.086-0.176-0.035-0.223z" inkscape:connector-curvature="0"/>
      <path id="path396" style="fill-rule:evenodd;fill:#4d7830" d="m13.703 9.414c-0.199-0.203-0.375-0.187-0.523 0.035-0.153 0.199-0.141 0.387 0.035 0.563 0.199 0.176 0.387 0.148 0.562-0.074 0.176-0.227 0.149-0.399-0.074-0.524z" inkscape:connector-curvature="0"/>
      <path id="path398" style="fill-rule:evenodd;fill:#4d7830" d="m14.078 8.367c-0.125-0.078-0.226-0.066-0.301 0.035-0.101 0.102-0.101 0.211 0 0.336 0.125 0.074 0.239 0.063 0.336-0.035 0.102-0.152 0.09-0.262-0.035-0.336z" inkscape:connector-curvature="0"/>
      <path id="path400" style="fill-rule:evenodd;fill:#4d7830" d="m13.066 8.926c-0.074-0.074-0.136-0.063-0.187 0.039-0.051 0.097-0.039 0.16 0.039 0.187 0.051 0.075 0.109 0.075 0.187 0 0.047-0.078 0.036-0.152-0.039-0.226z" inkscape:connector-curvature="0"/>
      <path id="path402" style="fill-rule:evenodd;fill:#5f963c" d="m10.109 16.188c-0.175-0.126-0.324-0.098-0.449 0.074-0.152 0.152-0.137 0.3 0.035 0.449 0.153 0.125 0.301 0.113 0.45-0.035 0.101-0.153 0.089-0.313-0.036-0.488z" inkscape:connector-curvature="0"/>
      <path id="path404" style="fill-rule:evenodd;fill:#5f963c" d="m9.473 16.824c-0.125-0.074-0.227-0.074-0.301 0-0.074 0.125-0.063 0.223 0.039 0.301 0.074 0.125 0.176 0.125 0.301 0 0.074-0.102 0.058-0.199-0.039-0.301z" inkscape:connector-curvature="0"/>
      <path id="path406" style="fill-rule:evenodd;fill:#5f963c" d="m9.547 15.363c-0.199-0.148-0.359-0.125-0.485 0.078-0.175 0.172-0.164 0.336 0.036 0.485 0.175 0.152 0.351 0.136 0.527-0.035 0.148-0.203 0.121-0.375-0.078-0.528z" inkscape:connector-curvature="0"/>
      <path id="path408" style="fill-rule:evenodd;fill:#5f963c" d="m8.574 15.176c-0.101-0.074-0.226-0.063-0.375 0.039-0.097 0.148-0.086 0.273 0.039 0.375 0.125 0.098 0.25 0.086 0.375-0.039 0.098-0.125 0.086-0.25-0.039-0.375z" inkscape:connector-curvature="0"/>
      <path id="path410" style="fill-rule:evenodd;fill:#5f963c" d="m11.309 17.199c-0.227-0.176-0.426-0.152-0.602 0.074-0.172 0.2-0.148 0.387 0.074 0.563 0.176 0.172 0.364 0.16 0.563-0.039 0.176-0.199 0.164-0.399-0.035-0.598z" inkscape:connector-curvature="0"/>
      <path id="path412" style="fill-rule:evenodd;fill:#5f963c" d="m10.707 16.676c-0.074-0.051-0.148-0.051-0.223 0-0.05 0.074-0.039 0.148 0.036 0.222 0.101 0.051 0.164 0.04 0.187-0.035 0.074-0.051 0.074-0.113 0-0.187z" inkscape:connector-curvature="0"/>
      <path id="path414" style="fill-rule:evenodd;fill:#5f963c" d="m10.934 15.254c-0.274-0.227-0.524-0.199-0.75 0.074-0.223 0.274-0.2 0.524 0.074 0.75 0.277 0.223 0.523 0.199 0.75-0.078 0.226-0.273 0.199-0.523-0.074-0.746z" inkscape:connector-curvature="0"/>
      <path id="path416" style="fill-rule:evenodd;fill:#5f963c" d="m10.035 14.43c-0.226-0.176-0.426-0.153-0.601 0.074-0.075 0.074-0.11 0.176-0.11 0.301s0.047 0.222 0.149 0.297c0.222 0.175 0.437 0.152 0.636-0.075 0.172-0.222 0.149-0.422-0.074-0.597z" inkscape:connector-curvature="0"/>
      <path id="path418" style="fill-rule:evenodd;fill:#5f963c" d="m8.984 13.719c-0.074-0.102-0.172-0.09-0.296 0.035-0.079 0.078-0.063 0.176 0.035 0.301 0.101 0.074 0.199 0.062 0.3-0.035 0.102-0.102 0.086-0.204-0.039-0.301z" inkscape:connector-curvature="0"/>
      <path id="path420" style="fill-rule:evenodd;fill:#5f963c" d="m12.055 16.039c-0.25-0.227-0.512-0.199-0.785 0.074-0.102 0.125-0.137 0.262-0.114 0.41 0.024 0.153 0.102 0.278 0.227 0.375 0.273 0.227 0.523 0.2 0.746-0.074 0.25-0.301 0.226-0.562-0.074-0.785z" inkscape:connector-curvature="0"/>
      <path id="path422" style="fill-rule:evenodd;fill:#5f963c" d="m11.719 18.809c-0.125-0.075-0.239-0.063-0.336 0.039-0.102 0.148-0.09 0.261 0.035 0.336 0.102 0.074 0.203 0.062 0.301-0.039 0.125-0.125 0.125-0.235 0-0.336z" inkscape:connector-curvature="0"/>
      <path id="path424" style="fill-rule:evenodd;fill:#5f963c" d="m12.879 17.012c-0.199-0.176-0.41-0.149-0.637 0.074-0.074 0.074-0.097 0.176-0.074 0.301 0 0.125 0.051 0.222 0.152 0.301 0.223 0.171 0.422 0.148 0.598-0.079 0.172-0.222 0.16-0.421-0.039-0.597z" inkscape:connector-curvature="0"/>
      <path id="path426" style="fill-rule:evenodd;fill:#5f963c" d="m13.59 16.973c-0.098-0.125-0.223-0.11-0.375 0.039-0.098 0.125-0.086 0.25 0.039 0.375 0.148 0.101 0.273 0.086 0.375-0.039 0.148-0.149 0.137-0.274-0.039-0.375z" inkscape:connector-curvature="0"/>
      <path id="path428" style="fill-rule:evenodd;fill:#5f963c" d="m13.926 17.91c-0.172-0.125-0.336-0.113-0.485 0.035-0.125 0.176-0.113 0.34 0.036 0.489 0.175 0.125 0.335 0.101 0.488-0.075 0.148-0.148 0.137-0.3-0.039-0.449z" inkscape:connector-curvature="0"/>
      <path id="path430" style="fill-rule:evenodd;fill:#5f963c" d="m14.188 18.77c-0.126-0.098-0.25-0.086-0.376 0.039-0.097 0.148-0.085 0.261 0.04 0.336 0.148 0.101 0.261 0.089 0.336-0.036 0.124-0.125 0.124-0.238 0-0.339z" inkscape:connector-curvature="0"/>
      <path id="path432" style="fill-rule:evenodd;fill:#5f963c" d="m14.824 18.508c-0.172-0.121-0.312-0.11-0.41 0.039-0.125 0.125-0.113 0.262 0.035 0.41 0.153 0.102 0.289 0.078 0.414-0.074 0.149-0.149 0.137-0.274-0.039-0.375z" inkscape:connector-curvature="0"/>
      <path id="path434" style="fill-rule:evenodd;fill:#5f963c" d="m13.516 15.551c-0.301-0.223-0.563-0.199-0.786 0.078-0.226 0.273-0.199 0.523 0.075 0.746 0.3 0.227 0.562 0.199 0.785-0.074 0.226-0.274 0.199-0.524-0.074-0.75z" inkscape:connector-curvature="0"/>
      <path id="path436" style="fill-rule:evenodd;fill:#5f963c" d="m12.469 15.141c-0.203-0.149-0.364-0.137-0.489 0.035-0.148 0.176-0.136 0.351 0.04 0.527 0.171 0.125 0.347 0.098 0.523-0.078 0.148-0.172 0.125-0.336-0.074-0.484z" inkscape:connector-curvature="0"/>
      <path id="path438" style="fill-rule:evenodd;fill:#5f963c" d="m11.605 14.953c-0.05-0.051-0.125-0.062-0.222-0.039-0.102 0-0.164 0.039-0.188 0.113-0.152 0.149-0.136 0.285 0.035 0.411 0.153 0.152 0.29 0.136 0.415-0.036 0.148-0.148 0.136-0.3-0.04-0.449z" inkscape:connector-curvature="0"/>
      <path id="path440" style="fill-rule:evenodd;fill:#5f963c" d="m12.355 13.98c-0.199-0.175-0.398-0.164-0.597 0.036-0.176 0.226-0.153 0.425 0.074 0.601 0.199 0.172 0.387 0.149 0.559-0.078 0.175-0.172 0.164-0.359-0.036-0.559z" inkscape:connector-curvature="0"/>
      <path id="path442" style="fill-rule:evenodd;fill:#5f963c" d="m12.953 14.84c-0.051-0.047-0.125-0.047-0.223 0-0.05 0.074-0.039 0.152 0.036 0.226 0.074 0.075 0.136 0.063 0.187-0.039 0.074-0.05 0.074-0.113 0-0.187z" inkscape:connector-curvature="0"/>
      <path id="path444" style="fill-rule:evenodd;fill:#548535" d="m12.691 12.781c-0.171-0.125-0.336-0.113-0.484 0.039-0.125 0.172-0.102 0.336 0.074 0.485 0.149 0.152 0.313 0.136 0.485-0.035 0.152-0.176 0.125-0.34-0.075-0.489z" inkscape:connector-curvature="0"/>
      <path id="path446" style="fill-rule:evenodd;fill:#548535" d="m13.477 12.035c-0.25-0.203-0.461-0.187-0.637 0.035-0.223 0.227-0.211 0.438 0.039 0.637s0.461 0.188 0.637-0.039c0.199-0.246 0.187-0.461-0.039-0.633z" inkscape:connector-curvature="0"/>
      <path id="path448" style="fill-rule:evenodd;fill:#548535" d="m12.469 11.621c-0.227-0.176-0.426-0.148-0.602 0.074-0.148 0.2-0.125 0.387 0.074 0.563 0.227 0.176 0.414 0.148 0.563-0.074 0.199-0.2 0.187-0.387-0.035-0.563z" inkscape:connector-curvature="0"/>
      <path id="path450" style="fill-rule:evenodd;fill:#548535" d="m11.57 11.586c-0.203-0.152-0.363-0.141-0.488 0.035-0.176 0.176-0.16 0.336 0.039 0.488 0.172 0.172 0.336 0.161 0.484-0.039 0.153-0.199 0.137-0.359-0.035-0.484z" inkscape:connector-curvature="0"/>
      <path id="path452" style="fill-rule:evenodd;fill:#548535" d="m10.07 11.508c-0.074-0.047-0.148-0.035-0.222 0.039-0.051 0.101-0.039 0.164 0.039 0.187 0.074 0.051 0.136 0.051 0.183 0 0.051-0.05 0.051-0.125 0-0.226z" inkscape:connector-curvature="0"/>
      <path id="path454" style="fill-rule:evenodd;fill:#548535" d="m11.383 10.91c-0.074-0.101-0.164-0.101-0.262 0-0.101 0.098-0.09 0.188 0.035 0.262 0.102 0.074 0.188 0.074 0.262 0 0.051-0.149 0.039-0.234-0.035-0.262z" inkscape:connector-curvature="0"/>
      <path id="path456" style="fill-rule:evenodd;fill:#548535" d="m11.156 10.238c-0.125-0.078-0.222-0.062-0.297 0.035-0.101 0.102-0.089 0.188 0.036 0.262 0.101 0.102 0.199 0.102 0.3 0 0.051-0.125 0.035-0.223-0.039-0.297z" inkscape:connector-curvature="0"/>
      <path id="path458" style="fill-rule:evenodd;fill:#548535" d="m12.281 10.91c-0.078-0.101-0.164-0.101-0.261 0-0.079 0.074-0.063 0.16 0.035 0.262 0.101 0.098 0.187 0.086 0.261-0.039 0.102-0.098 0.09-0.172-0.035-0.223z" inkscape:connector-curvature="0"/>
      <path id="path460" style="fill-rule:evenodd;fill:#548535" d="m12.953 11.023c-0.125-0.125-0.262-0.113-0.41 0.036-0.102 0.152-0.086 0.289 0.035 0.414 0.176 0.074 0.313 0.062 0.414-0.039 0.125-0.172 0.11-0.313-0.039-0.411z" inkscape:connector-curvature="0"/>
      <path id="path462" style="fill-rule:evenodd;fill:#4d7830" d="m14.078 10.984c-0.176-0.175-0.363-0.16-0.562 0.039-0.125 0.223-0.102 0.411 0.074 0.563 0.176 0.172 0.363 0.148 0.562-0.078 0.176-0.223 0.149-0.399-0.074-0.524z" inkscape:connector-curvature="0"/>
      <path id="path464" style="fill-rule:evenodd;fill:#4d7830" d="m15.012 10.945c-0.125-0.148-0.274-0.136-0.45 0.039-0.148 0.2-0.136 0.364 0.04 0.489 0.171 0.125 0.336 0.113 0.484-0.039 0.152-0.172 0.125-0.336-0.074-0.489z" inkscape:connector-curvature="0"/>
      <path id="path466" style="fill-rule:evenodd;fill:#4d7830" d="m15.875 10.91c-0.176-0.125-0.328-0.113-0.449 0.035-0.153 0.153-0.141 0.301 0.035 0.453 0.176 0.125 0.324 0.11 0.449-0.039 0.125-0.175 0.113-0.324-0.035-0.449z" inkscape:connector-curvature="0"/>
      <path id="path468" style="fill-rule:evenodd;fill:#4d7830" d="m14.75 9.898c-0.223-0.171-0.426-0.16-0.598 0.04-0.175 0.222-0.152 0.421 0.075 0.597 0.222 0.176 0.425 0.164 0.597-0.035 0.176-0.227 0.153-0.426-0.074-0.602z" inkscape:connector-curvature="0"/>
      <path id="path470" style="fill-rule:evenodd;fill:#4d7830" d="m13.477 10.426c-0.149-0.102-0.286-0.09-0.411 0.035-0.101 0.199-0.086 0.336 0.036 0.41 0.175 0.125 0.312 0.113 0.414-0.035 0.125-0.125 0.113-0.262-0.039-0.41z" inkscape:connector-curvature="0"/>
      <path id="path472" style="fill-rule:evenodd;fill:#4d7830" d="m12.617 9.113c-0.148-0.148-0.312-0.136-0.488 0.039-0.125 0.172-0.098 0.336 0.074 0.485 0.176 0.125 0.34 0.113 0.488-0.039 0.149-0.172 0.125-0.336-0.074-0.485z" inkscape:connector-curvature="0"/>
      <path id="path474" style="fill-rule:evenodd;fill:#4d7830" d="m12.805 8.027c-0.075-0.074-0.164-0.097-0.262-0.074-0.125 0-0.215 0.051-0.266 0.149-0.074 0.078-0.097 0.164-0.074 0.265 0 0.121 0.039 0.211 0.113 0.262 0.2 0.148 0.387 0.137 0.563-0.039 0.125-0.223 0.101-0.414-0.074-0.563z" inkscape:connector-curvature="0"/>
      <path id="path476" style="fill-rule:evenodd;fill:#4d7830" d="m13.555 8.629c-0.078-0.078-0.164-0.063-0.266 0.035-0.074 0.074-0.062 0.164 0.039 0.262 0.102 0.051 0.188 0.039 0.262-0.035 0.051-0.102 0.039-0.188-0.035-0.262z" inkscape:connector-curvature="0"/>
      <path id="path478" style="fill-rule:evenodd;fill:#548535" d="m13.59 7.805c-0.149-0.102-0.274-0.086-0.375 0.035-0.149 0.152-0.137 0.277 0.039 0.375 0.125 0.101 0.25 0.086 0.375-0.035 0.098-0.125 0.086-0.25-0.039-0.375z" inkscape:connector-curvature="0"/>
      <path id="path480" style="fill-rule:evenodd;fill:#548535" d="m13.516 6.68c-0.2-0.149-0.375-0.125-0.524 0.074-0.152 0.203-0.137 0.363 0.035 0.488 0.2 0.176 0.375 0.16 0.524-0.039 0.176-0.172 0.164-0.348-0.035-0.523z" inkscape:connector-curvature="0"/>
      <path id="path482" style="fill-rule:evenodd;fill:#548535" d="m12.918 7.43c-0.078-0.075-0.164-0.063-0.262 0.039-0.051 0.097-0.039 0.183 0.035 0.261 0.102 0.047 0.188 0.036 0.262-0.039 0.102-0.101 0.086-0.187-0.035-0.261z" inkscape:connector-curvature="0"/>
      <path id="path484" style="fill-rule:evenodd;fill:#548535" d="m12.656 6.457c-0.203-0.152-0.363-0.137-0.488 0.035-0.125 0.153-0.102 0.313 0.074 0.488 0.153 0.149 0.301 0.125 0.449-0.074 0.149-0.152 0.137-0.301-0.035-0.449z" inkscape:connector-curvature="0"/>
      <path id="path486" style="fill-rule:evenodd;fill:#548535" d="m12.953 6.156c-0.098-0.051-0.16-0.035-0.187 0.039-0.047 0.047-0.047 0.098 0 0.149 0.074 0.051 0.136 0.051 0.187 0 0.051-0.074 0.051-0.137 0-0.188z" inkscape:connector-curvature="0"/>
      <path id="path488" style="fill-rule:evenodd;fill:#548535" d="m11.98 6.121c-0.175-0.125-0.312-0.113-0.41 0.035-0.125 0.125-0.113 0.262 0.035 0.414 0.153 0.098 0.29 0.086 0.415-0.039 0.097-0.199 0.085-0.336-0.04-0.41z" inkscape:connector-curvature="0"/>
      <path id="path490" style="fill-rule:evenodd;fill:#548535" d="m11.23 6.008c-0.05-0.051-0.125-0.074-0.222-0.074-0.102 0-0.164 0.035-0.188 0.109-0.05 0.051-0.074 0.125-0.074 0.227 0 0.097 0.035 0.16 0.113 0.187 0.149 0.148 0.286 0.137 0.411-0.039 0.148-0.148 0.136-0.285-0.04-0.41z" inkscape:connector-curvature="0"/>
      <path id="path492" style="fill-rule:evenodd;fill:#548535" d="m11.531 5.707c-0.051-0.074-0.113-0.074-0.187 0s-0.074 0.152 0 0.227c0.101 0.046 0.164 0.035 0.187-0.039 0.051-0.024 0.074-0.063 0.074-0.114 0-0.023-0.023-0.047-0.074-0.074z" inkscape:connector-curvature="0"/>
      <path id="path494" style="fill-rule:evenodd;fill:#4d7830" d="m10.445 5.969c-0.175-0.125-0.336-0.114-0.484 0.039-0.125 0.176-0.113 0.336 0.035 0.484 0.176 0.125 0.336 0.102 0.488-0.074 0.149-0.148 0.137-0.297-0.039-0.449z" inkscape:connector-curvature="0"/>
      <path id="path496" style="fill-rule:evenodd;fill:#4d7830" d="m9.961 6.57c-0.102-0.101-0.203-0.09-0.301 0.035-0.101 0.102-0.086 0.2 0.039 0.301 0.098 0.098 0.199 0.086 0.297-0.039 0.102-0.097 0.09-0.199-0.035-0.297z" inkscape:connector-curvature="0"/>
      <path id="path498" style="fill-rule:evenodd;fill:#4d7830" d="m9.324 6.68c-0.027-0.051-0.062-0.051-0.113 0-0.023 0.023-0.023 0.062 0 0.113 0.074 0.074 0.113 0.074 0.113 0 0.074-0.074 0.074-0.113 0-0.113z" inkscape:connector-curvature="0"/>
      <path id="path500" style="fill-rule:evenodd;fill:#4d7830" d="m6.293 9.227c-0.102-0.051-0.164-0.039-0.188 0.035-0.05 0.05-0.05 0.113 0 0.187 0.051 0.051 0.125 0.051 0.223 0 0.051-0.074 0.039-0.148-0.035-0.222z" inkscape:connector-curvature="0"/>
      <path id="path502" style="fill-rule:evenodd;fill:#4d7830" d="m10.445 7.277c-0.097-0.121-0.222-0.109-0.375 0.039-0.097 0.125-0.086 0.25 0.039 0.375 0.149 0.102 0.274 0.086 0.375-0.039 0.149-0.148 0.137-0.273-0.039-0.375z" inkscape:connector-curvature="0"/>
      <path id="path504" style="fill-rule:evenodd;fill:#4d7830" d="m11.121 6.906c-0.199-0.152-0.363-0.136-0.488 0.035-0.125 0.176-0.102 0.325 0.074 0.45 0.051 0.078 0.125 0.101 0.227 0.078 0.097 0 0.171-0.039 0.222-0.114 0.125-0.152 0.114-0.3-0.035-0.449z" inkscape:connector-curvature="0"/>
      <path id="path506" style="fill-rule:evenodd;fill:#4d7830" d="m11.832 7.055c-0.176-0.149-0.336-0.125-0.488 0.074-0.125 0.176-0.11 0.34 0.039 0.488 0.176 0.149 0.347 0.137 0.523-0.039 0.125-0.176 0.098-0.348-0.074-0.523z" inkscape:connector-curvature="0"/>
      <path id="path508" style="fill-rule:evenodd;fill:#4d7830" d="m12.391 7.355c-0.098-0.05-0.172-0.039-0.223 0.036-0.074 0.078-0.074 0.152 0 0.226 0.098 0.051 0.176 0.035 0.223-0.039 0.078-0.074 0.078-0.148 0-0.223z" inkscape:connector-curvature="0"/>
      <path id="path510" style="fill-rule:evenodd;fill:#4d7830" d="m11.793 8.066c-0.172-0.175-0.336-0.164-0.484 0.036-0.079 0.078-0.102 0.164-0.079 0.265 0 0.121 0.04 0.211 0.114 0.262 0.176 0.148 0.351 0.137 0.523-0.039 0.153-0.223 0.125-0.399-0.074-0.524z" inkscape:connector-curvature="0"/>
      <path id="path512" style="fill-rule:evenodd;fill:#4d7830" d="m11.043 7.805c-0.074-0.051-0.148-0.039-0.223 0.035-0.05 0.074-0.039 0.152 0.039 0.226 0.075 0.051 0.149 0.036 0.223-0.039 0.074-0.074 0.063-0.148-0.039-0.222z" inkscape:connector-curvature="0"/>
      <path id="path514" style="fill-rule:evenodd;fill:#4d7830" d="m11.195 8.926c-0.199-0.149-0.375-0.125-0.523 0.074-0.152 0.199-0.125 0.375 0.074 0.527 0.176 0.121 0.336 0.098 0.484-0.078 0.176-0.172 0.165-0.347-0.035-0.523z" inkscape:connector-curvature="0"/>
      <path id="path516" style="fill-rule:evenodd;fill:#548535" d="m15.609 14.504c-0.171-0.125-0.336-0.113-0.484 0.039-0.152 0.148-0.137 0.324 0.035 0.523 0.176 0.125 0.34 0.098 0.488-0.074 0.153-0.199 0.137-0.363-0.039-0.488z" inkscape:connector-curvature="0"/>
      <path id="path518" style="fill-rule:evenodd;fill:#548535" d="m16.473 14.277c-0.2-0.199-0.375-0.183-0.524 0.039-0.152 0.2-0.137 0.387 0.035 0.563 0.204 0.148 0.387 0.137 0.563-0.039 0.176-0.199 0.148-0.387-0.074-0.563z" inkscape:connector-curvature="0"/>
      <path id="path520" style="fill-rule:evenodd;fill:#548535" d="m17.332 13.906c-0.223-0.199-0.434-0.176-0.633 0.074-0.176 0.223-0.152 0.438 0.074 0.637 0.223 0.176 0.438 0.149 0.637-0.074 0.199-0.227 0.172-0.438-0.078-0.637z" inkscape:connector-curvature="0"/>
      <path id="path522" style="fill-rule:evenodd;fill:#548535" d="m16.621 13.23c-0.125-0.125-0.262-0.113-0.41 0.04-0.102 0.148-0.086 0.285 0.035 0.41 0.203 0.101 0.34 0.09 0.414-0.035 0.125-0.176 0.113-0.313-0.039-0.415z" inkscape:connector-curvature="0"/>
      <path id="path524" style="fill-rule:evenodd;fill:#548535" d="m17.52 12.52c-0.25-0.2-0.461-0.188-0.637 0.039-0.172 0.222-0.149 0.421 0.078 0.597 0.223 0.176 0.422 0.164 0.598-0.039 0.175-0.222 0.16-0.422-0.039-0.597z" inkscape:connector-curvature="0"/>
      <path id="path526" style="fill-rule:evenodd;fill:#548535" d="m18.23 13.754c-0.171-0.125-0.335-0.113-0.484 0.039-0.125 0.172-0.101 0.336 0.074 0.484 0.176 0.176 0.336 0.164 0.485-0.035 0.152-0.176 0.125-0.336-0.075-0.488z" inkscape:connector-curvature="0"/>
      <path id="path528" style="fill-rule:evenodd;fill:#548535" d="m18.531 14.914c-0.25-0.148-0.449-0.125-0.597 0.078-0.153 0.246-0.125 0.449 0.074 0.598 0.25 0.148 0.433 0.125 0.558-0.074 0.176-0.227 0.164-0.426-0.035-0.602z" inkscape:connector-curvature="0"/>
      <path id="path530" style="fill-rule:evenodd;fill:#548535" d="m17.934 18.883c-0.153-0.102-0.289-0.086-0.414 0.039-0.075 0.172-0.063 0.308 0.039 0.41 0.175 0.074 0.312 0.063 0.41-0.035 0.074-0.176 0.062-0.313-0.035-0.414z" inkscape:connector-curvature="0"/>
      <path id="path532" style="fill-rule:evenodd;fill:#548535" d="m17.371 19.445c-0.148-0.101-0.273-0.086-0.375 0.035-0.148 0.153-0.137 0.278 0.039 0.375 0.125 0.102 0.246 0.09 0.371-0.035 0.102-0.125 0.09-0.25-0.035-0.375z" inkscape:connector-curvature="0"/>
      <path id="path534" style="fill-rule:evenodd;fill:#5f963c" d="m16.359 19.781c-0.148-0.148-0.273-0.136-0.375 0.039-0.148 0.149-0.136 0.285 0.039 0.41 0.149 0.102 0.286 0.086 0.411-0.035 0.101-0.203 0.074-0.34-0.075-0.414z" inkscape:connector-curvature="0"/>
      <path id="path536" style="fill-rule:evenodd;fill:#548535" d="m15.387 20.27c-0.102-0.075-0.199-0.063-0.301 0.035-0.074 0.125-0.063 0.226 0.039 0.3 0.102 0.102 0.187 0.086 0.262-0.039 0.101-0.097 0.101-0.199 0-0.296z" inkscape:connector-curvature="0"/>
      <path id="path538" style="fill-rule:evenodd;fill:#548535" d="m13.402 20.457c-0.125-0.078-0.238-0.062-0.336 0.035-0.101 0.149-0.086 0.262 0.036 0.336 0.101 0.051 0.214 0.039 0.339-0.035 0.075-0.125 0.063-0.238-0.039-0.336z" inkscape:connector-curvature="0"/>
      <path id="path540" style="fill-rule:evenodd;fill:#548535" d="m7.75 18.133c-0.074-0.074-0.16-0.063-0.262 0.039-0.101 0.101-0.086 0.187 0.039 0.262 0.098 0.05 0.184 0.039 0.262-0.036 0.051-0.101 0.035-0.187-0.039-0.265z" inkscape:connector-curvature="0"/>
    </g>
  </g>
<metadata><rdf:RDF><cc:Work><dc:format>image/svg+xml</dc:format><dc:type rdf:resource="http://purl.org/dc/dcmitype/StillImage"/><cc:license rdf:resource="http://creativecommons.org/licenses/publicdomain/"/><dc:publisher><cc:Agent rdf:about="http://openclipart.org/"><dc:title>Openclipart</dc:title></cc:Agent></dc:publisher></cc:Work><cc:License rdf:about="http://creativecommons.org/licenses/publicdomain/"><cc:permits rdf:resource="http://creativecommons.org/ns#Reproduction"/><cc:permits rdf:resource="http://creativecommons.org/ns#Distribution"/><cc:permits rdf:resource="http://creativecommons.org/ns#DerivativeWorks"/></cc:License></rdf:RDF></metadata></svg>
