<?xml version="1.0" encoding="UTF-8" standalone="no"?>
<!-- Created with Inkscape (http://www.inkscape.org/) -->
<svg xmlns:inkscape="http://www.inkscape.org/namespaces/inkscape" xmlns:rdf="http://www.w3.org/1999/02/22-rdf-syntax-ns#" xmlns="http://www.w3.org/2000/svg" xmlns:xlink="http://www.w3.org/1999/xlink" xmlns:ns1="http://sozi.baierouge.fr" xmlns:cc="http://creativecommons.org/ns#" xmlns:sodipodi="http://sodipodi.sourceforge.net/DTD/sodipodi-0.dtd" xmlns:dc="http://purl.org/dc/elements/1.1/" id="svg2" xml:space="preserve" viewBox="0 0 38.823 37.611" version="1.1" inkscape:version="0.91 r13725">
  <defs id="defs6">
    <radialGradient id="radialGradient26" gradientUnits="userSpaceOnUse" cy="15.07" cx="16.704" gradientTransform="matrix(.79832 .05208 -.05144 .78872 1.491 6.2929)" r="8.3049">
      <stop id="stop28" style="stop-color:#ede3ce" offset="0"/>
      <stop id="stop30" style="stop-color:#b09880" offset="1"/>
    </radialGradient>
    <radialGradient id="radialGradient44" gradientUnits="userSpaceOnUse" cy="20.312" cx="6.4429" gradientTransform="matrix(.79832 .052 -.05128 .7868 2.0286 -1.9871)" r="7.8418">
      <stop id="stop46" style="stop-color:#ede6d8" offset="0"/>
      <stop id="stop48" style="stop-color:#c4aa90" offset="1"/>
    </radialGradient>
    <radialGradient id="radialGradient62" gradientUnits="userSpaceOnUse" cy="24.541" cx="7.9648" gradientTransform="matrix(.79832 .05224 -.0516 .78856 2.4806 -8.7335)" r="10.286">
      <stop id="stop64" style="stop-color:#ede6d8" offset="0"/>
      <stop id="stop66" style="stop-color:#c4aa90" offset="1"/>
    </radialGradient>
    <radialGradient id="radialGradient80" gradientUnits="userSpaceOnUse" cy="23.602" cx="28.324" gradientTransform="matrix(.79832 .05208 -.05144 .788 2.3729 -7.2311)" r="9.7541">
      <stop id="stop82" style="stop-color:#ede6d8" offset="0"/>
      <stop id="stop84" style="stop-color:#c4aa90" offset="1"/>
    </radialGradient>
    <radialGradient id="radialGradient98" gradientUnits="userSpaceOnUse" cy="25.06" cx="24.965" gradientTransform="matrix(.79832 .05232 -.05168 .78816 2.5376 -9.5463)" r="10.849">
      <stop id="stop100" style="stop-color:#ede6d8" offset="0"/>
      <stop id="stop102" style="stop-color:#c4aa90" offset="1"/>
    </radialGradient>
    <radialGradient id="radialGradient116" gradientUnits="userSpaceOnUse" cy="25.602" cx="22.882" gradientTransform="matrix(.79832 .05208 -.05136 .7876 2.5786 -10.393)" r="10.242">
      <stop id="stop118" style="stop-color:#ede6d8" offset="0"/>
      <stop id="stop120" style="stop-color:#c4aa90" offset="1"/>
    </radialGradient>
    <radialGradient id="radialGradient134" gradientUnits="userSpaceOnUse" cy="25.672" cx="13.362" gradientTransform="matrix(.79832 .05192 -.0512 .78768 2.579 -10.507)" r="10.372">
      <stop id="stop136" style="stop-color:#ede6d8" offset="0"/>
      <stop id="stop138" style="stop-color:#c4aa90" offset="1"/>
    </radialGradient>
    <linearGradient id="linearGradient152" y2="8.2422" gradientUnits="userSpaceOnUse" x2="20.05" gradientTransform="matrix(.8 0 0 -.8 -.069565 30.209)" y1="8.2422" x1="14.95">
      <stop id="stop154" style="stop-color:#ede6d8" offset="0"/>
      <stop id="stop156" style="stop-color:#c4aa90" offset="1"/>
    </linearGradient>
  </defs>
  <g id="g10" transform="matrix(1.25 0 0 -1.25 0 37.611)">
    <g id="g12">
      <path id="path14" style="fill-rule:evenodd;fill:#f5e1d1" d="m13.891 27.608c-0.348 0.055-0.653 0.227-0.922 0.52-0.184 0.188-0.383 0.48-0.598 0.883l-0.242 0.519 0.48 0.278c0.453 0.187 0.961 0.281 1.52 0.281 0.906 0 1.641-0.254 2.203-0.762-1.043-1.304-1.855-1.879-2.441-1.719z" inkscape:connector-curvature="0"/>
      <g id="g16">
        <g id="g18">
          <g id="g24">
            <path id="path32" style="fill-rule:evenodd;fill:url(#radialGradient26)" d="m22.969 18.769c-3.598-1.039-7-1.852-10.199-2.442-6.454-1.226-8.747-0.785-6.879 1.321 2 2.269 4.05 3.64 6.16 4.121 1.359 0.293 3.281 0.254 5.758-0.121 1.629-0.239 2.972-0.797 4.043-1.68 0.531-0.426 0.906-0.824 1.117-1.199z" inkscape:connector-curvature="0"/>
          </g>
        </g>
      </g>
      <g id="g34">
        <g id="g36">
          <g id="g42">
            <path id="path50" style="fill-rule:evenodd;fill:url(#radialGradient44)" d="m11.73 20.851c1.067-1.336-0.027-4.067-3.281-8.203-3.277-4.106-5.531-5.614-6.758-4.52-1.441 1.309-1.961 2.988-1.562 5.043 0.457 2.344 2.16 4.266 5.121 5.758 1.867 0.961 3.508 1.562 4.922 1.801 0.719 0.132 1.238 0.171 1.558 0.121z" inkscape:connector-curvature="0"/>
          </g>
        </g>
      </g>
      <g id="g52">
        <g id="g54">
          <g id="g60">
            <path id="path68" style="fill-rule:evenodd;fill:url(#radialGradient62)" d="m12.41 20.808c1.414-6.16 2.082-10.598 2-13.321-0.055-1.972-0.812-3.492-2.281-4.558-1.387-0.985-3.16-1.426-5.32-1.321-2.157 0.11-3.813 1.293-4.957 3.563-1.176 2.398-1.133 4.879 0.117 7.437 1.121 2.27 3.066 4.27 5.84 6 2.027 1.282 3.562 2.016 4.601 2.2z" inkscape:connector-curvature="0"/>
          </g>
        </g>
      </g>
      <g id="g70">
        <g id="g72">
          <g id="g78">
            <path id="path86" style="fill-rule:evenodd;fill:url(#radialGradient80)" d="m16.211 19.851 0.121 0.476c0.344 0.348 1.145 0.524 2.398 0.524 2.161 0 4.161-0.348 6-1.043 2.668-0.985 4.465-2.575 5.399-4.758 1.066-2.453 1.215-4.817 0.441-7.082-0.773-2.211-2.066-3.305-3.879-3.281-1.921 0.027-4.242 2.562-6.961 7.601l-3.519 7.563z" inkscape:connector-curvature="0"/>
          </g>
        </g>
      </g>
      <g id="g88">
        <g id="g90">
          <g id="g96">
            <path id="path104" style="fill-rule:evenodd;fill:url(#radialGradient98)" d="m22.891 18.249c1.972-1.094 3.574-2.398 4.8-3.922 1.414-1.758 1.852-3.918 1.317-6.476-0.559-2.563-1.797-4.215-3.719-4.961-1.598-0.614-2.906-0.774-3.918-0.481l-1.082 0.641c-1.227 2.426-2.453 4.894-3.68 7.398-2.453 5.039-3.718 7.746-3.8 8.121-0.079 0.532 0.496 1.051 1.722 1.559 1.332 0.508 2.586 0.547 3.758 0.121 2.027-0.773 3.563-1.441 4.602-2z" inkscape:connector-curvature="0"/>
          </g>
        </g>
      </g>
      <g id="g106">
        <g id="g108">
          <g id="g114">
            <path id="path122" style="fill-rule:evenodd;fill:url(#radialGradient116)" d="m22.289 16.648c1.762-1.625 2.762-3.399 3-5.317 0.293-2.055-0.117-4.121-1.238-6.203-0.989-1.891-2.055-3.012-3.199-3.359-1.817-0.559-2.801-0.84-2.961-0.84-1.039-0.078-1.934 0.453-2.68 1.601-0.719 1.094-1.242 4.414-1.559 9.957-0.16 2.774-0.254 5.442-0.281 8l1.52-0.199c1.199-0.187 2.254-0.492 3.16-0.918 1.601-0.695 3.011-1.601 4.238-2.722z" inkscape:connector-curvature="0"/>
          </g>
        </g>
      </g>
      <g id="g124">
        <g id="g126">
          <g id="g132">
            <path id="path140" style="fill-rule:evenodd;fill:url(#radialGradient134)" d="m12.891 20.769c0.16-0.106 0.441-0.215 0.839-0.321 0.481-0.265 1.067-0.867 1.762-1.8 0.77-1.012 1.332-3.426 1.68-7.239 0.32-3.332 0.371-5.906 0.16-7.718-0.137-1.415-0.922-2.442-2.363-3.083-1.41-0.613-2.985-0.652-4.719-0.121-1.574 0.508-2.598 1.789-3.078 3.844-0.375 1.652-0.387 3.652-0.043 6 0.32 2.156 1.148 4.504 2.48 7.039 1.387 2.664 2.481 3.797 3.282 3.399z" inkscape:connector-curvature="0"/>
          </g>
        </g>
      </g>
      <g id="g142">
        <g id="g144">
          <g id="g150">
            <path id="path158" style="fill-rule:evenodd;fill:url(#linearGradient152)" d="m19.012 19.448c-0.137-0.371-0.36-0.652-0.68-0.84-0.668-0.375-1.816-0.652-3.441-0.839-1.575-0.188-2.934 0.015-4.082 0.601l-1.2 0.957c0.243 0.055 0.829 0.883 1.762 2.481 0.559 0.988 0.852 2.574 0.879 4.761 0.027 1.067-0.012 2.051-0.121 2.961l0.281-0.441c0.348-0.293 0.879-0.453 1.602-0.481 1.14-0.05 1.894 0.165 2.258 0.641-0.243-0.414-0.305-1.504-0.18-3.281 0.082-1.172 0.547-2.371 1.402-3.598 0.426-0.64 0.84-1.148 1.238-1.519 0.293-0.668 0.387-1.137 0.282-1.403z" inkscape:connector-curvature="0"/>
          </g>
        </g>
      </g>
      <path id="path160" style="fill-rule:evenodd;fill:#b39984" d="m17.492 22.37c0.426-0.64 0.84-1.148 1.238-1.519 0.293-0.668 0.387-1.137 0.282-1.403-0.137-0.371-0.36-0.652-0.68-0.84-0.668-0.375-1.816-0.652-3.441-0.839-0.668-0.106-1.387-0.106-2.161 0h0.04c0.668-0.055 1.281 0.015 1.839 0.199 0.536 0.187 0.829 0.414 0.883 0.68 0.051 0.187 0.067 0.601 0.039 1.242l-0.039 0.879 0.078-0.481c0.028-0.265 0.172-0.707 0.442-1.32 0.105-0.238 0.238-0.332 0.398-0.277 0.133 0.023 0.242 0.132 0.32 0.32 0.055 0.105 0.012 0.305-0.121 0.597-0.32 0.668-0.531 1.149-0.64 1.442-0.211 0.558-0.371 1.32-0.477 2.277l-0.082 1.242 0.16-0.921c0.133-0.692 0.332-1.25 0.602-1.68 0.426-0.692 1.027-1.254 1.797-1.68-0.133 0.133-0.305 0.375-0.52 0.723-0.293 0.371-0.531 0.719-0.719 1.039-0.347 0.613-0.601 1.348-0.761 2.199-0.211 1.332-0.278 2.879-0.199 4.641 0.226 0.101 0.386 0.215 0.48 0.34-0.227-0.442-0.281-1.532-0.16-3.262 0.082-1.172 0.547-2.371 1.402-3.598z" inkscape:connector-curvature="0"/>
      <path id="path162" style="fill-rule:evenodd;fill:#b39984" d="m15.449 25.37c0.028-0.535-0.051-0.601-0.238-0.203-0.16 0.43-0.242 0.828-0.242 1.203 0 0.481 0.043 1.199 0.121 2.16 0.215-0.375 0.336-0.867 0.359-1.48v-1.68z" inkscape:connector-curvature="0"/>
      <path id="path164" style="fill-rule:evenodd;fill:#b39984" d="m15.051 24.608v-2.078c0-0.535-0.067-0.16-0.199 1.118l-0.043 1.863c0.035-0.324 0.113-0.625 0.242-0.903z" inkscape:connector-curvature="0"/>
      <path id="path166" style="fill-rule:evenodd;fill:#b39984" d="m14.891 21.089c0-0.586-0.067-1.055-0.2-1.398-0.132-0.458-0.187 0.386-0.16 2.519 0.055 0.211 0.133 0.172 0.239-0.121 0.082-0.293 0.121-0.625 0.121-1z" inkscape:connector-curvature="0"/>
      <path id="path168" style="fill-rule:evenodd;fill:#b39984" d="m15.051 19.73c0-0.133 0.027-0.321 0.078-0.563 0.055-0.156 0.043-0.25-0.039-0.277-0.16-0.082-0.172 0.199-0.039 0.84z" inkscape:connector-curvature="0"/>
      <path id="path170" style="fill-rule:evenodd;fill:#fff0e3" d="m13.09 27.53c0-0.16 0.015-0.652 0.039-1.48 0-0.801-0.078-1.293-0.238-1.481-0.188-0.265-0.239 0.707-0.161 2.918 0.028 0.481 0.094 0.696 0.2 0.641 0.105-0.051 0.16-0.254 0.16-0.598z" inkscape:connector-curvature="0"/>
      <path id="path172" style="fill-rule:evenodd;fill:#fff0e3" d="m12.609 23.929c0-0.238-0.05-0.602-0.16-1.078-0.105-0.618-0.238-0.934-0.398-0.961-0.133-0.028-0.149 0.144-0.039 0.519 0.183 0.481 0.293 0.824 0.32 1.039 0.051 0.321 0.117 0.535 0.199 0.641 0.055 0.133 0.078 0.078 0.078-0.16z" inkscape:connector-curvature="0"/>
      <path id="path174" style="fill-rule:evenodd;fill:#fff0e3" d="m13.012 23.167c0.078-0.238 0.023-0.652-0.16-1.238-0.133-0.453-0.282-0.828-0.442-1.121-0.133-0.211-0.226-0.227-0.281-0.039-0.078 0.187-0.039 0.398 0.121 0.64 0.105 0.188 0.266 0.574 0.48 1.16 0.161 0.481 0.254 0.68 0.282 0.598z" inkscape:connector-curvature="0"/>
      <path id="path176" style="fill-rule:evenodd;fill:#fff0e3" d="m13.25 24.089c0.082-0.828 0.039-1.039-0.121-0.641-0.024 0.133-0.024 0.293 0 0.481 0.055 0.187 0.094 0.238 0.121 0.16z" inkscape:connector-curvature="0"/>
      <path id="path178" style="fill-rule:evenodd;fill:#fff0e3" d="m13.691 26.288c0-0.078 0.051-0.332 0.161-0.758 0.078-0.375 0.093-0.64 0.039-0.8-0.028-0.243-0.094-0.227-0.2 0.039-0.105 0.242-0.16 0.48-0.16 0.718 0.106 0.856 0.16 1.121 0.16 0.801z" inkscape:connector-curvature="0"/>
      <path id="path180" style="fill-rule:evenodd;fill:#fff0e3" d="m13.891 27.608c0-0.054 0.011-0.214 0.039-0.48 0-0.133-0.039-0.199-0.121-0.199-0.079 0-0.079 0.16 0 0.48 0.082 0.426 0.109 0.492 0.082 0.199z" inkscape:connector-curvature="0"/>
      <path id="path182" style="fill-rule:evenodd;fill:#fff0e3" d="m11.73 20.851c0.028-0.348-0.105-0.629-0.398-0.84-0.242-0.215-0.441-0.281-0.602-0.203-0.105 0.082 0.028 0.308 0.399 0.679 0.375 0.375 0.574 0.496 0.601 0.364z" inkscape:connector-curvature="0"/>
      <path id="path184" style="fill-rule:evenodd;fill:#fff0e3" d="m11.969 20.089c-0.078-0.856-0.293-1.305-0.637-1.359-0.187-0.055-0.137 0.199 0.16 0.757 0.317 0.59 0.477 0.789 0.477 0.602z" inkscape:connector-curvature="0"/>
      <path id="path186" style="fill-rule:evenodd;fill:#fff0e3" d="m13.609 21.05c-0.293-1.652-0.492-2.067-0.597-1.242-0.028 0.269 0.078 0.613 0.32 1.043 0.238 0.425 0.332 0.492 0.277 0.199z" inkscape:connector-curvature="0"/>
      <path id="path188" style="fill-rule:evenodd;fill:#b59b84" d="m15.77 2.011c0.613 0.289 1.066 0.597 1.359 0.918l0.84-0.602c0.75-0.344 1.617-0.332 2.601 0.043 1.575 0.613 2.492 1.145 2.762 1.598l0.84-0.281c0.719-0.106 1.437 0.121 2.16 0.683 1.117 0.879 1.824 1.598 2.117 2.16l0.281-0.16c0.239 0.024 0.547 0.305 0.922 0.84 0.559 0.824 1.012 2.051 1.356 3.68l-0.117-1.961c-0.239-1.414-0.696-2.414-1.36-3-1.039-0.985-1.629-1.387-1.761-1.199-1.118-1.336-2.266-2.11-3.438-2.321-0.75-0.109-1.387-0.176-1.922-0.199h-0.558c-1.282-0.934-2.497-1.402-3.641-1.402-0.695 0-1.215 0.066-1.559 0.203l-0.32 0.238c-0.215-0.238-0.547-0.465-1-0.68-0.883-0.425-1.934-0.613-3.16-0.558-1.203 0.051-2.176 0.289-2.922 0.719l-0.801 0.64c-2 0.024-3.492 0.387-4.48 1.078-0.586 0.426-1.039 0.907-1.36 1.442-0.211 0.426-0.359 0.679-0.437 0.758 1.066-0.907 2.105-1.387 3.117-1.438 1.016-0.082 1.773-0.066 2.281 0.039l0.84-1.039c0.852-0.668 2-1.016 3.442-1.043 1.437-0.023 2.746 0.254 3.918 0.844z" inkscape:connector-curvature="0"/>
      <path id="path190" style="fill-rule:evenodd;fill:#f7e8cf" d="m2.73 11.968c0.161 0.586 0.508 1.254 1.04 2l0.761 0.961c0.293 0.32 0.399 0.082 0.321-0.719-0.028-0.426-0.082-0.867-0.161-1.32h0.481c0.293-0.055 0.426-0.254 0.398-0.602-0.078-0.558 0.2-0.691 0.84-0.398l-0.961-1.121c-0.078-0.106-0.211-0.039-0.398 0.199-0.16 0.242-0.309 0.547-0.442 0.922-0.16 0.453-0.718 0.105-1.679-1.043-0.293-0.317-0.438-0.399-0.438-0.239 0 0.133 0.078 0.586 0.238 1.36z" inkscape:connector-curvature="0"/>
      <path id="path192" style="fill-rule:evenodd;fill:#f7e8cf" d="m10.531 11.968 0.84-1 0.758 0.082c0.562-0.027 0.988-0.199 1.281-0.52 0.293-0.32 0.719-0.359 1.281-0.121 0.293 0.11 0.664 0.321 1.118 0.641 0.214 0.105 0.242 0.012 0.082-0.281-0.082-0.184-0.254-0.493-0.52-0.918-0.133-0.243-0.336-0.321-0.601-0.243-0.321 0.055-0.52 0.055-0.598 0-0.402-0.347-1-0.32-1.801 0.083-0.402 0.187-0.734 0.253-1 0.199-0.215-0.055-0.519-0.239-0.922-0.559-0.398-0.293-0.707-0.281-0.918 0.039-0.215 0.321-0.308 0.879-0.281 1.68 0.027 0.695 0.227 1.109 0.602 1.242 0.343 0.129 0.574 0.024 0.679-0.324z" inkscape:connector-curvature="0"/>
      <path id="path194" style="fill-rule:evenodd;fill:#f7e8cf" d="m18.492 11.691c0.477-0.215 0.906-0.215 1.278 0 0.375 0.292 0.585 0.453 0.64 0.48 0.348 0.211 0.719 0.227 1.121 0.039 0.641-0.293 1.239-0.242 1.801 0.16l-1.121-0.84c-0.32-0.242-0.52-0.375-0.602-0.402-0.05 0-0.304 0.027-0.757 0.082-0.321 0.027-0.653-0.055-1-0.242-0.536-0.293-0.907-0.481-1.122-0.559-0.453-0.16-0.691 0.055-0.718 0.641-0.028 0.613 0.133 0.824 0.48 0.641z" inkscape:connector-curvature="0"/>
      <path id="path196" style="fill-rule:evenodd;fill:#f7e8cf" d="m26.492 13.327c0.184-0.265 0.067-0.785-0.363-1.558-0.078-0.188-0.172-0.106-0.277 0.242-0.161 0.664-0.293 1.133-0.403 1.398-0.183 0.481-0.144 0.707 0.121 0.68 0.239-0.027 0.547-0.281 0.922-0.762z" inkscape:connector-curvature="0"/>
      <path id="path198" style="fill-rule:evenodd;fill:#f7e8cf" d="m28.09 15.21c0.586-0.855 0.84-1.453 0.762-1.801-0.028-0.215-0.188-0.082-0.481 0.399-0.348 0.613-0.574 0.988-0.68 1.121-0.187 0.215-0.226 0.375-0.121 0.48 0.106 0.106 0.282 0.039 0.52-0.199z" inkscape:connector-curvature="0"/>
      <path id="path200" style="fill-rule:evenodd;fill:#f7e8cf" d="m2.93 16.288c0.453 0.215 0.425-0.012-0.078-0.68-0.563-0.691-0.907-1-1.043-0.917-0.133 0.078-0.079 0.32 0.16 0.718 0.269 0.426 0.59 0.719 0.961 0.879z" inkscape:connector-curvature="0"/>
    </g>
  </g>
<metadata><rdf:RDF><cc:Work><dc:format>image/svg+xml</dc:format><dc:type rdf:resource="http://purl.org/dc/dcmitype/StillImage"/><cc:license rdf:resource="http://creativecommons.org/licenses/publicdomain/"/><dc:publisher><cc:Agent rdf:about="http://openclipart.org/"><dc:title>Openclipart</dc:title></cc:Agent></dc:publisher></cc:Work><cc:License rdf:about="http://creativecommons.org/licenses/publicdomain/"><cc:permits rdf:resource="http://creativecommons.org/ns#Reproduction"/><cc:permits rdf:resource="http://creativecommons.org/ns#Distribution"/><cc:permits rdf:resource="http://creativecommons.org/ns#DerivativeWorks"/></cc:License></rdf:RDF></metadata></svg>
